<svg xmlns="http://www.w3.org/2000/svg" xmlns:xlink="http://www.w3.org/1999/xlink" viewBox="0 0 1920 1080"><defs><style>.cls-1{fill:url(#Degradado_sin_nombre_8);}.cls-2{fill:#921345;stroke:#921345;stroke-miterlimit:10;}</style><linearGradient id="Degradado_sin_nombre_8" y1="540" x2="1920" y2="540" gradientUnits="userSpaceOnUse"><stop offset="0" stop-color="#9e005d"/><stop offset="1" stop-color="#6a000b"/></linearGradient></defs><title>background</title><g id="Capa_2" data-name="Capa 2"><g id="Capa_1-2" data-name="Capa 1"><rect class="cls-1" width="1920" height="1080"/><path class="cls-2" d="M586.7,26.42V6.2H508.12c-.78.14-1.53.28-2.29.46a54.91,54.91,0,0,0-10.55,3.43,57.12,57.12,0,1,0,74.44,27.76H550.19a37.15,37.15,0,0,1,7.43,24.75A37.36,37.36,0,0,1,483,60.26c0-.63,0-1.26,0-1.88.91-18.19,16.51-32.19,34.72-32.14Z"/><path class="cls-2" d="M726.84,26.42V6.2H648.25c-.77.14-1.53.28-2.29.46a54.82,54.82,0,0,0-10.54,3.43,57.12,57.12,0,1,0,74.43,27.76H690.32a37.16,37.16,0,0,1,7.44,24.75,37.36,37.36,0,0,1-74.65-2.34c0-.63,0-1.26,0-1.88.9-18.19,16.5-32.19,34.71-32.14Z"/><path class="cls-2" d="M868,26.42V6.2H789.41c-.77.14-1.53.28-2.28.46a54.91,54.91,0,0,0-10.55,3.43A57.1,57.1,0,1,0,851,37.85H831.48a37.16,37.16,0,0,1,7.44,24.75,37.36,37.36,0,0,1-74.65-2.34c0-.63,0-1.26.05-1.88.9-18.19,16.5-32.19,34.71-32.14Z"/><path class="cls-2" d="M586.7,162.77V142.56H508.12c-.78.14-1.53.28-2.29.45a55.62,55.62,0,0,0-10.55,3.43,57.12,57.12,0,1,0,74.44,27.76H550.19A37.35,37.35,0,1,1,483,196.62c0-.63,0-1.26,0-1.88.91-18.19,16.51-32.19,34.72-32.14Z"/><path class="cls-2" d="M726.84,162.77V142.56H648.25c-.77.14-1.53.28-2.29.45a55.52,55.52,0,0,0-10.54,3.43,57.12,57.12,0,1,0,74.43,27.76H690.32a37.35,37.35,0,1,1-67.21,22.42c0-.63,0-1.26,0-1.88.9-18.19,16.5-32.19,34.71-32.14Z"/><path class="cls-2" d="M868,162.77V142.56H789.41c-.77.14-1.53.28-2.28.45a55.62,55.62,0,0,0-10.55,3.43A57.1,57.1,0,1,0,851,174.2H831.48a37.35,37.35,0,1,1-67.21,22.42c0-.63,0-1.26.05-1.88.9-18.19,16.5-32.19,34.71-32.14Z"/><path class="cls-2" d="M586.7,299.13V278.91H508.12c-.78.14-1.53.28-2.29.46a54.91,54.91,0,0,0-10.55,3.43,57.12,57.12,0,1,0,74.44,27.76H550.19a37.16,37.16,0,0,1,7.43,24.76A37.36,37.36,0,0,1,483,333c0-.63,0-1.25,0-1.88.91-18.18,16.51-32.19,34.72-32.14Z"/><path class="cls-2" d="M726.84,299.13V278.91H648.25c-.77.14-1.53.28-2.29.46a54.82,54.82,0,0,0-10.54,3.43,57.12,57.12,0,1,0,74.43,27.76H690.32a37.17,37.17,0,0,1,7.44,24.76A37.36,37.36,0,0,1,623.11,333c0-.63,0-1.25,0-1.88.9-18.18,16.5-32.19,34.71-32.14Z"/><path class="cls-2" d="M868,299.13V278.91H789.41c-.77.14-1.53.28-2.28.46a54.91,54.91,0,0,0-10.55,3.43A57.1,57.1,0,1,0,851,310.56H831.48a37.17,37.17,0,0,1,7.44,24.76A37.36,37.36,0,0,1,764.27,333c0-.63,0-1.25.05-1.88.9-18.18,16.5-32.19,34.71-32.14Z"/><path class="cls-2" d="M586.7,435.49V415.27H508.12c-.78.14-1.53.28-2.29.45a56.34,56.34,0,0,0-10.55,3.43,57.12,57.12,0,1,0,74.44,27.76H550.19A37.35,37.35,0,1,1,483,469.33c0-.63,0-1.26,0-1.88.91-18.19,16.51-32.19,34.72-32.14Z"/><path class="cls-2" d="M726.84,435.49V415.27H648.25c-.77.14-1.53.28-2.29.45a56.24,56.24,0,0,0-10.54,3.43,57.12,57.12,0,1,0,74.43,27.76H690.32a37.35,37.35,0,1,1-67.21,22.42c0-.63,0-1.26,0-1.88.9-18.19,16.5-32.19,34.71-32.14Z"/><path class="cls-2" d="M868,435.49V415.27H789.41c-.77.14-1.53.28-2.28.45a56.34,56.34,0,0,0-10.55,3.43A57.1,57.1,0,1,0,851,446.91H831.48a37.35,37.35,0,1,1-67.21,22.42c0-.63,0-1.26.05-1.88.9-18.19,16.5-32.19,34.71-32.14Z"/><path class="cls-2" d="M586.7,571.51V551.29H508.12c-.78.14-1.53.28-2.29.46a54.91,54.91,0,0,0-10.55,3.43,57.12,57.12,0,1,0,74.44,27.76H550.19a37.15,37.15,0,0,1,7.43,24.75A37.36,37.36,0,0,1,483,605.35c0-.63,0-1.26,0-1.88.91-18.19,16.51-32.19,34.72-32.14Z"/><path class="cls-2" d="M726.84,571.51V551.29H648.25c-.77.14-1.53.28-2.29.46a54.82,54.82,0,0,0-10.54,3.43,57.12,57.12,0,1,0,74.43,27.76H690.32a37.16,37.16,0,0,1,7.44,24.75,37.36,37.36,0,0,1-74.65-2.34c0-.63,0-1.26,0-1.88.9-18.19,16.5-32.19,34.71-32.14Z"/><path class="cls-2" d="M868,571.51V551.29H789.41c-.77.14-1.53.28-2.28.46a54.91,54.91,0,0,0-10.55,3.43A57.1,57.1,0,1,0,851,582.94H831.48a37.16,37.16,0,0,1,7.44,24.75,37.36,37.36,0,0,1-74.65-2.34c0-.63,0-1.26.05-1.88.9-18.19,16.5-32.19,34.71-32.14Z"/><path class="cls-2" d="M586.7,707.86V687.65H508.12c-.78.14-1.53.28-2.29.45a54.91,54.91,0,0,0-10.55,3.43,57.12,57.12,0,1,0,74.44,27.76H550.19A37.35,37.35,0,1,1,483,741.71c0-.63,0-1.26,0-1.88.91-18.19,16.51-32.19,34.72-32.14Z"/><path class="cls-2" d="M726.84,707.86V687.65H648.25c-.77.14-1.53.28-2.29.45a54.82,54.82,0,0,0-10.54,3.43,57.12,57.12,0,1,0,74.43,27.76H690.32a37.35,37.35,0,1,1-67.21,22.42c0-.63,0-1.26,0-1.88.9-18.19,16.5-32.19,34.71-32.14Z"/><path class="cls-2" d="M868,707.86V687.65H789.41c-.77.14-1.53.28-2.28.45a54.91,54.91,0,0,0-10.55,3.43A57.1,57.1,0,1,0,851,719.29H831.48a37.35,37.35,0,1,1-67.21,22.42c0-.63,0-1.26.05-1.88.9-18.19,16.5-32.19,34.71-32.14Z"/><path class="cls-2" d="M586.7,844.22V824H508.12c-.78.14-1.53.28-2.29.46a54.91,54.91,0,0,0-10.55,3.43,57.12,57.12,0,1,0,74.44,27.76H550.19a37.15,37.15,0,0,1,7.43,24.75A37.36,37.36,0,0,1,483,878.06c0-.63,0-1.26,0-1.88C483.93,858,499.53,844,517.74,844Z"/><path class="cls-2" d="M726.84,844.22V824H648.25c-.77.14-1.53.28-2.29.46a54.82,54.82,0,0,0-10.54,3.43,57.12,57.12,0,1,0,74.43,27.76H690.32a37.16,37.16,0,0,1,7.44,24.75,37.36,37.36,0,0,1-74.65-2.34c0-.63,0-1.26,0-1.88.9-18.19,16.5-32.19,34.71-32.14Z"/><path class="cls-2" d="M868,844.22V824H789.41c-.77.14-1.53.28-2.28.46a54.91,54.91,0,0,0-10.55,3.43A57.1,57.1,0,1,0,851,855.65H831.48a37.16,37.16,0,0,1,7.44,24.75,37.36,37.36,0,0,1-74.65-2.34c0-.63,0-1.26.05-1.88C765.22,858,780.82,844,799,844Z"/><path class="cls-2" d="M586.7,980.57V960.36H508.12c-.78.14-1.53.28-2.29.45a55.62,55.62,0,0,0-10.55,3.43A57.12,57.12,0,1,0,569.72,992H550.19A37.35,37.35,0,1,1,483,1014.42c0-.63,0-1.26,0-1.88.91-18.19,16.51-32.19,34.72-32.14Z"/><path class="cls-2" d="M726.84,980.57V960.36H648.25c-.77.14-1.53.28-2.29.45a55.52,55.52,0,0,0-10.54,3.43A57.12,57.12,0,1,0,709.85,992H690.32a37.35,37.35,0,1,1-67.21,22.42c0-.63,0-1.26,0-1.88.9-18.19,16.5-32.19,34.71-32.14Z"/><path class="cls-2" d="M868,980.57V960.36H789.41c-.77.14-1.53.28-2.28.45a55.62,55.62,0,0,0-10.55,3.43A57.1,57.1,0,1,0,851,992H831.48a37.35,37.35,0,1,1-67.21,22.42c0-.63,0-1.26.05-1.88.9-18.19,16.5-32.19,34.71-32.14Z"/><path class="cls-2" d="M157.7,26.42V6.2H79.12c-.78.14-1.53.28-2.29.46a54.91,54.91,0,0,0-10.55,3.43,57.12,57.12,0,1,0,74.44,27.76H121.19a37.15,37.15,0,0,1,7.43,24.75A37.36,37.36,0,0,1,54,60.26c0-.63,0-1.26,0-1.88.91-18.19,16.51-32.19,34.72-32.14Z"/><path class="cls-2" d="M297.84,26.42V6.2H219.25c-.77.14-1.53.28-2.29.46a54.82,54.82,0,0,0-10.54,3.43,57.12,57.12,0,1,0,74.43,27.76H261.32a37.16,37.16,0,0,1,7.44,24.75,37.36,37.36,0,0,1-74.65-2.34c0-.63,0-1.26,0-1.88.9-18.19,16.5-32.19,34.71-32.14Z"/><path class="cls-2" d="M439,26.42V6.2H360.41c-.77.14-1.53.28-2.28.46a54.91,54.91,0,0,0-10.55,3.43A57.1,57.1,0,1,0,422,37.85H402.48a37.16,37.16,0,0,1,7.44,24.75,37.36,37.36,0,0,1-74.65-2.34c0-.63,0-1.26.05-1.88.9-18.19,16.5-32.19,34.71-32.14Z"/><path class="cls-2" d="M157.7,162.77V142.56H79.12c-.78.14-1.53.28-2.29.45a55.62,55.62,0,0,0-10.55,3.43,57.12,57.12,0,1,0,74.44,27.76H121.19A37.35,37.35,0,1,1,54,196.62c0-.63,0-1.26,0-1.88.91-18.19,16.51-32.19,34.72-32.14Z"/><path class="cls-2" d="M297.84,162.77V142.56H219.25c-.77.14-1.53.28-2.29.45a55.52,55.52,0,0,0-10.54,3.43,57.12,57.12,0,1,0,74.43,27.76H261.32a37.35,37.35,0,1,1-67.21,22.42c0-.63,0-1.26,0-1.88.9-18.19,16.5-32.19,34.71-32.14Z"/><path class="cls-2" d="M439,162.77V142.56H360.41c-.77.14-1.53.28-2.28.45a55.62,55.62,0,0,0-10.55,3.43A57.1,57.1,0,1,0,422,174.2H402.48a37.35,37.35,0,1,1-67.21,22.42c0-.63,0-1.26.05-1.88.9-18.19,16.5-32.19,34.71-32.14Z"/><path class="cls-2" d="M157.7,299.13V278.91H79.12c-.78.14-1.53.28-2.29.46a54.91,54.91,0,0,0-10.55,3.43,57.12,57.12,0,1,0,74.44,27.76H121.19a37.16,37.16,0,0,1,7.43,24.76A37.36,37.36,0,0,1,54,333c0-.63,0-1.25,0-1.88.91-18.18,16.51-32.19,34.72-32.14Z"/><path class="cls-2" d="M297.84,299.13V278.91H219.25c-.77.14-1.53.28-2.29.46a54.82,54.82,0,0,0-10.54,3.43,57.12,57.12,0,1,0,74.43,27.76H261.32a37.17,37.17,0,0,1,7.44,24.76A37.36,37.36,0,0,1,194.11,333c0-.63,0-1.25,0-1.88.9-18.18,16.5-32.19,34.71-32.14Z"/><path class="cls-2" d="M439,299.13V278.91H360.41c-.77.14-1.53.28-2.28.46a54.91,54.91,0,0,0-10.55,3.43A57.1,57.1,0,1,0,422,310.56H402.48a37.17,37.17,0,0,1,7.44,24.76A37.36,37.36,0,0,1,335.27,333c0-.63,0-1.25.05-1.88.9-18.18,16.5-32.19,34.71-32.14Z"/><path class="cls-2" d="M157.7,435.49V415.27H79.12c-.78.14-1.53.28-2.29.45a56.34,56.34,0,0,0-10.55,3.43,57.12,57.12,0,1,0,74.44,27.76H121.19A37.35,37.35,0,1,1,54,469.33c0-.63,0-1.26,0-1.88.91-18.19,16.51-32.19,34.72-32.14Z"/><path class="cls-2" d="M297.84,435.49V415.27H219.25c-.77.14-1.53.28-2.29.45a56.24,56.24,0,0,0-10.54,3.43,57.12,57.12,0,1,0,74.43,27.76H261.32a37.35,37.35,0,1,1-67.21,22.42c0-.63,0-1.26,0-1.88.9-18.19,16.5-32.19,34.71-32.14Z"/><path class="cls-2" d="M439,435.49V415.27H360.41c-.77.14-1.53.28-2.28.45a56.34,56.34,0,0,0-10.55,3.43A57.1,57.1,0,1,0,422,446.91H402.48a37.35,37.35,0,1,1-67.21,22.42c0-.63,0-1.26.05-1.88.9-18.19,16.5-32.19,34.71-32.14Z"/><path class="cls-2" d="M157.7,571.51V551.29H79.12c-.78.14-1.53.28-2.29.46a54.91,54.91,0,0,0-10.55,3.43,57.12,57.12,0,1,0,74.44,27.76H121.19a37.15,37.15,0,0,1,7.43,24.75A37.36,37.36,0,0,1,54,605.35c0-.63,0-1.26,0-1.88.91-18.19,16.51-32.19,34.72-32.14Z"/><path class="cls-2" d="M297.84,571.51V551.29H219.25c-.77.14-1.53.28-2.29.46a54.82,54.82,0,0,0-10.54,3.43,57.12,57.12,0,1,0,74.43,27.76H261.32a37.16,37.16,0,0,1,7.44,24.75,37.36,37.36,0,0,1-74.65-2.34c0-.63,0-1.26,0-1.88.9-18.19,16.5-32.19,34.71-32.14Z"/><path class="cls-2" d="M439,571.51V551.29H360.41c-.77.14-1.53.28-2.28.46a54.91,54.91,0,0,0-10.55,3.43A57.1,57.1,0,1,0,422,582.94H402.48a37.16,37.16,0,0,1,7.44,24.75,37.36,37.36,0,0,1-74.65-2.34c0-.63,0-1.26.05-1.88.9-18.19,16.5-32.19,34.71-32.14Z"/><path class="cls-2" d="M157.7,707.86V687.65H79.12c-.78.14-1.53.28-2.29.45a54.91,54.91,0,0,0-10.55,3.43,57.12,57.12,0,1,0,74.44,27.76H121.19A37.35,37.35,0,1,1,54,741.71c0-.63,0-1.26,0-1.88.91-18.19,16.51-32.19,34.72-32.14Z"/><path class="cls-2" d="M297.84,707.86V687.65H219.25c-.77.14-1.53.28-2.29.45a54.82,54.82,0,0,0-10.54,3.43,57.12,57.12,0,1,0,74.43,27.76H261.32a37.35,37.35,0,1,1-67.21,22.42c0-.63,0-1.26,0-1.88.9-18.19,16.5-32.19,34.71-32.14Z"/><path class="cls-2" d="M439,707.86V687.65H360.41c-.77.14-1.53.28-2.28.45a54.91,54.91,0,0,0-10.55,3.43A57.1,57.1,0,1,0,422,719.29H402.48a37.35,37.35,0,1,1-67.21,22.42c0-.63,0-1.26.05-1.88.9-18.19,16.5-32.19,34.71-32.14Z"/><path class="cls-2" d="M157.7,844.22V824H79.12c-.78.14-1.53.28-2.29.46a54.91,54.91,0,0,0-10.55,3.43,57.12,57.12,0,1,0,74.44,27.76H121.19a37.15,37.15,0,0,1,7.43,24.75A37.36,37.36,0,0,1,54,878.06c0-.63,0-1.26,0-1.88C54.93,858,70.53,844,88.74,844Z"/><path class="cls-2" d="M297.84,844.22V824H219.25c-.77.14-1.53.28-2.29.46a54.82,54.82,0,0,0-10.54,3.43,57.12,57.12,0,1,0,74.43,27.76H261.32a37.16,37.16,0,0,1,7.44,24.75,37.36,37.36,0,0,1-74.65-2.34c0-.63,0-1.26,0-1.88.9-18.19,16.5-32.19,34.71-32.14Z"/><path class="cls-2" d="M439,844.22V824H360.41c-.77.14-1.53.28-2.28.46a54.91,54.91,0,0,0-10.55,3.43A57.1,57.1,0,1,0,422,855.65H402.48a37.16,37.16,0,0,1,7.44,24.75,37.36,37.36,0,0,1-74.65-2.34c0-.63,0-1.26.05-1.88C336.22,858,351.82,844,370,844Z"/><path class="cls-2" d="M157.7,980.57V960.36H79.12c-.78.14-1.53.28-2.29.45a55.62,55.62,0,0,0-10.55,3.43A57.12,57.12,0,1,0,140.72,992H121.19A37.35,37.35,0,1,1,54,1014.42c0-.63,0-1.26,0-1.88.91-18.19,16.51-32.19,34.72-32.14Z"/><path class="cls-2" d="M297.84,980.57V960.36H219.25c-.77.14-1.53.28-2.29.45a55.52,55.52,0,0,0-10.54,3.43A57.12,57.12,0,1,0,280.85,992H261.32a37.35,37.35,0,1,1-67.21,22.42c0-.63,0-1.26,0-1.88.9-18.19,16.5-32.19,34.71-32.14Z"/><path class="cls-2" d="M439,980.57V960.36H360.41c-.77.14-1.53.28-2.28.45a55.62,55.62,0,0,0-10.55,3.43A57.1,57.1,0,1,0,422,992H402.48a37.35,37.35,0,1,1-67.21,22.42c0-.63,0-1.26.05-1.88.9-18.19,16.5-32.19,34.71-32.14Z"/></g></g></svg>