<svg xmlns="http://www.w3.org/2000/svg" xmlns:xlink="http://www.w3.org/1999/xlink" viewBox="0 0 1920.5 1283.69"><defs><style>.cls-1{fill:none;}.cls-2{clip-path:url(#clip-path);}.cls-3,.cls-4{opacity:0.5;}.cls-3{fill:url(#Degradado_sin_nombre_8);}.cls-4{fill:#921345;stroke:#921345;stroke-miterlimit:10;}</style><clipPath id="clip-path"><rect class="cls-1" x="0.5" width="1920" height="1080"/></clipPath><linearGradient id="Degradado_sin_nombre_8" x1="-4485.5" y1="2774" x2="-2565.5" y2="2774" gradientTransform="translate(4486 -2234)" gradientUnits="userSpaceOnUse"><stop offset="0" stop-color="#9e005d"/><stop offset="1" stop-color="#6a000b"/></linearGradient></defs><title>bg1</title><g id="Capa_2" data-name="Capa 2"><g id="Capa_1-2" data-name="Capa 1"><g class="cls-2"><image width="1000" height="667" transform="translate(0.5) scale(1.92 1.92)" xlink:href="../../../../Downloads/AdobeStock_270704024_Preview.jpeg"/><rect class="cls-3" x="0.5" width="1920" height="1080" transform="translate(1921 1080) rotate(180)"/><path class="cls-4" d="M555.2,37.42V17.2H476.62c-.78.14-1.53.28-2.29.46a54.91,54.91,0,0,0-10.55,3.43,57.12,57.12,0,1,0,74.44,27.76H518.69a37.15,37.15,0,0,1,7.43,24.75,37.36,37.36,0,0,1-74.64-2.34c0-.63,0-1.26,0-1.88.91-18.19,16.51-32.19,34.72-32.14Z"/><path class="cls-4" d="M695.34,37.42V17.2H616.75c-.77.14-1.53.28-2.29.46a54.82,54.82,0,0,0-10.54,3.43,57.12,57.12,0,1,0,74.43,27.76H658.82a37.16,37.16,0,0,1,7.44,24.75,37.36,37.36,0,0,1-74.65-2.34c0-.63,0-1.26,0-1.88.9-18.19,16.5-32.19,34.71-32.14Z"/><path class="cls-4" d="M836.5,37.42V17.2H757.91c-.77.14-1.53.28-2.28.46a54.91,54.91,0,0,0-10.55,3.43,57.1,57.1,0,1,0,74.44,27.76H800a37.16,37.16,0,0,1,7.44,24.75,37.36,37.36,0,0,1-74.65-2.34c0-.63,0-1.26.05-1.88.9-18.19,16.5-32.19,34.71-32.14Z"/><path class="cls-4" d="M555.2,173.77V153.56H476.62c-.78.14-1.53.28-2.29.45a55.62,55.62,0,0,0-10.55,3.43,57.12,57.12,0,1,0,74.44,27.76H518.69a37.35,37.35,0,1,1-67.21,22.42c0-.63,0-1.26,0-1.88.91-18.19,16.51-32.19,34.72-32.14Z"/><path class="cls-4" d="M695.34,173.77V153.56H616.75c-.77.14-1.53.28-2.29.45a55.52,55.52,0,0,0-10.54,3.43,57.12,57.12,0,1,0,74.43,27.76H658.82a37.35,37.35,0,1,1-67.21,22.42c0-.63,0-1.26,0-1.88.9-18.19,16.5-32.19,34.71-32.14Z"/><path class="cls-4" d="M836.5,173.77V153.56H757.91c-.77.14-1.53.28-2.28.45a55.62,55.62,0,0,0-10.55,3.43,57.1,57.1,0,1,0,74.44,27.76H800a37.35,37.35,0,1,1-67.21,22.42c0-.63,0-1.26.05-1.88.9-18.19,16.5-32.19,34.71-32.14Z"/><path class="cls-4" d="M555.2,310.13V289.91H476.62c-.78.14-1.53.28-2.29.46a54.91,54.91,0,0,0-10.55,3.43,57.12,57.12,0,1,0,74.44,27.76H518.69a37.16,37.16,0,0,1,7.43,24.76A37.36,37.36,0,0,1,451.48,344c0-.63,0-1.25,0-1.88.91-18.18,16.51-32.19,34.72-32.14Z"/><path class="cls-4" d="M695.34,310.13V289.91H616.75c-.77.14-1.53.28-2.29.46a54.82,54.82,0,0,0-10.54,3.43,57.12,57.12,0,1,0,74.43,27.76H658.82a37.17,37.17,0,0,1,7.44,24.76A37.36,37.36,0,0,1,591.61,344c0-.63,0-1.25,0-1.88.9-18.18,16.5-32.19,34.71-32.14Z"/><path class="cls-4" d="M836.5,310.13V289.91H757.91c-.77.14-1.53.28-2.28.46a54.91,54.91,0,0,0-10.55,3.43,57.1,57.1,0,1,0,74.44,27.76H800a37.17,37.17,0,0,1,7.44,24.76A37.36,37.36,0,0,1,732.77,344c0-.63,0-1.25.05-1.88.9-18.18,16.5-32.19,34.71-32.14Z"/><path class="cls-4" d="M555.2,446.49V426.27H476.62c-.78.14-1.53.28-2.29.45a56.34,56.34,0,0,0-10.55,3.43,57.12,57.12,0,1,0,74.44,27.76H518.69a37.35,37.35,0,1,1-67.21,22.42c0-.63,0-1.26,0-1.88.91-18.19,16.51-32.19,34.72-32.14Z"/><path class="cls-4" d="M695.34,446.49V426.27H616.75c-.77.14-1.53.28-2.29.45a56.24,56.24,0,0,0-10.54,3.43,57.12,57.12,0,1,0,74.43,27.76H658.82a37.35,37.35,0,1,1-67.21,22.42c0-.63,0-1.26,0-1.88.9-18.19,16.5-32.19,34.71-32.14Z"/><path class="cls-4" d="M836.5,446.49V426.27H757.91c-.77.14-1.53.28-2.28.45a56.34,56.34,0,0,0-10.55,3.43,57.1,57.1,0,1,0,74.44,27.76H800a37.35,37.35,0,1,1-67.21,22.42c0-.63,0-1.26.05-1.88.9-18.19,16.5-32.19,34.71-32.14Z"/><path class="cls-4" d="M555.2,582.51V562.29H476.62c-.78.14-1.53.28-2.29.46a54.91,54.91,0,0,0-10.55,3.43,57.12,57.12,0,1,0,74.44,27.76H518.69a37.15,37.15,0,0,1,7.43,24.75,37.36,37.36,0,0,1-74.64-2.34c0-.63,0-1.26,0-1.88.91-18.19,16.51-32.19,34.72-32.14Z"/><path class="cls-4" d="M695.34,582.51V562.29H616.75c-.77.14-1.53.28-2.29.46a54.82,54.82,0,0,0-10.54,3.43,57.12,57.12,0,1,0,74.43,27.76H658.82a37.16,37.16,0,0,1,7.44,24.75,37.36,37.36,0,0,1-74.65-2.34c0-.63,0-1.26,0-1.88.9-18.19,16.5-32.19,34.71-32.14Z"/><path class="cls-4" d="M836.5,582.51V562.29H757.91c-.77.14-1.53.28-2.28.46a54.91,54.91,0,0,0-10.55,3.43,57.1,57.1,0,1,0,74.44,27.76H800a37.16,37.16,0,0,1,7.44,24.75,37.36,37.36,0,0,1-74.65-2.34c0-.63,0-1.26.05-1.88.9-18.19,16.5-32.19,34.71-32.14Z"/><path class="cls-4" d="M555.2,718.86V698.65H476.62c-.78.14-1.53.28-2.29.45a54.91,54.91,0,0,0-10.55,3.43,57.12,57.12,0,1,0,74.44,27.76H518.69a37.35,37.35,0,1,1-67.21,22.42c0-.63,0-1.26,0-1.88.91-18.19,16.51-32.19,34.72-32.14Z"/><path class="cls-4" d="M695.34,718.86V698.65H616.75c-.77.14-1.53.28-2.29.45a54.82,54.82,0,0,0-10.54,3.43,57.12,57.12,0,1,0,74.43,27.76H658.82a37.35,37.35,0,1,1-67.21,22.42c0-.63,0-1.26,0-1.88.9-18.19,16.5-32.19,34.71-32.14Z"/><path class="cls-4" d="M836.5,718.86V698.65H757.91c-.77.14-1.53.28-2.28.45a54.91,54.91,0,0,0-10.55,3.43,57.1,57.1,0,1,0,74.44,27.76H800a37.35,37.35,0,1,1-67.21,22.42c0-.63,0-1.26.05-1.88.9-18.19,16.5-32.19,34.71-32.14Z"/><path class="cls-4" d="M555.2,855.22V835H476.62c-.78.14-1.53.28-2.29.46a54.91,54.91,0,0,0-10.55,3.43,57.12,57.12,0,1,0,74.44,27.76H518.69a37.15,37.15,0,0,1,7.43,24.75,37.36,37.36,0,0,1-74.64-2.34c0-.63,0-1.26,0-1.88C452.43,869,468,855,486.24,855Z"/><path class="cls-4" d="M695.34,855.22V835H616.75c-.77.14-1.53.28-2.29.46a54.82,54.82,0,0,0-10.54,3.43,57.12,57.12,0,1,0,74.43,27.76H658.82a37.16,37.16,0,0,1,7.44,24.75,37.36,37.36,0,0,1-74.65-2.34c0-.63,0-1.26,0-1.88.9-18.19,16.5-32.19,34.71-32.14Z"/><path class="cls-4" d="M836.5,855.22V835H757.91c-.77.14-1.53.28-2.28.46a54.91,54.91,0,0,0-10.55,3.43,57.1,57.1,0,1,0,74.44,27.76H800a37.16,37.16,0,0,1,7.44,24.75,37.36,37.36,0,0,1-74.65-2.34c0-.63,0-1.26.05-1.88.9-18.19,16.5-32.19,34.71-32.14Z"/><path class="cls-4" d="M555.2,991.57V971.36H476.62c-.78.14-1.53.28-2.29.45a55.62,55.62,0,0,0-10.55,3.43A57.12,57.12,0,1,0,538.22,1003H518.69a37.35,37.35,0,1,1-67.21,22.42c0-.63,0-1.26,0-1.88.91-18.19,16.51-32.19,34.72-32.14Z"/><path class="cls-4" d="M695.34,991.57V971.36H616.75c-.77.14-1.53.28-2.29.45a55.52,55.52,0,0,0-10.54,3.43A57.12,57.12,0,1,0,678.35,1003H658.82a37.35,37.35,0,1,1-67.21,22.42c0-.63,0-1.26,0-1.88.9-18.19,16.5-32.19,34.71-32.14Z"/><path class="cls-4" d="M836.5,991.57V971.36H757.91c-.77.14-1.53.28-2.28.45a55.62,55.62,0,0,0-10.55,3.43A57.1,57.1,0,1,0,819.52,1003H800a37.35,37.35,0,1,1-67.21,22.42c0-.63,0-1.26.05-1.88.9-18.19,16.5-32.19,34.71-32.14Z"/><path class="cls-4" d="M126.2,37.42V17.2H47.62c-.78.14-1.53.28-2.29.46a54.91,54.91,0,0,0-10.55,3.43,57.12,57.12,0,1,0,74.44,27.76H89.69A37.15,37.15,0,0,1,97.12,73.6a37.36,37.36,0,0,1-74.64-2.34c0-.63,0-1.26,0-1.88C23.43,51.19,39,37.19,57.24,37.24Z"/><path class="cls-4" d="M266.34,37.42V17.2H187.75c-.77.14-1.53.28-2.29.46a54.82,54.82,0,0,0-10.54,3.43,57.12,57.12,0,1,0,74.43,27.76H229.82a37.16,37.16,0,0,1,7.44,24.75,37.36,37.36,0,0,1-74.65-2.34c0-.63,0-1.26,0-1.88.9-18.19,16.5-32.19,34.71-32.14Z"/><path class="cls-4" d="M407.5,37.42V17.2H328.91c-.77.14-1.53.28-2.28.46a54.91,54.91,0,0,0-10.55,3.43,57.1,57.1,0,1,0,74.44,27.76H371a37.16,37.16,0,0,1,7.44,24.75,37.36,37.36,0,0,1-74.65-2.34c0-.63,0-1.26.05-1.88.9-18.19,16.5-32.19,34.71-32.14Z"/><path class="cls-4" d="M126.2,173.77V153.56H47.62c-.78.14-1.53.28-2.29.45a55.62,55.62,0,0,0-10.55,3.43,57.12,57.12,0,1,0,74.44,27.76H89.69a37.35,37.35,0,1,1-67.21,22.42c0-.63,0-1.26,0-1.88.91-18.19,16.51-32.19,34.72-32.14Z"/><path class="cls-4" d="M266.34,173.77V153.56H187.75c-.77.14-1.53.28-2.29.45a55.52,55.52,0,0,0-10.54,3.43,57.12,57.12,0,1,0,74.43,27.76H229.82a37.35,37.35,0,1,1-67.21,22.42c0-.63,0-1.26,0-1.88.9-18.19,16.5-32.19,34.71-32.14Z"/><path class="cls-4" d="M407.5,173.77V153.56H328.91c-.77.14-1.53.28-2.28.45a55.62,55.62,0,0,0-10.55,3.43,57.1,57.1,0,1,0,74.44,27.76H371a37.35,37.35,0,1,1-67.21,22.42c0-.63,0-1.26.05-1.88.9-18.19,16.5-32.19,34.71-32.14Z"/><path class="cls-4" d="M126.2,310.13V289.91H47.62c-.78.14-1.53.28-2.29.46a54.91,54.91,0,0,0-10.55,3.43,57.12,57.12,0,1,0,74.44,27.76H89.69a37.16,37.16,0,0,1,7.43,24.76A37.36,37.36,0,0,1,22.48,344c0-.63,0-1.25,0-1.88C23.43,323.91,39,309.9,57.24,310Z"/><path class="cls-4" d="M266.34,310.13V289.91H187.75c-.77.14-1.53.28-2.29.46a54.82,54.82,0,0,0-10.54,3.43,57.12,57.12,0,1,0,74.43,27.76H229.82a37.17,37.17,0,0,1,7.44,24.76A37.36,37.36,0,0,1,162.61,344c0-.63,0-1.25,0-1.88.9-18.18,16.5-32.19,34.71-32.14Z"/><path class="cls-4" d="M407.5,310.13V289.91H328.91c-.77.14-1.53.28-2.28.46a54.91,54.91,0,0,0-10.55,3.43,57.1,57.1,0,1,0,74.44,27.76H371a37.17,37.17,0,0,1,7.44,24.76A37.36,37.36,0,0,1,303.77,344c0-.63,0-1.25.05-1.88.9-18.18,16.5-32.19,34.71-32.14Z"/><path class="cls-4" d="M126.2,446.49V426.27H47.62c-.78.14-1.53.28-2.29.45a56.34,56.34,0,0,0-10.55,3.43,57.12,57.12,0,1,0,74.44,27.76H89.69a37.35,37.35,0,1,1-67.21,22.42c0-.63,0-1.26,0-1.88.91-18.19,16.51-32.19,34.72-32.14Z"/><path class="cls-4" d="M266.34,446.49V426.27H187.75c-.77.14-1.53.28-2.29.45a56.24,56.24,0,0,0-10.54,3.43,57.12,57.12,0,1,0,74.43,27.76H229.82a37.35,37.35,0,1,1-67.21,22.42c0-.63,0-1.26,0-1.88.9-18.19,16.5-32.19,34.71-32.14Z"/><path class="cls-4" d="M407.5,446.49V426.27H328.91c-.77.14-1.53.28-2.28.45a56.34,56.34,0,0,0-10.55,3.43,57.1,57.1,0,1,0,74.44,27.76H371a37.35,37.35,0,1,1-67.21,22.42c0-.63,0-1.26.05-1.88.9-18.19,16.5-32.19,34.71-32.14Z"/><path class="cls-4" d="M126.2,582.51V562.29H47.62c-.78.14-1.53.28-2.29.46a54.91,54.91,0,0,0-10.55,3.43,57.12,57.12,0,1,0,74.44,27.76H89.69a37.15,37.15,0,0,1,7.43,24.75,37.36,37.36,0,0,1-74.64-2.34c0-.63,0-1.26,0-1.88.91-18.19,16.51-32.19,34.72-32.14Z"/><path class="cls-4" d="M266.34,582.51V562.29H187.75c-.77.14-1.53.28-2.29.46a54.82,54.82,0,0,0-10.54,3.43,57.12,57.12,0,1,0,74.43,27.76H229.82a37.16,37.16,0,0,1,7.44,24.75,37.36,37.36,0,0,1-74.65-2.34c0-.63,0-1.26,0-1.88.9-18.19,16.5-32.19,34.71-32.14Z"/><path class="cls-4" d="M407.5,582.51V562.29H328.91c-.77.14-1.53.28-2.28.46a54.91,54.91,0,0,0-10.55,3.43,57.1,57.1,0,1,0,74.44,27.76H371a37.16,37.16,0,0,1,7.44,24.75,37.36,37.36,0,0,1-74.65-2.34c0-.63,0-1.26.05-1.88.9-18.19,16.5-32.19,34.71-32.14Z"/><path class="cls-4" d="M126.2,718.86V698.65H47.62c-.78.14-1.53.28-2.29.45a54.91,54.91,0,0,0-10.55,3.43,57.12,57.12,0,1,0,74.44,27.76H89.69a37.35,37.35,0,1,1-67.21,22.42c0-.63,0-1.26,0-1.88.91-18.19,16.51-32.19,34.72-32.14Z"/><path class="cls-4" d="M266.34,718.86V698.65H187.75c-.77.14-1.53.28-2.29.45a54.82,54.82,0,0,0-10.54,3.43,57.12,57.12,0,1,0,74.43,27.76H229.82a37.35,37.35,0,1,1-67.21,22.42c0-.63,0-1.26,0-1.88.9-18.19,16.5-32.19,34.71-32.14Z"/><path class="cls-4" d="M407.5,718.86V698.65H328.91c-.77.14-1.53.28-2.28.45a54.91,54.91,0,0,0-10.55,3.43,57.1,57.1,0,1,0,74.44,27.76H371a37.35,37.35,0,1,1-67.21,22.42c0-.63,0-1.26.05-1.88.9-18.19,16.5-32.19,34.71-32.14Z"/><path class="cls-4" d="M126.2,855.22V835H47.62c-.78.14-1.53.28-2.29.46a54.91,54.91,0,0,0-10.55,3.43,57.12,57.12,0,1,0,74.44,27.76H89.69a37.15,37.15,0,0,1,7.43,24.75,37.36,37.36,0,0,1-74.64-2.34c0-.63,0-1.26,0-1.88C23.43,869,39,855,57.24,855Z"/><path class="cls-4" d="M266.34,855.22V835H187.75c-.77.14-1.53.28-2.29.46a54.82,54.82,0,0,0-10.54,3.43,57.12,57.12,0,1,0,74.43,27.76H229.82a37.16,37.16,0,0,1,7.44,24.75,37.36,37.36,0,0,1-74.65-2.34c0-.63,0-1.26,0-1.88.9-18.19,16.5-32.19,34.71-32.14Z"/><path class="cls-4" d="M407.5,855.22V835H328.91c-.77.14-1.53.28-2.28.46a54.91,54.91,0,0,0-10.55,3.43,57.1,57.1,0,1,0,74.44,27.76H371a37.16,37.16,0,0,1,7.44,24.75,37.36,37.36,0,0,1-74.65-2.34c0-.63,0-1.26.05-1.88.9-18.19,16.5-32.19,34.71-32.14Z"/><path class="cls-4" d="M126.2,991.57V971.36H47.62c-.78.14-1.53.28-2.29.45a55.62,55.62,0,0,0-10.55,3.43A57.12,57.12,0,1,0,109.22,1003H89.69a37.35,37.35,0,1,1-67.21,22.42c0-.63,0-1.26,0-1.88.91-18.19,16.51-32.19,34.72-32.14Z"/><path class="cls-4" d="M266.34,991.57V971.36H187.75c-.77.14-1.53.28-2.29.45a55.52,55.52,0,0,0-10.54,3.43A57.12,57.12,0,1,0,249.35,1003H229.82a37.35,37.35,0,1,1-67.21,22.42c0-.63,0-1.26,0-1.88.9-18.19,16.5-32.19,34.71-32.14Z"/><path class="cls-4" d="M407.5,991.57V971.36H328.91c-.77.14-1.53.28-2.28.45a55.62,55.62,0,0,0-10.55,3.43A57.1,57.1,0,1,0,390.52,1003H371a37.35,37.35,0,1,1-67.21,22.42c0-.63,0-1.26.05-1.88.9-18.19,16.5-32.19,34.71-32.14Z"/></g></g></g></svg>