<svg xmlns="http://www.w3.org/2000/svg" viewBox="0 0 357.17 345.01"><defs><style>.cls-1{fill:#921345;}</style></defs><title>experience</title><g id="Capa_2" data-name="Capa 2"><g id="Capa_1-2" data-name="Capa 1"><path class="cls-1" d="M107.42,285.64c0-7.16-.24-14.33,0-21.48.9-22.73,20.5-41.77,45.68-44.53,1.18-.13,2.72.92,3.76,1.82,13.39,11.62,29.67,11.67,43,.15,1.14-1,2.88-2.08,4.21-1.93,22.83,2.64,42.38,18.88,45.12,41.28.9,7.39.33,15,.37,22.46,0,8.49.19,17-.13,25.47a7.51,7.51,0,0,1-3,5.36c-13.42,8-26.83,16.14-40.62,23.52-18.19,9.74-36.82,9.64-55-.15-13.77-7.42-27.19-15.48-40.63-23.49a7,7,0,0,1-2.74-5c-.3-7.82-.13-15.65-.13-23.48Z"/><path class="cls-1" d="M129.19,214.43c-5.16,3.74-10.48,6.93-15,11-11.09,10-16.58,22.67-16.56,37.67,0,14.31,0,28.62,0,43.57-1.79-.9-3.1-1.47-4.34-2.19Q54.14,281.91,15,259.27c-2.87-1.66-5.43-3.83-8.23-5.63-6.28-4-7.8-9.48-6.22-16.72,4.81-22,24.26-36,44.7-38.45,1.33-.16,3.08.92,4.22,1.9,13.35,11.55,29.59,11.54,43,0a7.65,7.65,0,0,1,5.17-1.84A52.32,52.32,0,0,1,129.19,214.43Z"/><path class="cls-1" d="M259.42,306.6c0-14.52.11-28.46-.06-42.39A61.57,61.57,0,0,0,258,250.85c-3.43-14.58-12.3-25.2-25-32.82-1.57-.94-3.18-1.81-4.76-2.72-.14-.08-.22-.25-.64-.78,9-9.48,20.27-14.48,33.12-16.14,1-.13,2.44.8,3.38,1.59,14.52,12.11,29.57,12.13,43.72.11a6.4,6.4,0,0,1,4.33-1.59c23.1,3.05,42.69,19.73,44.93,43.27.32,3.45-.22,6.23-3,8.38-3.82,2.93-7.38,6.31-11.5,8.73-26.44,15.45-53,30.69-79.52,46C262.07,305.42,261,305.84,259.42,306.6Z"/><path class="cls-1" d="M213.68,170.08c-.54,15.31-3.93,27.77-13,38.22-12.64,14.53-31.31,15-43.85.42C143.46,193.15,140,174.89,146,155.38c4.59-15,18.42-23.54,34.43-22.57,16.6,1,28.57,10.93,31.89,26.67C213.12,163.54,213.37,167.71,213.68,170.08Z"/><path class="cls-1" d="M106.29,149.36c-.48,13.51-3.55,25.26-11.3,35.46-13.36,17.59-34.21,17.88-47.61.33C36,170.28,33.29,153.36,38.09,135.49c4.18-15.59,18.31-24.91,34.93-24,16.91.91,29.43,12.25,32.32,29.35C105.86,143.94,106,147.11,106.29,149.36Z"/><path class="cls-1" d="M250.67,146.78c.89-3.42,1.77-10.14,4.36-16.12,5.63-13,18.91-20.24,33.27-19.15,15.45,1.18,27,9.84,30.73,24.25,4.78,18.47,1.77,35.79-10.48,50.76-12.69,15.5-31.59,15.54-44.76.38C254.64,176.36,251.25,163.67,250.67,146.78Z"/><path class="cls-1" d="M179.31,12.19c.76,1.75,1.64,3.45,2.24,5.25,3.38,10.26,6.83,20.52,10,30.87,1,3.32,2.68,4.38,6.07,4.33,11.32-.18,22.64-.11,34,0,1.34,0,2.68.79,4,1.21-.83,1.28-1.39,2.93-2.54,3.78-8.81,6.56-17.62,13.14-26.69,19.33-3.55,2.43-4.14,4.71-2.74,8.68,3.68,10.34,6.93,20.84,10.23,31.31.41,1.28.08,2.78.09,4.18-1.45-.4-3.16-.44-4.31-1.26-9.23-6.55-18.43-13.15-27.46-20-2.76-2.09-4.67-2-7.41.08-9,6.82-18.25,13.39-27.47,20-1.09.78-2.63,1-4,1.4-.07-1.51-.56-3.16-.14-4.52,3.32-10.65,6.66-21.29,10.35-31.81,1.28-3.67.47-5.67-2.63-7.82-9.16-6.36-18.13-13-27.1-19.62-1.08-.8-1.71-2.22-2.54-3.35,1.41-.54,2.82-1.55,4.24-1.56,11.15-.13,22.32-.23,33.47,0,3.88.08,5.55-1.34,6.64-5,3.13-10.35,6.59-20.6,10-30.87a49.45,49.45,0,0,1,2.09-4.72Z"/><path class="cls-1" d="M72,1.55c2.52,7.69,5.38,15.29,7.43,23.11,1.38,5.27,3.86,7.18,9.34,6.74,6.62-.52,13.32-.15,20-.1,1.54,0,3.07.32,6.15.65-2.37,2-3.49,3.14-4.74,4.06-6,4.44-12,9-18.24,13.16-2.9,1.95-3.34,3.88-2.19,7.06,2.49,6.89,4.62,13.91,6.86,20.88.48,1.51.8,3.08,1.58,6.15-2.73-1.5-4.28-2.16-5.62-3.12-6-4.26-12-8.43-17.75-13-2.92-2.32-5-2.13-7.78.1-5.75,4.54-11.79,8.71-17.75,13-1.26.91-2.68,1.6-5.36,3.17.69-3,.93-4.59,1.4-6.06,2.21-7,4.3-14,6.82-20.89,1.23-3.37.8-5.36-2.3-7.42C43.71,45,37.9,40.5,32,36.16c-1.27-.94-2.43-2-4.87-4.08,2.95-.39,4.43-.75,5.91-.76,7.66-.06,15.33-.2,23,0,3.28.1,4.69-1.11,5.59-4.16,2.11-7.18,4.55-14.27,6.9-21.38.5-1.5,1.22-2.93,1.83-4.39Z"/><path class="cls-1" d="M242.06,31.93c3.11-.32,4.62-.61,6.14-.62,7.5,0,15-.2,22.49.05,3.42.12,5.05-.93,6-4.29,2.05-7.2,4.53-14.28,6.89-21.39.49-1.48,1.24-2.88,2.48-5.68,1.36,3.49,2.26,5.54,3,7.67,2,6,4.18,12,5.77,18.07,1.1,4.25,3,5.93,7.59,5.65,7-.41,14-.13,21-.09a9.28,9.28,0,0,1,5.29,1.52A45.73,45.73,0,0,1,325,36.13c-6.16,4.55-12.31,9.13-18.61,13.47-2.34,1.62-2.81,3.2-1.89,5.84,2.47,7.07,4.72,14.21,7,21.35.53,1.65.83,3.39,1.6,6.59-2.65-1.53-4.06-2.19-5.31-3.08-6.24-4.45-12.53-8.83-18.58-13.52-2.46-1.9-4.16-1.76-6.53,0-5.94,4.56-12.07,8.88-18.16,13.25-1.28.93-2.69,1.7-5.39,3.38a55.66,55.66,0,0,1,1.08-5.84c2.14-6.82,4.15-13.71,6.67-20.4,1.46-3.87,1.1-6.23-2.63-8.61-6-3.84-11.65-8.32-17.41-12.57C245.59,35.12,244.47,34,242.06,31.93Z"/></g></g></svg>