<svg xmlns="http://www.w3.org/2000/svg" viewBox="0 0 1920 1080"><defs><style>.cls-1{fill:#921345;}.cls-2{fill:#d36a95;opacity:0.5;}</style></defs><title>Recurso 7_1</title><g id="Capa_2" data-name="Capa 2"><g id="Capa_1-2" data-name="Capa 1"><rect class="cls-1" width="1920" height="1080"/><path class="cls-2" d="M1919.89,192.44V0h-1461c-7.37,1.34-14.57,2.68-21.77,4.35A526.58,526.58,0,0,0,336.62,37C135.4,124.74-2.33,330.6,11,567,26.75,846.31,257.75,1070.7,537.53,1079.1c308.21,9.26,561-237.66,561-543.61a543.26,543.26,0,0,0-52.91-234.27h-186a353.69,353.69,0,0,1,70.81,235.65c-11,178.21-156.81,323-335.2,332.76-205.44,11.21-375.74-152.16-375.74-355q0-9,.45-17.91c8.6-173.11,157.19-306.37,330.61-305.92Z"/></g></g></svg>