<svg xmlns="http://www.w3.org/2000/svg" viewBox="0 0 1910.78 1081"><defs><style>.cls-1{fill:#921345;stroke:#921345;stroke-miterlimit:10;}</style></defs><title>Recurso 6</title><g id="Capa_2" data-name="Capa 2"><g id="Capa_1-2" data-name="Capa 1"><path class="cls-1" d="M1910.28,193.06V.5h-1461c-7.36,1.34-14.56,2.68-21.76,4.35A526.63,526.63,0,0,0,327,37.5C125.79,125.32-11.94,331.3,1.39,567.85c15.75,279.47,246.75,504,526.53,512.4,308.21,9.26,560.95-237.81,560.95-543.94A543.85,543.85,0,0,0,1036,301.9h-186a354.05,354.05,0,0,1,70.81,235.79c-11,178.32-156.82,323.22-335.2,333C380.1,881.87,209.8,718.39,209.8,515.38q0-9,.45-17.91c8.6-173.21,157.19-306.55,330.61-306.11Z"/></g></g></svg>