<?xml version="1.0" encoding="utf-8"?>
<!-- Generator: Adobe Illustrator 23.0.1, SVG Export Plug-In . SVG Version: 6.00 Build 0)  -->
<svg version="1.1" id="Capa_1" xmlns="http://www.w3.org/2000/svg" xmlns:xlink="http://www.w3.org/1999/xlink" x="0px" y="0px"
	 viewBox="0 0 1603.7 365.6" style="enable-background:new 0 0 1603.7 365.6;" xml:space="preserve">
<style type="text/css">
	.st0{fill:#921345;stroke:#921345;stroke-miterlimit:10;}
	.st1{fill:#595959;}
</style>
<title>SigmaLogo_1</title>
<g id="Capa_1-2">
	<path class="st0" d="M345.6,56V0.5H129.9c-2.1,0.4-4.2,0.8-6.3,1.3c-10,2.2-19.7,5.3-29,9.4C34.4,37.4-3.1,98.5,0.8,164.1
		c4.5,80.6,71.1,145.3,151.8,147.7c86.6,2.6,159-65.5,161.6-152.1c0.8-25-4.4-49.7-15.2-72.3h-53.6c14.7,19.5,22,43.6,20.4,68
		c-3.2,51.4-45.2,93.2-96.6,96c-56.6,3.2-105-40.2-108.2-96.7c-0.1-1.9-0.2-3.8-0.2-5.7c0-1.7,0-3.4,0.1-5.2
		c2.5-49.9,45.3-88.4,95.3-88.3L345.6,56z"/>
	<path class="st1" d="M444.8,145.9c-0.2,5.7,1.5,11.3,4.6,16c3.2,4.6,7.3,8.6,11.9,11.7c4.8,3.3,10,6.7,15.4,10
		c5.6,3.2,11,6.6,16.2,10.2c5.1,3.5,9.5,7.9,12.9,12.9c3.4,5,5.1,11.1,5.1,18.4c0.1,6.9-1.8,13.7-5.5,19.6c-3.9,6-9.3,10.9-15.8,14
		c-6.9,3.5-15.4,5.2-25.5,5.2c-3.6,0-7.2-0.3-10.8-0.8c-3.6-0.5-7.2-1.4-10.7-2.6c-3.6-1.2-7.2-2.8-10.5-4.5c-0.7-0.4-1.2-1-1.5-1.7
		c-0.3-0.9-0.5-1.7-0.6-2.6l-3-30.9c-0.1-0.8,0.2-1.2,1-1.3s1.3,0.2,1.5,0.8c1.1,4.7,2.6,9.4,4.5,13.8c1.9,4.7,4.5,9,7.7,12.9
		c3.2,3.9,7.1,7.2,11.6,9.5c4.9,2.5,10.4,3.8,15.9,3.6c4.4,0,8.7-0.8,12.8-2.5c4.1-1.7,7.7-4.5,10.2-8.2c2.7-3.8,4-8.9,4-15.4
		c0-7.4-1.6-13.6-4.9-18.5c-3.3-5-7.5-9.3-12.4-12.8c-5.1-3.7-10.4-7.1-15.9-10.2c-5.3-3.3-10.4-6.7-15.3-10.2
		c-4.8-3.3-8.8-7.5-12-12.4c-3.1-4.8-4.6-10.7-4.6-17.8c0-8,2-14.6,6.1-19.9c4.1-5.3,9.6-9.3,15.9-11.7c6.4-2.6,13.3-3.9,20.2-3.9
		c4.4,0,8.8,0.4,13.2,1.3c4.6,0.9,9.1,2.3,13.4,4.2c1,0.3,1.9,0.9,2.6,1.7c0.5,0.6,0.8,1.4,0.8,2.2l1.5,25.8c0,0.6-0.4,0.9-1.1,1
		c-0.7,0.1-1.3-0.2-1.6-0.8c-0.4-3.5-1.2-6.8-2.5-10.1c-1.4-3.8-3.4-7.4-5.9-10.6c-2.6-3.4-6-6.2-9.8-8.2c-4.4-2.2-9.3-3.3-14.3-3.1
		c-5.9,0-10.7,1.3-14.4,3.8c-3.6,2.3-6.4,5.6-8.2,9.5C445.7,137.4,444.8,141.6,444.8,145.9z"/>
	<path class="st1" d="M568.4,242.8c0,4.4,0.5,7.7,1.4,10c1,2.3,3.1,4,5.6,4.5c4.1,0.9,8.2,1.3,12.4,1.1c0.5,0,0.7,0.5,0.7,1.4
		s-0.2,1.4-0.7,1.4c-3.6,0-7.7-0.1-12.1-0.2c-4.5-0.2-9.4-0.2-14.9-0.2c-5.1,0-10,0.1-14.5,0.2s-8.6,0.2-12.3,0.2
		c-0.5,0-0.7-0.5-0.7-1.4s0.2-1.4,0.7-1.4c4.2,0.1,8.4-0.3,12.5-1.1c2.9-0.8,4.8-2.3,5.7-4.5s1.4-5.6,1.4-10v-105
		c0-4.4-0.5-7.7-1.4-9.9c-0.9-2.2-2.8-3.7-5.7-4.5c-4.1-1-8.3-1.4-12.5-1.3c-0.5,0-0.7-0.4-0.7-1.4s0.2-1.4,0.7-1.4
		c3.6,0,7.7,0.1,12.3,0.3c4.5,0.2,9.4,0.3,14.5,0.3c5.4,0,10.4-0.1,15-0.3s8.5-0.3,12-0.3c0.5,0,0.7,0.4,0.7,1.4s-0.2,1.4-0.7,1.4
		c-5.5,0-9.6,0.5-12.4,1.4c-2.5,0.6-4.5,2.4-5.6,4.8c-0.9,2.3-1.4,5.6-1.4,10V242.8z"/>
	<path class="st1" d="M690.5,263.9c-16.9,0-31.5-3.2-43.6-9.6c-12.1-6.4-21.3-15.1-27.7-26c-17.6-29.8-11.3-68,15.1-90.5
		c8.1-6.8,17.4-12.1,27.5-15.4c11.1-3.7,22.7-5.6,34.4-5.4c7,0,14,0.6,20.9,2c5.9,1,11.6,3.1,16.8,6.1c1.4,0.9,2.1,1.7,2.3,2.3
		c0.2,1,0.4,2,0.5,3l2.7,25.4c0,0.3-0.4,0.6-1.2,0.8s-1.3,0-1.5-0.6c-3.3-11-9.3-19.5-17.9-25.3c-8.6-5.8-19.4-8.7-32.2-8.7
		c-19.2,0-34,5.6-44.3,16.7s-15.5,26.2-15.5,45.3c0,15,3,28.2,9.1,39.6c5.7,11,14.2,20.3,24.7,26.9c10.5,6.5,22.3,9.7,35.6,9.7
		c7.3,0,13.1-0.7,17.5-2c4.2-1.2,7.7-4.1,9.6-8c2-3.9,3.1-9.8,3.1-17.5c0-7.3-0.5-12.6-1.5-16c-0.9-3.3-3.5-5.9-6.8-6.7
		c-3.5-1.1-9.3-1.6-17.3-1.6c-0.9,0-1.4-0.6-1.4-1.8s0.4-1.8,1.1-1.8c9.5,0.6,18.2,0.9,26.1,1s16.1-0.1,24.7-0.6
		c0.8,0,1.1,0.5,1.1,1.6s-0.4,1.6-1.1,1.6c-3.5-0.2-6,0.3-7.6,1.5s-2.6,3.6-3.1,7.4c-0.5,5.9-0.8,11.8-0.7,17.7
		c-0.1,3.7,0.1,7.4,0.5,11.1c0.3,2.4,0.6,4.2,0.8,5.3c0.2,1.2,0.3,2.3,0.3,3.5c0.1,0.6-0.1,1.3-0.5,1.8c-0.6,0.4-1.3,0.8-2,0.9
		c-7.7,1.8-15.8,3.3-24.2,4.5C706.6,263.2,698.6,263.8,690.5,263.9z"/>
	<path class="st1" d="M787.6,236.4l2.3-111.8l5.5,0.5L793,236.4c-0.1,7.9,1.2,13.5,4,16.9c2.8,3.4,7.9,5.1,15.3,5.1
		c0.3,0,0.5,0.5,0.5,1.4s-0.2,1.4-0.5,1.4c-3.3,0-6.8-0.1-10.3-0.2s-7.5-0.2-11.7-0.2c-3.9,0-7.6,0.1-11.1,0.2s-6.7,0.2-9.8,0.2
		c-0.3,0-0.5-0.5-0.5-1.4s0.2-1.4,0.5-1.4c6.3,0,10.9-1.7,13.7-5.1C786,249.9,787.4,244.3,787.6,236.4z M944.8,258.4
		c0.5,0,0.7,0.5,0.7,1.4s-0.2,1.4-0.7,1.4c-3.6,0-7.8-0.1-12.4-0.2c-4.6-0.2-9.4-0.2-14.4-0.2c-4.9,0-9.4,0.1-13.5,0.2
		c-4.2,0.2-7.9,0.2-11.2,0.2c-0.3,0-0.5-0.5-0.5-1.4s0.2-1.4,0.5-1.4c7.6,0,12.4-1,14.5-2.9c2.1-2,3-6.2,2.7-12.7l-4.3-109.6
		l7.5-10.4l-59,136.8c-0.2,0.6-0.8,0.9-1.8,0.9s-1.7-0.3-2-0.9l-57-121.4c-5.2-10.7-12.8-16.1-22.9-16.1c-0.3,0-0.5-0.4-0.5-1.4
		s0.2-1.4,0.5-1.4c2.4,0,5,0.1,7.8,0.2c2.8,0.2,5.1,0.2,6.9,0.2c2.4,0,4.7-0.1,6.7-0.2s3.6-0.2,4.7-0.2c1.9-0.1,3.7,0.6,5,2
		c1.2,1.3,3,4.6,5.5,9.8L859.3,240l-7,11.8L907.6,125c0.6-1.6,1.6-3.1,3-4.2c1.1-0.9,2.4-1.5,3.9-1.5c0.9,0,2.1,0.1,3.6,0.2
		c1.8,0.2,3.6,0.2,5.4,0.2c4.1,0,7.4-0.1,10-0.2s5.3-0.2,8.2-0.2c0.3,0,0.5,0.4,0.5,1.4s-0.2,1.4-0.5,1.4c-7.3,0-12.6,1.1-16.1,3.2
		c-3.5,2.1-5.1,6.3-4.8,12.5l4.5,105c0,3.4,0.5,6.8,1.6,10c1,2.3,3.1,4,5.6,4.5C936.5,258.1,940.6,258.5,944.8,258.4L944.8,258.4z"
		/>
	<path class="st1" d="M1108.6,258.4c0.6,0,0.9,0.5,0.9,1.4s-0.3,1.4-0.9,1.4c-4.4,0-8.8-0.1-13.4-0.5s-8.9-0.5-13.2-0.5
		c-4.7,0-8.8,0.2-12.3,0.5s-7.4,0.5-11.6,0.5c-0.6,0-0.9-0.5-0.9-1.4s0.3-1.4,0.9-1.4c8,0,13-1.2,15-3.5c2-2.3,1.5-6.8-1.6-13.3
		l-50.4-106.4l5.7-7l-44,104.1c-3.8,9.2-4,15.9-0.7,20c3.3,4.1,9.9,6.1,19.7,6.1c0.8,0,1.1,0.5,1.1,1.4s-0.4,1.4-1.1,1.4
		c-4.5,0-8.7-0.1-12.5-0.5c-3.8-0.3-8.5-0.5-14.3-0.5c-5.5,0-9.8,0.2-13,0.5c-3.2,0.3-7.2,0.5-11.9,0.5c-0.6,0-0.9-0.5-0.9-1.4
		s0.3-1.4,0.9-1.4c3.7,0.1,7.4-0.7,10.7-2.4c3-1.6,5.9-4.4,8.5-8.4c3.4-5.5,6.3-11.3,8.7-17.4l47.9-113c0.4-0.5,1-0.7,1.6-0.7
		c0.8,0,1.2,0.2,1.4,0.7l53.5,112.8c2.7,6,5.8,11.8,9.3,17.4c2.7,4.2,5.4,7,8,8.6C1102.5,257.7,1105.5,258.5,1108.6,258.4z
		 M998.3,186.1l3.4-4.8h46.7l1.6,4.8H998.3z"/>
	<rect x="1143.1" y="1.5" class="st0" width="3.8" height="363.7"/>
	<path d="M1246.4,142c0.3,0,0.4,0.2,0.4,0.5s-0.1,0.6-0.4,0.6c-1.8,0-3.5-0.1-5.4-0.2s-3.6-0.2-5.3-0.2c-1.9,0-3.5,0.1-4.9,0.2
		s-2.9,0.2-4.6,0.2c-0.2,0-0.4-0.2-0.4-0.6s0.1-0.5,0.4-0.5c3.2,0,5.2-0.5,6-1.4s0.6-2.7-0.6-5.3l-20.2-42.6l2.3-2.8l-17.7,41.7
		c-1.5,3.7-1.6,6.4-0.3,8c1.3,1.6,4,2.5,7.9,2.5c0.3,0,0.5,0.2,0.5,0.5s-0.2,0.6-0.5,0.6c-1.8,0-3.5-0.1-5-0.2s-3.4-0.2-5.7-0.2
		s-3.9,0.1-5.2,0.2s-2.9,0.2-4.8,0.2c-0.2,0-0.4-0.2-0.4-0.6s0.1-0.5,0.4-0.5c1.5,0,3-0.3,4.3-1c1.4-0.8,2.6-2,3.4-3.4
		c1.4-2.2,2.5-4.6,3.5-7l19.2-45.3c0.2-0.2,0.4-0.3,0.6-0.3c0.3,0,0.5,0.1,0.5,0.3l21.5,45.2c1.1,2.4,2.3,4.8,3.7,7
		c0.8,1.4,1.9,2.6,3.2,3.4C1243.9,141.7,1245.1,142,1246.4,142z M1202.2,113l1.4-1.9h18.7l0.6,1.9H1202.2z"/>
	<path d="M1255.8,113.6c0,1.4,0.4,2.8,1.2,4c0.8,1.1,1.9,2.1,3.1,2.8c1.2,0.8,2.6,1.5,4,2.2c1.6,0.8,3.1,1.6,4.5,2.5
		c1.3,0.8,2.5,1.9,3.4,3.2c1,1.4,1.4,3.1,1.4,4.9c0,1.9-0.5,3.8-1.5,5.4c-1,1.7-2.5,3.1-4.3,4c-2.2,1.1-4.6,1.6-7,1.6
		c-1.5,0-2.9-0.2-4.4-0.6c-1.6-0.5-3-1.2-4.4-2.1c-0.1-0.1-0.3-0.3-0.4-0.4c-0.1-0.2-0.2-0.4-0.2-0.6l-0.2-7.1
		c0-0.2,0.2-0.3,0.5-0.3s0.5,0,0.6,0.2c0.6,1.9,1.5,3.6,2.7,5.1c1,1.3,2.3,2.4,3.7,3.1c1.4,0.7,2.9,1,4.4,1c1.6,0.1,3.2-0.4,4.5-1.4
		c1.1-1.1,1.7-2.7,1.5-4.3c0-1.5-0.5-3-1.4-4.3c-0.9-1.1-1.9-2-3.1-2.8c-1.2-0.8-2.5-1.5-3.9-2.1c-1.5-0.7-3-1.5-4.3-2.3
		c-1.4-0.8-2.5-1.8-3.4-3.1c-0.9-1.5-1.4-3.2-1.3-5c-0.1-2.1,0.5-4.1,1.8-5.8c1.2-1.5,2.8-2.6,4.6-3.3c1.9-0.7,3.9-1,5.9-1
		c1.1,0,2.3,0.1,3.4,0.3c1.1,0.2,2.2,0.6,3.3,1.1c0.5,0.1,0.8,0.5,0.8,1c0,1,0,2-0.1,3s-0.1,2.3-0.1,3.6c0,0.1-0.2,0.2-0.6,0.2
		s-0.5-0.1-0.5-0.2c0-1.4-0.5-2.7-1.5-3.7c-1-1.1-2.3-2-3.6-2.6c-1.4-0.6-2.9-1-4.4-1c-1.3,0-2.6,0.4-3.6,1.2
		C1256.1,110.8,1255.6,112.1,1255.8,113.6z"/>
	<path d="M1285.9,113.6c0,1.4,0.4,2.8,1.2,4c0.8,1.1,1.9,2.1,3.1,2.8c1.2,0.8,2.6,1.5,4,2.2c1.6,0.8,3.1,1.6,4.4,2.5
		c1.3,0.8,2.5,1.9,3.5,3.2c1,1.4,1.4,3.1,1.4,4.9c0,4-2.2,7.7-5.8,9.4c-2.2,1.1-4.6,1.6-7,1.6c-1.5,0-2.9-0.2-4.4-0.6
		c-1.6-0.5-3-1.2-4.4-2.1c-0.1-0.1-0.3-0.3-0.4-0.4c-0.1-0.2-0.2-0.4-0.2-0.6l-0.2-7.1c0-0.2,0.2-0.3,0.5-0.3s0.5,0,0.6,0.2
		c0.6,1.9,1.5,3.6,2.7,5.1c1,1.3,2.3,2.3,3.7,3.1c1.4,0.7,2.9,1,4.5,1c1.6,0.1,3.2-0.4,4.5-1.4c1.1-1.1,1.7-2.7,1.5-4.3
		c0-1.5-0.5-3-1.4-4.3c-0.9-1.1-1.9-2-3.1-2.8c-1.3-0.8-2.5-1.5-3.9-2.1c-1.5-0.7-3-1.5-4.3-2.3c-1.3-0.8-2.5-1.9-3.4-3.1
		c-0.9-1.5-1.4-3.2-1.3-5c-0.1-2.1,0.6-4.1,1.8-5.8c1.2-1.5,2.8-2.6,4.6-3.3c1.9-0.7,3.9-1,5.9-1c1.1,0,2.3,0.1,3.4,0.3
		c1.1,0.2,2.2,0.6,3.3,1.1c0.5,0.1,0.8,0.5,0.8,1c0,1,0,2-0.1,3s-0.1,2.3-0.1,3.6c0,0.1-0.2,0.2-0.6,0.2s-0.5-0.1-0.5-0.2
		c0-1.4-0.5-2.7-1.5-3.7c-1-1.1-2.2-2-3.6-2.6c-1.4-0.6-2.9-1-4.4-1c-1.3,0-2.6,0.4-3.6,1.2C1286.4,110.7,1285.8,112.1,1285.9,113.6
		z"/>
	<path d="M1327.9,144.2c-3.3,0.1-6.6-0.8-9.5-2.5c-2.5-1.6-4.5-3.8-5.7-6.5c-1.3-2.6-1.9-5.5-1.9-8.5c-0.2-10.6,8.3-19.4,19-19.5
		c0.2,0,0.4,0,0.6,0c3.3,0,5.9,0.8,7.7,2.4c1.8,1.7,2.8,4.1,2.7,6.6c0,0.5,0,1-0.2,1.5c-0.1,0.4-0.5,0.6-0.9,0.6h-5.3
		c0.2-3-0.3-5.3-1.6-6.9c-1.4-1.6-3.4-2.5-5.5-2.4c-3.1-0.2-6,1.3-7.8,3.8c-1.8,2.6-2.7,6-2.7,10.4c-0.1,3.1,0.5,6.3,1.7,9.2
		c1,2.5,2.7,4.7,4.9,6.3c2.2,1.6,4.9,2.4,7.7,2.3c1.6,0,3.3-0.3,4.8-0.7c1.7-0.5,3.2-1.3,4.6-2.3c0.1-0.1,0.3,0,0.5,0.2
		s0.3,0.5,0.1,0.7c-1.9,1.7-4.1,3.1-6.6,4C1332.5,143.7,1330.2,144.2,1327.9,144.2z M1315.2,118.5l-0.1-1.2l20.7-0.5v1.5
		L1315.2,118.5z"/>
	<path d="M1361.8,144.2c-1.4,0-2.8-0.2-4.2-0.7c-1.3-0.4-2.4-1.2-3.3-2.3c-0.9-1.3-1.4-2.9-1.3-4.5v-21.4c0-1.1-0.1-2.2-0.3-3.3
		c-0.1-0.7-0.6-1.2-1.3-1.4c-1-0.3-2.1-0.4-3.1-0.3c-0.2,0-0.4-0.2-0.4-0.6s0.1-0.6,0.4-0.6c2.2,0,4.3-0.7,6-2
		c1.5-1.2,2.4-3,2.6-4.9c0-0.2,0.2-0.3,0.7-0.3s0.7,0.1,0.7,0.3v31.4c0,2.5,0.6,4.3,1.9,5.6c1.5,1.3,3.4,1.9,5.3,1.8
		c1.4,0,2.9-0.2,4.2-0.8c1.1-0.4,2.1-1,3-1.8c0.2-0.1,0.5,0,0.7,0.2s0.2,0.5,0,0.7c-1.8,1.5-3.9,2.7-6,3.7
		C1365.6,143.8,1363.7,144.2,1361.8,144.2z M1370.6,112.5c-2.2-0.6-4.5-1-6.8-1.2c-2.2-0.2-4.5-0.3-7-0.3v-2c2.4,0,4.8-0.1,7-0.3
		s4.6-0.4,7.2-0.6c0.1,0,0.3,0.2,0.4,0.6c0.2,0.5,0.2,1,0.2,1.6c0,0.5-0.1,1-0.3,1.4C1371,112.3,1370.8,112.5,1370.6,112.5z"/>
	<path d="M1193.7,242.3l0.9-44.8l2.2,0.2l-0.9,44.6c-0.1,3.1,0.5,5.4,1.6,6.8c1.1,1.4,3.2,2.1,6.1,2.1c0.1,0,0.2,0.2,0.2,0.5
		s-0.1,0.6-0.2,0.6c-1.3,0-2.7,0-4.1-0.1s-3-0.1-4.7-0.1s-3.1,0-4.4,0.1s-2.7,0.1-3.9,0.1c-0.1,0-0.2-0.2-0.2-0.6s0.1-0.5,0.2-0.5
		c2.5,0,4.4-0.7,5.5-2.1S1193.6,245.4,1193.7,242.3z M1256.7,251.1c0.2,0,0.3,0.2,0.3,0.5c0,0.4-0.1,0.6-0.3,0.6c-1.5,0-3.1,0-5-0.1
		s-3.8-0.1-5.8-0.1s-3.7,0-5.4,0.1s-3.2,0.1-4.5,0.1c-0.1,0-0.2-0.2-0.2-0.6s0.1-0.5,0.2-0.5c3,0,5-0.4,5.8-1.2
		c0.8-0.8,1.2-2.5,1.1-5.1l-1.7-43.9l3-4.2l-23.6,54.8c-0.1,0.3-0.3,0.4-0.7,0.4s-0.7-0.1-0.8-0.4l-22.8-48.6
		c-2.1-4.3-5.1-6.4-9.2-6.4c-0.1,0-0.2-0.2-0.2-0.6s0.1-0.5,0.2-0.5c1,0,2,0,3.1,0.1s2,0.1,2.8,0.1c1,0,1.9,0,2.7-0.1
		s1.4-0.1,1.9-0.1c0.8,0,1.5,0.3,2,0.8c0.9,1.2,1.6,2.5,2.2,3.9l20.7,43.6l-2.8,4.7l22.2-50.8c0.2-0.7,0.6-1.2,1.2-1.7
		c0.4-0.4,1-0.6,1.6-0.6c0.4,0,0.8,0,1.4,0.1s1.3,0.1,2.2,0.1c1.6,0,3,0,4-0.1s2.1-0.1,3.3-0.1c0.1,0,0.2,0.2,0.2,0.5
		c0,0.4-0.1,0.6-0.2,0.6c-2.9,0-5.1,0.4-6.5,1.3s-2,2.5-1.9,5l1.8,42.1c0,1.4,0.2,2.7,0.6,4c0.4,0.9,1.2,1.6,2.2,1.8
		C1253.3,251,1255,251.2,1256.7,251.1L1256.7,251.1z"/>
	<path d="M1269.5,252.8c-1.6,0.1-3.2-0.5-4.4-1.6c-0.9-1-1.5-2.3-1.4-3.7c0-1.6,0.7-3.1,2-4c2-1.3,4.2-2.4,6.6-3.1l11.9-4.3l0.3,1
		l-10.6,4c-1.1,0.4-2.1,1-2.9,1.8c-0.6,0.7-0.9,1.6-0.9,2.5c-0.2,2,1.3,3.8,3.3,4c0.2,0,0.4,0,0.6,0c0.6,0,1.3-0.1,1.9-0.2
		c0.6-0.2,1.2-0.4,1.8-0.7l7.7-3.9l0.2,1.1l-7.9,4.3c-1.5,0.7-3,1.4-4.6,2C1272,252.6,1270.7,252.8,1269.5,252.8z M1287.3,252.7
		c-0.2,0.1-0.5,0.2-0.7,0.2c-0.8,0-1.6-0.7-2.3-2c-0.8-1.8-1.2-3.7-1.1-5.7V229c0.1-2.2-0.2-4.5-0.8-6.6c-0.3-1.3-1.1-2.4-2.1-3.3
		c-0.9-0.6-1.9-0.9-2.9-0.9c-1.3-0.1-2.6,0.3-3.7,1.1c-1,0.7-1.7,1.7-2.2,2.9c-0.5,1.1-0.8,2.3-1,3.4c-0.1,0.8-0.3,1.7-0.8,2.4
		c-0.6,0.8-1.6,1.2-2.6,1.1c-0.8,0.1-1.6-0.2-2.3-0.7c-0.6-0.5-0.9-1.2-0.8-2c0.1-1.3,0.7-2.5,1.6-3.4c1.2-1.3,2.6-2.4,4.1-3.3
		c1.7-1,3.4-1.8,5.3-2.5c1.7-0.6,3.4-1,5.2-1c2.2-0.1,4.3,0.8,5.7,2.4c1.5,1.6,2.3,4.1,2.3,7.6v16.1c-0.1,1.6,0.2,3.2,0.8,4.6
		c0.5,1,1.5,1.5,2.6,1.4c1.6-0.1,3.1-0.5,4.6-1.2c0.3-0.1,0.5,0,0.6,0.3c0.1,0.2,0,0.5-0.2,0.6c0,0-0.1,0-0.1,0L1287.3,252.7z"/>
	<path d="M1300.9,252.2c-0.2,0-0.3-0.2-0.3-0.6s0.1-0.5,0.3-0.5c2.4,0,3.9-0.4,4.6-1.2s1-2.5,1-5v-18c0.1-1.5-0.1-3-0.7-4.4
		c-0.5-0.9-1.5-1.5-2.5-1.4c-0.7,0-1.4,0.1-2.1,0.4c-0.9,0.3-1.9,0.6-2.8,1c-0.2,0.1-0.4-0.1-0.6-0.4s-0.1-0.5,0.1-0.6l10.6-5
		c0.2-0.1,0.4-0.1,0.6-0.1c0.4,0,1,0.6,1.6,1.9c0.8,1.7,1.1,3.6,1,5.5v21.1c0,2.5,0.3,4.2,1,5c0.7,0.8,2.2,1.2,4.6,1.2
		c0.2,0,0.3,0.2,0.3,0.5c0,0.4-0.1,0.6-0.3,0.6c-1,0-2.3,0-3.7-0.1s-2.9-0.1-4.5-0.1s-3.1,0-4.6,0.1S1302,252.2,1300.9,252.2z
		 M1325.4,252.2c-0.2,0-0.3-0.2-0.3-0.6s0.1-0.5,0.3-0.5c2.4,0,3.9-0.4,4.6-1.2s1-2.5,1-5v-14.8c0-3.6-0.7-6.3-2-8s-3.5-2.5-6.4-2.5
		c-2.4,0.1-4.7,0.8-6.7,2.1c-2.4,1.5-4.4,3.4-5.9,5.7l-0.4-1.1c2.2-3.1,4.9-5.8,8-7.9c2.4-1.6,5.1-2.5,8-2.6c3.3,0,5.9,0.9,7.8,2.8
		c1.8,1.9,2.8,4.6,2.8,8.3v17.8c0,2.5,0.3,4.2,1,5c0.7,0.8,2.2,1.2,4.6,1.2c0.2,0,0.3,0.2,0.3,0.5c0,0.4-0.1,0.6-0.3,0.6
		c-1,0-2.3,0-3.7-0.1s-2.9-0.1-4.5-0.1s-3.1,0-4.5,0.1S1326.4,252.2,1325.4,252.2z"/>
	<path d="M1354.6,252.8c-1.6,0.1-3.2-0.5-4.4-1.6c-0.9-1-1.5-2.3-1.5-3.7c0-1.6,0.7-3.1,2-4c2-1.3,4.2-2.4,6.5-3.1l11.9-4.3l0.3,1
		l-10.5,4c-1.1,0.4-2.2,1-3,1.8c-0.6,0.7-0.9,1.6-0.9,2.5c-0.2,2,1.3,3.8,3.3,4c0.2,0,0.4,0,0.6,0c0.6,0,1.3-0.1,1.9-0.2
		c0.6-0.2,1.2-0.4,1.8-0.7l7.7-3.9l0.2,1.1l-7.9,4.3c-1.5,0.7-3,1.4-4.6,2C1357,252.6,1355.8,252.8,1354.6,252.8z M1372.4,252.7
		c-0.2,0.1-0.5,0.2-0.7,0.2c-0.8,0-1.6-0.7-2.3-2c-0.8-1.8-1.2-3.7-1.1-5.7V229c0.1-2.2-0.2-4.5-0.8-6.6c-0.3-1.3-1.1-2.4-2.1-3.3
		c-0.9-0.6-1.9-0.9-3-0.9c-1.3-0.1-2.6,0.3-3.7,1.1c-1,0.8-1.7,1.7-2.2,2.9c-0.5,1.1-0.8,2.3-1,3.4c-0.1,0.8-0.3,1.7-0.8,2.4
		c-0.6,0.8-1.6,1.2-2.6,1.1c-0.8,0.1-1.6-0.2-2.3-0.7c-0.6-0.5-0.9-1.2-0.8-2c0.1-1.3,0.7-2.5,1.6-3.4c1.2-1.3,2.6-2.4,4.1-3.3
		c1.7-1,3.4-1.8,5.3-2.5c1.7-0.6,3.4-1,5.2-1c2.2-0.1,4.3,0.8,5.7,2.4c1.5,1.6,2.3,4.1,2.3,7.6v16.1c-0.1,1.6,0.2,3.2,0.8,4.6
		c0.5,1,1.6,1.5,2.6,1.4c1.6-0.1,3.1-0.5,4.5-1.2c0.3-0.1,0.5,0,0.6,0.3c0.1,0.2,0,0.5-0.2,0.6c0,0-0.1,0-0.1,0L1372.4,252.7z"/>
	<path d="M1397.7,277.8c-4.4,0-7.9-1-10.5-3.1c-2.5-1.8-3.9-4.8-3.9-7.9c0-2,0.6-3.9,1.6-5.6c1.3-2,2.8-3.9,4.7-5.4
		c2.4-2,4.9-3.8,7.6-5.4l0.9,1c-1.5,1-3,2-4.4,3.1c-1.4,1-2.6,2.3-3.6,3.8c-2.5,4.6-1.6,10.2,2,13.9c2.3,2,5.3,3,9.2,3
		c2.7,0.1,5.4-0.5,7.8-1.7c2-1,3.7-2.5,4.8-4.4c1.1-1.7,1.6-3.6,1.6-5.6c0.1-1.7-0.4-3.3-1.5-4.6c-1-1.2-2.3-2.1-3.8-2.7
		c-1.7-0.7-3.4-1.1-5.2-1.4c-1.9-0.3-3.8-0.6-5.7-0.8c-1.9-0.2-3.7-0.6-5.6-1.1c-1.7-0.4-3.2-1.1-4.6-2.1c-1.2-1-1.9-2.5-1.8-4.1
		c0-2.1,0.8-4,2.2-5.5c1.5-1.8,3.3-3.3,5.3-4.5l0.6,0.6c-1.2,0.7-2.1,1.6-2.9,2.7c-0.7,1-1,2.2-1,3.4c-0.1,1.3,0.5,2.5,1.5,3.3
		c1.2,0.9,2.5,1.5,3.9,1.7c1.6,0.4,3.3,0.7,4.9,0.9c2.1,0.3,4.3,0.6,6.4,1c2,0.3,4,0.9,5.9,1.6c1.7,0.6,3.2,1.6,4.3,3
		c1.2,1.5,1.7,3.4,1.6,5.3c0,2.2-0.6,4.3-1.8,6.2c-1.3,2.2-2.9,4.1-4.9,5.7c-2.2,1.8-4.6,3.2-7.2,4.2
		C1403.7,277.3,1400.7,277.9,1397.7,277.8z M1399.8,238.1c-2.5,0.1-4.9-0.4-7.1-1.5c-1.8-0.9-3.3-2.3-4.4-4.1
		c-1-1.6-1.5-3.5-1.5-5.4c0-2,0.6-4,1.8-5.6c1.3-1.7,3-3,5-3.8c2.3-0.9,4.8-1.4,7.2-1.4c2.6-0.1,5.1,0.4,7.4,1.6
		c1.7,0.9,3.1,2.2,4,3.9c0.8,1.5,1.2,3.1,1.2,4.8c0,2-0.6,4-1.7,5.7c-1.2,1.8-2.8,3.2-4.8,4.1
		C1404.7,237.6,1402.2,238.2,1399.8,238.1z M1401.7,236.8c1.6,0,3.2-0.7,4.3-1.8c1.2-1.2,1.9-3.4,1.9-6.4c0.1-2.9-0.9-5.7-2.9-7.8
		c-1.7-1.8-4-2.9-6.5-2.9c-1.6,0-3.2,0.6-4.4,1.7c-1.2,1.2-1.8,3.1-1.8,5.7c-0.1,2.1,0.4,4.3,1.4,6.2c0.8,1.6,2,3,3.5,4
		C1398.5,236.4,1400.1,236.8,1401.7,236.8z M1408.3,223.3l0.1-3c1.7-1.1,3.5-2.1,5.4-2.9c1.9-0.7,4-1,6-1c0.1,0,0.2,0.2,0.3,0.6
		c0.1,0.5,0.1,0.9,0.1,1.4c0,0.7-0.1,1.4-0.2,2.1c-0.2,0.8-0.3,1.1-0.6,0.9c-0.6-0.2-1.4-0.5-2.5-0.9c-1.1-0.4-2.3-0.5-3.5-0.5
		c-0.7,0-1.5,0.1-2.2,0.2c-0.7,0.1-1.4,0.3-2.1,0.4L1408.3,223.3z"/>
	<path d="M1425.4,252.2c-0.2,0-0.3-0.2-0.3-0.6s0.1-0.5,0.3-0.5c2.4,0,3.9-0.4,4.6-1.2s1-2.5,1-5v-18c0.1-1.5-0.1-3-0.7-4.4
		c-0.5-0.9-1.5-1.5-2.5-1.4c-0.7,0-1.4,0.1-2.1,0.4c-0.9,0.3-1.9,0.6-2.8,1c-0.2,0.1-0.4-0.1-0.6-0.4s-0.1-0.5,0.1-0.6l10.6-5
		c0.2-0.1,0.4-0.1,0.5-0.1c0.4,0,1,0.6,1.6,1.9c0.8,1.7,1.1,3.6,1,5.5v21.1c0,2.5,0.3,4.2,1,5c0.7,0.8,2.2,1.2,4.6,1.2
		c0.2,0,0.3,0.2,0.3,0.5s-0.1,0.6-0.3,0.6c-1,0-2.3,0-3.7-0.1s-2.9-0.1-4.5-0.1s-3.1,0-4.5,0.1S1426.4,252.2,1425.4,252.2z
		 M1448.8,252.2c-0.2,0-0.3-0.2-0.3-0.6s0.1-0.5,0.3-0.5c2.4,0,3.9-0.4,4.6-1.2c0.7-0.8,1-2.5,1.1-5v-14.5c0-7.1-2.6-10.6-7.7-10.6
		c-2.3,0.1-4.6,0.8-6.5,2.1c-2.3,1.5-4.2,3.5-5.7,5.8l-0.4-1.1c2-3.1,4.6-5.8,7.6-7.9c2.3-1.6,5-2.4,7.8-2.4
		c2.7-0.2,5.4,0.8,7.4,2.6c1.8,1.8,2.6,4.5,2.6,8.2v17.8c0,2.5,0.4,4.2,1.1,5c0.7,0.8,2.3,1.2,4.7,1.2c0.2,0,0.3,0.2,0.3,0.5
		c0,0.4-0.1,0.6-0.3,0.6c-1.1,0-2.3,0-3.8-0.1s-2.9-0.1-4.5-0.1s-3.1,0-4.6,0.1S1449.8,252.2,1448.8,252.2z M1472.2,252.2
		c-0.2,0-0.3-0.2-0.3-0.6s0.1-0.5,0.3-0.5c2.4,0,3.9-0.4,4.6-1.2s1.1-2.5,1.1-5v-14.5c0-7.1-2.6-10.6-7.8-10.6
		c-2.3,0.1-4.6,0.8-6.5,2.1c-2.3,1.5-4.2,3.5-5.7,5.8l-0.4-1.1c2.1-3.1,4.7-5.8,7.7-7.9c2.3-1.6,5-2.4,7.8-2.4
		c3.1,0,5.6,0.9,7.3,2.7c1.7,1.8,2.6,4.6,2.6,8.3v17.6c0,2.5,0.3,4.2,1,5c0.7,0.8,2.3,1.2,4.7,1.2c0.2,0,0.3,0.2,0.3,0.5
		c0,0.4-0.1,0.6-0.3,0.6c-1,0-2.3,0-3.7-0.1s-3-0.1-4.6-0.1s-3.1,0-4.5,0.1S1473.3,252.2,1472.2,252.2z"/>
	<path d="M1511,253.3c-3.3,0.1-6.6-0.8-9.5-2.5c-2.5-1.6-4.5-3.8-5.7-6.5c-4.8-9.6-0.9-21.2,8.7-26c2.8-1.4,5.8-2.1,8.9-2
		c3.3,0,5.9,0.8,7.7,2.4c1.8,1.7,2.8,4.1,2.7,6.6c0,0.5,0,1-0.2,1.5c-0.1,0.4-0.5,0.6-0.9,0.6h-5.3c0.2-3-0.3-5.3-1.6-6.9
		c-1.3-1.6-3.4-2.5-5.5-2.4c-3.1-0.2-6,1.3-7.8,3.8c-1.8,2.6-2.7,6-2.7,10.4c-0.1,3.1,0.5,6.3,1.7,9.2c1,2.5,2.7,4.7,4.9,6.3
		c2.2,1.6,4.9,2.4,7.7,2.3c1.6,0,3.3-0.3,4.8-0.7c1.7-0.5,3.2-1.3,4.6-2.3c0.1-0.1,0.3-0.1,0.5,0.2s0.3,0.5,0.1,0.7
		c-1.9,1.7-4.1,3.1-6.5,4C1515.6,252.8,1513.3,253.3,1511,253.3z M1498.3,227.6l-0.1-1.2l20.7-0.5v1.5L1498.3,227.6z"/>
	<path d="M1531.9,252.2c-0.2,0-0.3-0.2-0.3-0.6s0.1-0.5,0.3-0.5c2.4,0,3.9-0.4,4.6-1.2s1-2.5,1-5v-18c0.1-1.5-0.1-3-0.7-4.4
		c-0.5-0.9-1.5-1.5-2.5-1.4c-0.7,0-1.4,0.1-2.1,0.4c-0.9,0.3-1.9,0.6-2.8,1c-0.2,0.1-0.4-0.1-0.6-0.4s-0.1-0.5,0.1-0.6l10.6-5
		c0.2-0.1,0.4-0.1,0.5-0.1c0.4,0,1,0.6,1.6,1.9c0.8,1.7,1.1,3.6,1,5.5v21.1c0,2.5,0.3,4.2,1,5c0.7,0.8,2.2,1.2,4.6,1.2
		c0.2,0,0.3,0.2,0.3,0.5s-0.1,0.6-0.3,0.6c-1,0-2.3,0-3.7-0.1s-2.9-0.1-4.5-0.1s-3.1,0-4.5,0.1S1532.9,252.2,1531.9,252.2z
		 M1556.3,252.2c-0.2,0-0.3-0.2-0.3-0.6s0.1-0.5,0.3-0.5c2.4,0,3.9-0.4,4.6-1.2s1-2.5,1-5v-14.8c0-3.6-0.7-6.3-2-8s-3.4-2.5-6.4-2.5
		c-2.4,0.1-4.7,0.8-6.7,2.1c-2.4,1.5-4.4,3.4-5.9,5.7l-0.4-1.1c2.2-3.1,4.9-5.8,8-7.9c2.4-1.6,5.1-2.5,8-2.6c3.3,0,5.9,0.9,7.8,2.8
		s2.8,4.6,2.8,8.3v17.8c0,2.5,0.3,4.2,1,5c0.7,0.8,2.2,1.2,4.6,1.2c0.2,0,0.3,0.2,0.3,0.5c0,0.4-0.1,0.6-0.3,0.6c-1,0-2.3,0-3.7-0.1
		s-2.9-0.1-4.5-0.1s-3.1,0-4.6,0.1S1557.3,252.2,1556.3,252.2z"/>
	<path d="M1591.9,253.3c-1.4,0-2.8-0.2-4.2-0.7c-1.3-0.4-2.4-1.2-3.3-2.3c-0.9-1.3-1.4-2.9-1.3-4.4v-21.4c0-1.1-0.1-2.2-0.3-3.3
		c-0.1-0.7-0.6-1.2-1.3-1.4c-1-0.3-2.1-0.4-3.1-0.3c-0.2,0-0.4-0.2-0.4-0.6s0.1-0.6,0.4-0.6c2.2,0,4.3-0.7,6-2
		c1.5-1.2,2.4-3,2.6-4.9c0-0.2,0.2-0.3,0.7-0.3c0.4,0,0.7,0.1,0.7,0.3v31.4c0,2.5,0.6,4.3,1.9,5.6c1.5,1.3,3.4,1.9,5.3,1.8
		c1.4,0,2.9-0.2,4.2-0.8c1.1-0.4,2.1-1,3-1.8c0.2-0.1,0.5,0,0.7,0.2s0.2,0.5,0,0.7c-1.8,1.5-3.9,2.7-6,3.7
		C1595.8,252.9,1593.8,253.3,1591.9,253.3z M1600.7,221.6c-2.2-0.6-4.5-1-6.8-1.2c-2.2-0.2-4.5-0.3-7-0.3v-2c2.4,0,4.8-0.1,7-0.3
		c2.3-0.2,4.6-0.4,7.2-0.6c0.1,0,0.3,0.2,0.4,0.6c0.2,0.5,0.2,1,0.2,1.6c0,0.5-0.1,1-0.3,1.4
		C1601.2,221.4,1600.9,221.6,1600.7,221.6L1600.7,221.6z"/>
</g>
</svg>
