<svg xmlns="http://www.w3.org/2000/svg" viewBox="0 0 1603.69 365.63"><defs><style>.cls-1{fill:#921345;stroke:#921345;stroke-miterlimit:10;}.cls-2{fill:#595959;}</style></defs><title>SigmaLogo_1</title><g id="Capa_2" data-name="Capa 2"><g id="Capa_1-2" data-name="Capa 1"><path class="cls-1" d="M345.63,56V.5H129.86c-2.12.39-4.19.77-6.27,1.26a151.08,151.08,0,0,0-29,9.41A156.81,156.81,0,0,0,.76,164.06C5.3,244.62,71.89,309.35,152.54,311.77A156.95,156.95,0,0,0,299,87.39H245.38a102.06,102.06,0,0,1,20.41,68c-3.17,51.41-45.21,93.18-96.63,96A102.61,102.61,0,0,1,60.84,148.93c0-1.73,0-3.45.13-5.16,2.48-49.94,45.31-88.38,95.31-88.25Z"/><path class="cls-2" d="M444.78,145.91a27.31,27.31,0,0,0,4.65,16,46,46,0,0,0,11.91,11.69q7.26,5,15.43,10,8.39,4.77,16.22,10.21a50,50,0,0,1,12.93,12.93q5.1,7.48,5.11,18.38a36.32,36.32,0,0,1-5.45,19.62,38.48,38.48,0,0,1-15.77,14q-10.32,5.2-25.52,5.21a73.07,73.07,0,0,1-10.78-.79,60.9,60.9,0,0,1-10.66-2.61,74.88,74.88,0,0,1-10.55-4.54,3.11,3.11,0,0,1-1.47-1.7,14.82,14.82,0,0,1-.57-2.61l-2.95-30.85c-.15-.76.19-1.17,1-1.25s1.32.19,1.48.79a86.18,86.18,0,0,0,4.53,13.84,53.19,53.19,0,0,0,7.72,12.93,36.88,36.88,0,0,0,11.57,9.53,33.26,33.26,0,0,0,15.88,3.63,34.32,34.32,0,0,0,12.82-2.49,22.47,22.47,0,0,0,10.21-8.17q4-5.67,4-15.43,0-11.11-4.88-18.49a49.78,49.78,0,0,0-12.37-12.81,165.86,165.86,0,0,0-15.88-10.21q-7.94-5-15.31-10.21a45.43,45.43,0,0,1-12-12.37q-4.65-7.14-4.65-17.81,0-12,6.13-19.85a37,37,0,0,1,15.88-11.68,54.44,54.44,0,0,1,20.19-3.86,73.2,73.2,0,0,1,13.16,1.25,58.16,58.16,0,0,1,13.39,4.2,5.89,5.89,0,0,1,2.61,1.7,3.51,3.51,0,0,1,.79,2.15L505.13,152q0,.9-1.14,1a1.45,1.45,0,0,1-1.59-.8,41.55,41.55,0,0,0-2.49-10.09,39.45,39.45,0,0,0-5.9-10.55,30.21,30.21,0,0,0-9.76-8.17A29.73,29.73,0,0,0,470,120.27q-8.85,0-14.4,3.75a22.44,22.44,0,0,0-8.17,9.53A29.66,29.66,0,0,0,444.78,145.91Z"/><path class="cls-2" d="M568.42,242.78c0,4.39.46,7.72,1.36,10a7.68,7.68,0,0,0,5.56,4.53,50.4,50.4,0,0,0,12.37,1.14c.45,0,.68.45.68,1.36s-.23,1.36-.68,1.36q-5.44,0-12.14-.23t-14.86-.22q-7.71,0-14.52.22t-12.25.23c-.45,0-.68-.45-.68-1.36s.23-1.36.68-1.36a51.92,51.92,0,0,0,12.48-1.14c2.87-.75,4.76-2.27,5.67-4.53s1.36-5.6,1.36-10v-105q0-6.57-1.36-9.87t-5.67-4.53a47.67,47.67,0,0,0-12.48-1.25c-.45,0-.68-.45-.68-1.36s.23-1.36.68-1.36q5.44,0,12.25.34t14.52.34c5.44,0,10.44-.12,15-.34s8.55-.34,12-.34c.45,0,.68.45.68,1.36s-.23,1.36-.68,1.36q-8.18,0-12.37,1.36a8.32,8.32,0,0,0-5.56,4.76c-.9,2.27-1.36,5.6-1.36,10Z"/><path class="cls-2" d="M690.48,263.88q-25.41,0-43.56-9.64t-27.68-26a71.3,71.3,0,0,1,15.09-90.52,83.83,83.83,0,0,1,27.45-15.42,104.65,104.65,0,0,1,34.37-5.45,106.26,106.26,0,0,1,20.87,2A50.64,50.64,0,0,1,733.81,125c1.36.91,2.12,1.66,2.27,2.27a25,25,0,0,1,.45,2.95l2.72,25.41c0,.3-.41.56-1.24.79s-1.33,0-1.48-.57q-5-16.56-17.92-25.29t-32.22-8.74q-28.82,0-44.35,16.68T626.5,183.8q0,22.45,9.07,39.59a69.06,69.06,0,0,0,24.73,26.88Q676,260,695.92,260q10.89,0,17.47-2A15.57,15.57,0,0,0,723,250q3.06-5.89,3.07-17.47,0-10.89-1.48-16a9.39,9.39,0,0,0-6.81-6.69q-5.32-1.59-17.35-1.59c-.91,0-1.36-.6-1.36-1.82s.37-1.81,1.13-1.81q14.29.92,26.09,1t24.73-.57c.76,0,1.14.54,1.14,1.59s-.38,1.59-1.14,1.59q-5.22-.23-7.6,1.47t-3.06,7.38a162.7,162.7,0,0,0-.68,17.69,99.32,99.32,0,0,0,.45,11.12q.45,3.63.8,5.33a18.51,18.51,0,0,1,.34,3.52,2.61,2.61,0,0,1-.46,1.81,5,5,0,0,1-2,.91q-11.56,2.73-24.16,4.54A169.51,169.51,0,0,1,690.48,263.88Z"/><path class="cls-2" d="M787.57,236.43l2.27-111.85,5.45.46L793,236.43q-.22,11.81,4,16.9t15.31,5.11c.3,0,.46.45.46,1.36s-.16,1.36-.46,1.36c-3.32,0-6.77-.07-10.32-.23s-7.45-.22-11.68-.22c-3.94,0-7.64.07-11.12.22s-6.73.23-9.75.23c-.31,0-.46-.45-.46-1.36s.15-1.36.46-1.36q9.52,0,13.72-5.11T787.57,236.43Zm157.23,22c.45,0,.68.45.68,1.36s-.23,1.36-.68,1.36q-5.44,0-12.37-.23t-14.4-.22q-7.28,0-13.5.22c-4.16.16-7.91.23-11.23.23-.31,0-.46-.45-.46-1.36s.15-1.36.46-1.36q11.34,0,14.52-2.95t2.72-12.71l-4.31-109.57,7.48-10.44-59,136.8c-.15.61-.76.91-1.82.91s-1.74-.3-2-.91L793.93,138.2q-7.73-16.11-22.92-16.11c-.3,0-.45-.45-.45-1.36s.15-1.36.45-1.36q3.63,0,7.83.22c2.8.16,5.1.23,6.92.23,2.42,0,4.65-.07,6.69-.23s3.59-.22,4.65-.22a6.33,6.33,0,0,1,5,2q1.81,2,5.45,9.75l51.73,108.9-7,11.8L907.59,125a10.41,10.41,0,0,1,2.95-4.2,6,6,0,0,1,3.86-1.47c.9,0,2.11.07,3.63.22a52.91,52.91,0,0,0,5.44.23c4.08,0,7.41-.07,10-.23s5.3-.22,8.17-.22c.3,0,.45.45.45,1.36s-.15,1.36-.45,1.36q-10.89,0-16.11,3.18t-4.76,12.47l4.54,105a31.05,31.05,0,0,0,1.58,10,7.68,7.68,0,0,0,5.56,4.53A50.4,50.4,0,0,0,944.8,258.44Z"/><path class="cls-2" d="M1108.6,258.44c.6,0,.9.45.9,1.36s-.3,1.36-.9,1.36q-6.58,0-13.39-.45t-13.16-.46q-7,0-12.25.46t-11.57.45c-.61,0-.91-.45-.91-1.36s.3-1.36.91-1.36q12,0,15-3.52t-1.58-13.27l-50.37-106.4,5.67-7-44,104.14q-5.67,13.85-.68,20t19.74,6.13c.75,0,1.13.45,1.13,1.36s-.38,1.36-1.13,1.36q-6.81,0-12.48-.45t-14.29-.46q-8.18,0-13.05.46t-11.91.45c-.6,0-.91-.45-.91-1.36s.31-1.36.91-1.36a22.71,22.71,0,0,0,10.66-2.38q4.54-2.38,8.51-8.4a109.88,109.88,0,0,0,8.73-17.35l47.87-113a1.78,1.78,0,0,1,1.59-.68c.76,0,1.21.23,1.36.68l53.54,112.76a145.77,145.77,0,0,0,9.31,17.36q4.08,6.24,8,8.62A16.72,16.72,0,0,0,1108.6,258.44ZM998.34,186.07l3.4-4.77h46.73l1.59,4.77Z"/><rect class="cls-1" x="1143.06" y="1.46" width="3.79" height="363.67"/><path d="M1246.38,142c.25,0,.37.18.37.54s-.12.55-.37.55c-1.75,0-3.54-.06-5.36-.18s-3.58-.19-5.27-.19c-1.88,0-3.52.07-4.91.19s-2.94.18-4.64.18c-.24,0-.36-.18-.36-.55s.12-.54.36-.54q4.82,0,6-1.41t-.63-5.32l-20.19-42.64,2.28-2.82L1196,131.55q-2.28,5.55-.28,8c1.34,1.64,4,2.46,7.91,2.46.31,0,.46.18.46.54s-.15.55-.46.55c-1.81,0-3.48-.06-5-.18s-3.42-.19-5.72-.19-3.93.07-5.23.19-2.9.18-4.78.18c-.24,0-.36-.18-.36-.55s.12-.54.36-.54a9.07,9.07,0,0,0,4.28-1,9.58,9.58,0,0,0,3.41-3.36,44.66,44.66,0,0,0,3.5-7l19.18-45.27a.71.71,0,0,1,.64-.27q.45,0,.54.27l21.46,45.18a58.62,58.62,0,0,0,3.73,7,10.76,10.76,0,0,0,3.22,3.45A6.65,6.65,0,0,0,1246.38,142Zm-44.18-29,1.36-1.91h18.73l.64,1.91Z"/><path d="M1255.75,113.55a6.46,6.46,0,0,0,1.23,4,10.6,10.6,0,0,0,3.09,2.77q1.86,1.14,4,2.23c1.58.79,3.06,1.62,4.46,2.5a12.54,12.54,0,0,1,3.45,3.18,8.07,8.07,0,0,1,1.37,4.87,10.58,10.58,0,0,1-1.46,5.41,10.71,10.71,0,0,1-4.32,4,14.68,14.68,0,0,1-7,1.55,16.17,16.17,0,0,1-4.37-.59,15.38,15.38,0,0,1-4.36-2.14,3.71,3.71,0,0,1-.37-.45,1.17,1.17,0,0,1-.18-.64l-.18-7.09c0-.18.17-.29.5-.32s.53,0,.59.23a17.47,17.47,0,0,0,2.73,5.13,11.12,11.12,0,0,0,3.73,3.1,9.9,9.9,0,0,0,4.45,1,6.43,6.43,0,0,0,4.5-1.45,5.27,5.27,0,0,0,1.5-4.28,7.17,7.17,0,0,0-1.36-4.27,11.65,11.65,0,0,0-3.14-2.77q-1.86-1.14-3.86-2.14-2.28-1.09-4.32-2.32A10.72,10.72,0,0,1,1253,122a8.64,8.64,0,0,1-1.32-5,8.81,8.81,0,0,1,1.82-5.78,10.65,10.65,0,0,1,4.63-3.27,16.8,16.8,0,0,1,5.91-1,19.74,19.74,0,0,1,3.37.28,11.34,11.34,0,0,1,3.27,1.09,1,1,0,0,1,.82,1c0,1,0,2-.09,3s-.09,2.26-.09,3.6c0,.12-.19.18-.55.18s-.54-.06-.54-.18a5.45,5.45,0,0,0-1.46-3.73,10.22,10.22,0,0,0-3.64-2.59,10.74,10.74,0,0,0-4.36-1,5.43,5.43,0,0,0-3.59,1.18A4.61,4.61,0,0,0,1255.75,113.55Z"/><path d="M1285.93,113.55a6.46,6.46,0,0,0,1.23,4,10.86,10.86,0,0,0,3.09,2.77q1.86,1.14,4,2.23c1.57.79,3.06,1.62,4.45,2.5a12.45,12.45,0,0,1,3.46,3.18,8.07,8.07,0,0,1,1.36,4.87,10.47,10.47,0,0,1-5.77,9.45,14.7,14.7,0,0,1-7,1.55,16.1,16.1,0,0,1-4.36-.59,15.43,15.43,0,0,1-4.37-2.14,3,3,0,0,1-.36-.45,1.17,1.17,0,0,1-.18-.64l-.18-7.09c0-.18.16-.29.5-.32s.53,0,.59.23a17.23,17.23,0,0,0,2.72,5.13,11.31,11.31,0,0,0,3.73,3.1,9.94,9.94,0,0,0,4.46,1,6.43,6.43,0,0,0,4.5-1.45,5.27,5.27,0,0,0,1.5-4.28,7.18,7.18,0,0,0-1.37-4.27,11.61,11.61,0,0,0-3.13-2.77c-1.25-.76-2.53-1.47-3.87-2.14q-2.27-1.09-4.32-2.32a10.83,10.83,0,0,1-3.36-3.13,8.64,8.64,0,0,1-1.32-5,8.87,8.87,0,0,1,1.82-5.78,10.68,10.68,0,0,1,4.64-3.27,16.8,16.8,0,0,1,5.91-1,19.53,19.53,0,0,1,3.36.28,11.34,11.34,0,0,1,3.27,1.09,1,1,0,0,1,.82,1c0,1,0,2-.09,3s-.09,2.26-.09,3.6c0,.12-.18.18-.55.18s-.54-.06-.54-.18a5.45,5.45,0,0,0-1.46-3.73,10.26,10.26,0,0,0-3.63-2.59,10.79,10.79,0,0,0-4.37-1,5.45,5.45,0,0,0-3.59,1.18A4.61,4.61,0,0,0,1285.93,113.55Z"/><path d="M1327.94,144.19a16.9,16.9,0,0,1-9.46-2.5,15.88,15.88,0,0,1-5.73-6.5,19.46,19.46,0,0,1-1.91-8.46,19.25,19.25,0,0,1,19.55-19.54c3.33,0,5.9.8,7.68,2.41a8.4,8.4,0,0,1,2.69,6.59,4.74,4.74,0,0,1-.19,1.54.83.83,0,0,1-.9.55h-5.28q.36-4.45-1.59-6.87a6.69,6.69,0,0,0-5.5-2.4,8.91,8.91,0,0,0-7.77,3.81q-2.68,3.83-2.69,10.37a23.38,23.38,0,0,0,1.69,9.18,14.43,14.43,0,0,0,4.91,6.32,12.85,12.85,0,0,0,7.68,2.32,16.79,16.79,0,0,0,4.82-.73,15.57,15.57,0,0,0,4.63-2.27c.13-.12.29,0,.5.22s.26.5.14.69a21.66,21.66,0,0,1-6.55,4A18.94,18.94,0,0,1,1327.94,144.19Zm-12.73-25.73-.09-1.18,20.73-.46v1.46Z"/><path d="M1361.76,144.19a12.94,12.94,0,0,1-4.18-.68,6.9,6.9,0,0,1-3.28-2.32,7.08,7.08,0,0,1-1.27-4.46V115.37a14.57,14.57,0,0,0-.27-3.27,1.83,1.83,0,0,0-1.28-1.41,11,11,0,0,0-3.09-.32c-.24,0-.36-.2-.36-.59s.12-.59.36-.59a9.47,9.47,0,0,0,6-2,7,7,0,0,0,2.59-4.91c0-.18.23-.28.68-.28s.68.1.68.28v31.36q0,3.74,1.87,5.55a7.3,7.3,0,0,0,5.32,1.82,10.84,10.84,0,0,0,4.22-.78,11.4,11.4,0,0,0,3-1.77c.24-.12.47,0,.68.23s.2.5,0,.68a28.75,28.75,0,0,1-6,3.68A14.15,14.15,0,0,1,1361.76,144.19Zm8.82-31.73a41.9,41.9,0,0,0-6.82-1.18c-2.18-.18-4.52-.27-7-.27v-2c2.42,0,4.75-.1,7-.28s4.63-.39,7.18-.63c.12,0,.26.21.41.63a4.69,4.69,0,0,1,.23,1.55,4.11,4.11,0,0,1-.32,1.45C1371,112.28,1370.82,112.52,1370.58,112.46Z"/><path d="M1193.65,242.29l.91-44.82,2.18.18-.91,44.64q-.09,4.72,1.6,6.77t6.13,2.05c.12,0,.19.18.19.54s-.07.55-.19.55c-1.33,0-2.71,0-4.13-.09s-3-.09-4.69-.09-3.06,0-4.45.09-2.7.09-3.91.09c-.12,0-.18-.18-.18-.55s.06-.54.18-.54q3.82,0,5.5-2.05T1193.65,242.29Zm63,8.82q.27,0,.27.54c0,.37-.09.55-.27.55-1.46,0-3.11,0-5-.09s-3.77-.09-5.77-.09-3.74,0-5.41.09-3.17.09-4.5.09c-.12,0-.18-.18-.18-.55s.06-.54.18-.54q4.55,0,5.82-1.18t1.09-5.09l-1.73-43.92,3-4.18-23.64,54.82c-.06.25-.3.37-.72.37s-.7-.12-.82-.37l-22.82-48.64q-3.09-6.45-9.18-6.45c-.13,0-.19-.18-.19-.55s.06-.54.19-.54c1,0,2,0,3.13.09s2,.09,2.78.09c1,0,1.86,0,2.68-.09s1.44-.09,1.86-.09a2.54,2.54,0,0,1,2,.81,19.77,19.77,0,0,1,2.18,3.91l20.73,43.64-2.82,4.73,22.19-50.82a4.05,4.05,0,0,1,1.18-1.68,2.37,2.37,0,0,1,1.55-.59c.36,0,.84,0,1.45.09s1.33.09,2.18.09c1.64,0,3,0,4-.09s2.12-.09,3.28-.09q.18,0,.18.54c0,.37-.06.55-.18.55-2.91,0-5.07.42-6.46,1.27s-2,2.52-1.91,5l1.82,42.1a12.29,12.29,0,0,0,.64,4,3.06,3.06,0,0,0,2.22,1.81A19.94,19.94,0,0,0,1256.66,251.11Z"/><path d="M1269.48,252.84a5.61,5.61,0,0,1-4.37-1.6,5.25,5.25,0,0,1-1.45-3.68,4.8,4.8,0,0,1,2-4,24.53,24.53,0,0,1,6.55-3.05l11.91-4.27.27,1-10.55,4a7.37,7.37,0,0,0-2.95,1.82,3.71,3.71,0,0,0-.87,2.54,3.68,3.68,0,0,0,3.91,4,7.93,7.93,0,0,0,1.91-.22,8.46,8.46,0,0,0,1.82-.69l7.73-3.91.18,1.1-7.91,4.27a47,47,0,0,1-4.55,2A10.15,10.15,0,0,1,1269.48,252.84Zm17.82-.1a1.56,1.56,0,0,1-.73.19c-.79,0-1.55-.66-2.27-2a11.82,11.82,0,0,1-1.09-5.68V229a22.14,22.14,0,0,0-.78-6.64,6.05,6.05,0,0,0-2.09-3.27,5,5,0,0,0-2.95-.91,5.92,5.92,0,0,0-3.73,1.13,7,7,0,0,0-2.18,2.87,14.5,14.5,0,0,0-1,3.45,5,5,0,0,1-.78,2.37,2.82,2.82,0,0,1-2.59,1.09,3.28,3.28,0,0,1-2.27-.73,2.52,2.52,0,0,1-.82-2,5.18,5.18,0,0,1,1.64-3.41,18.58,18.58,0,0,1,4.14-3.27,27.81,27.81,0,0,1,5.27-2.46,16.25,16.25,0,0,1,5.23-1,7.51,7.51,0,0,1,5.72,2.41q2.28,2.4,2.28,7.59v16.09a9.85,9.85,0,0,0,.82,4.64,2.78,2.78,0,0,0,2.63,1.45,13.11,13.11,0,0,0,4.55-1.18c.3-.12.51,0,.63.32a.47.47,0,0,1-.27.68Z"/><path d="M1300.93,252.2c-.18,0-.27-.18-.27-.55s.09-.54.27-.54q3.55,0,4.59-1.23t1-5v-18a10.77,10.77,0,0,0-.68-4.41,2.52,2.52,0,0,0-2.5-1.4,7.76,7.76,0,0,0-2.14.36,29.39,29.39,0,0,0-2.77,1c-.24.06-.44-.06-.59-.36s-.11-.52.13-.64l10.55-5a1.71,1.71,0,0,1,.55-.09c.42,0,1,.63,1.63,1.91a12.18,12.18,0,0,1,1,5.54v21.1q0,3.81,1,5c.69.82,2.23,1.23,4.59,1.23q.27,0,.27.54c0,.37-.09.55-.27.55-1,0-2.26,0-3.68-.09s-2.93-.09-4.5-.09-3.09,0-4.55.09S1302,252.2,1300.93,252.2Zm24.46,0c-.18,0-.27-.18-.27-.55s.09-.54.27-.54q3.54,0,4.59-1.23t1-5V230.11q0-5.46-2-8t-6.37-2.5a13,13,0,0,0-6.73,2.09,19.17,19.17,0,0,0-5.91,5.73l-.36-1.09a32,32,0,0,1,8-7.91,14.66,14.66,0,0,1,8-2.55q5,0,7.78,2.78c1.84,1.85,2.77,4.62,2.77,8.32v17.82q0,3.81,1,5c.7.82,2.23,1.23,4.6,1.23q.27,0,.27.54c0,.37-.09.55-.27.55-1,0-2.26,0-3.69-.09s-2.92-.09-4.5-.09-3.09,0-4.54.09S1326.42,252.2,1325.39,252.2Z"/><path d="M1354.57,252.84a5.58,5.58,0,0,1-4.36-1.6,5.26,5.26,0,0,1-1.46-3.68,4.79,4.79,0,0,1,2-4,24.59,24.59,0,0,1,6.54-3.05l11.91-4.27.27,1-10.54,4a7.42,7.42,0,0,0-3,1.82,3.76,3.76,0,0,0-.86,2.54,3.68,3.68,0,0,0,3.91,4,7.93,7.93,0,0,0,1.91-.22,8.67,8.67,0,0,0,1.82-.69l7.72-3.91.19,1.1-7.91,4.27a48.12,48.12,0,0,1-4.55,2A10.16,10.16,0,0,1,1354.57,252.84Zm17.82-.1a1.49,1.49,0,0,1-.72.19c-.79,0-1.55-.66-2.28-2a11.94,11.94,0,0,1-1.09-5.68V229a22.52,22.52,0,0,0-.77-6.64,6.11,6.11,0,0,0-2.09-3.27,5.08,5.08,0,0,0-3-.91,5.89,5.89,0,0,0-3.72,1.13,7.14,7.14,0,0,0-2.19,2.87,15.49,15.49,0,0,0-1,3.45,5,5,0,0,1-.77,2.37,2.83,2.83,0,0,1-2.59,1.09,3.26,3.26,0,0,1-2.27-.73,2.52,2.52,0,0,1-.82-2,5.13,5.13,0,0,1,1.64-3.41,18.51,18.51,0,0,1,4.13-3.27,28.19,28.19,0,0,1,5.28-2.46,16.19,16.19,0,0,1,5.22-1,7.51,7.51,0,0,1,5.73,2.41q2.27,2.4,2.27,7.59v16.09a10,10,0,0,0,.82,4.64,2.81,2.81,0,0,0,2.64,1.45,13.07,13.07,0,0,0,4.54-1.18c.31-.12.52,0,.64.32a.47.47,0,0,1-.27.68Z"/><path d="M1397.67,277.84q-6.56,0-10.46-3.14a9.7,9.7,0,0,1-3.91-7.86,11.06,11.06,0,0,1,1.59-5.64,22.09,22.09,0,0,1,4.69-5.41,54.22,54.22,0,0,1,7.63-5.41l.91,1c-1.51,1-3,2-4.45,3.05a13.73,13.73,0,0,0-3.59,3.82,11.75,11.75,0,0,0,2,13.86q3.4,3,9.22,3a16.56,16.56,0,0,0,7.82-1.68,12,12,0,0,0,4.82-4.41,10.84,10.84,0,0,0,1.64-5.64,6.94,6.94,0,0,0-1.46-4.63,9.54,9.54,0,0,0-3.81-2.69,24.82,24.82,0,0,0-5.23-1.41c-1.91-.3-3.81-.57-5.68-.81a51.25,51.25,0,0,1-5.55-1.05,11.72,11.72,0,0,1-4.55-2.14,4.92,4.92,0,0,1-1.81-4.09,8.49,8.49,0,0,1,2.22-5.54,20.74,20.74,0,0,1,5.32-4.46l.64.64a8.55,8.55,0,0,0-2.87,2.73,6.35,6.35,0,0,0-1,3.45,3.91,3.91,0,0,0,1.5,3.27,9.6,9.6,0,0,0,3.91,1.73c1.6.36,3.26.67,4.95.91,2.12.3,4.25.64,6.37,1a30.4,30.4,0,0,1,5.86,1.59,10.49,10.49,0,0,1,4.32,3,8,8,0,0,1,1.64,5.32,12.25,12.25,0,0,1-1.78,6.18,21.08,21.08,0,0,1-4.86,5.68,25.17,25.17,0,0,1-7.23,4.19A24.24,24.24,0,0,1,1397.67,277.84Zm2.09-39.73a15.28,15.28,0,0,1-7.14-1.5,11,11,0,0,1-4.41-4.05,10.14,10.14,0,0,1-1.54-5.36,9,9,0,0,1,1.82-5.59,12,12,0,0,1,5-3.78,18.38,18.38,0,0,1,7.23-1.36,15.12,15.12,0,0,1,7.45,1.59,9.88,9.88,0,0,1,4,3.91,10.09,10.09,0,0,1,1.23,4.77,10.27,10.27,0,0,1-1.68,5.69,12,12,0,0,1-4.78,4.13A16.06,16.06,0,0,1,1399.76,238.11Zm1.91-1.28A6,6,0,0,0,1406,235q1.86-1.86,1.86-6.41a10.66,10.66,0,0,0-2.86-7.82,8.9,8.9,0,0,0-6.5-2.91,6.13,6.13,0,0,0-4.37,1.73q-1.81,1.73-1.82,5.73a12.94,12.94,0,0,0,1.37,6.18,10.51,10.51,0,0,0,3.54,4A8.12,8.12,0,0,0,1401.67,236.83Zm6.64-13.54.09-3a28.39,28.39,0,0,1,5.41-2.87,16.37,16.37,0,0,1,6-1c.12,0,.23.21.32.63a6.62,6.62,0,0,1,.14,1.37,11.08,11.08,0,0,1-.23,2.14c-.15.75-.35,1.07-.59.95-.61-.24-1.43-.53-2.46-.86a11.29,11.29,0,0,0-3.54-.5,13.17,13.17,0,0,0-2.23.18c-.7.12-1.38.27-2.05.45Z"/><path d="M1425.4,252.2c-.18,0-.27-.18-.27-.55s.09-.54.27-.54q3.54,0,4.59-1.23t1-5v-18a10.57,10.57,0,0,0-.69-4.41,2.51,2.51,0,0,0-2.5-1.4,7.7,7.7,0,0,0-2.13.36,29.49,29.49,0,0,0-2.78,1c-.24.06-.44-.06-.59-.36s-.1-.52.14-.64l10.55-5a1.7,1.7,0,0,1,.54-.09c.42,0,1,.63,1.64,1.91a12.31,12.31,0,0,1,1,5.54v21.1q0,3.81,1,5t4.59,1.23c.19,0,.28.18.28.54s-.09.55-.28.55c-1,0-2.26,0-3.68-.09s-2.92-.09-4.5-.09-3.09,0-4.54.09S1426.43,252.2,1425.4,252.2Zm23.36,0c-.18,0-.27-.18-.27-.55s.09-.54.27-.54q3.56,0,4.59-1.23t1.05-5V230.38q0-10.63-7.73-10.64a11.73,11.73,0,0,0-6.5,2.14,20.7,20.7,0,0,0-5.68,5.77l-.36-1.09a29,29,0,0,1,7.63-7.91,14.27,14.27,0,0,1,7.82-2.45,10,10,0,0,1,7.37,2.63q2.63,2.64,2.63,8.19v17.82q0,3.81,1.05,5c.69.82,2.26,1.23,4.68,1.23q.27,0,.27.54c0,.37-.09.55-.27.55-1.09,0-2.35,0-3.77-.09s-2.93-.09-4.5-.09-3.09,0-4.55.09S1449.79,252.2,1448.76,252.2Zm23.46,0c-.18,0-.27-.18-.27-.55s.09-.54.27-.54c2.36,0,3.91-.41,4.64-1.23s1.09-2.5,1.09-5V230.38q0-10.63-7.82-10.64a11.73,11.73,0,0,0-6.5,2.14,20.56,20.56,0,0,0-5.68,5.77l-.37-1.09a30.05,30.05,0,0,1,7.73-7.91,14.27,14.27,0,0,1,7.82-2.45q4.72,0,7.32,2.68t2.59,8.32v17.64q0,3.81,1,5c.7.82,2.26,1.23,4.69,1.23q.27,0,.27.54c0,.37-.09.55-.27.55-1,0-2.28,0-3.73-.09s-3-.09-4.55-.09-3.07,0-4.5.09S1473.31,252.2,1472.22,252.2Z"/><path d="M1511,253.29a16.9,16.9,0,0,1-9.46-2.5,15.78,15.78,0,0,1-5.72-6.5,19.38,19.38,0,0,1,17.64-28q5,0,7.68,2.41a8.42,8.42,0,0,1,2.68,6.59,5.09,5.09,0,0,1-.18,1.54.84.84,0,0,1-.91.55h-5.27q.36-4.45-1.6-6.86a6.66,6.66,0,0,0-5.5-2.41,8.92,8.92,0,0,0-7.77,3.81q-2.69,3.83-2.68,10.37a23.52,23.52,0,0,0,1.68,9.18,14.5,14.5,0,0,0,4.91,6.32,12.78,12.78,0,0,0,7.68,2.32,16.74,16.74,0,0,0,4.82-.73,15.62,15.62,0,0,0,4.64-2.27c.12-.12.28-.05.5.23s.25.5.13.68a22,22,0,0,1-6.54,4A19,19,0,0,1,1511,253.29Zm-12.73-25.73-.09-1.18,20.73-.46v1.46Z"/><path d="M1531.86,252.2c-.18,0-.27-.18-.27-.55s.09-.54.27-.54q3.54,0,4.59-1.23t1-5v-18a10.57,10.57,0,0,0-.69-4.41,2.51,2.51,0,0,0-2.5-1.4,7.75,7.75,0,0,0-2.13.36,29.49,29.49,0,0,0-2.78,1c-.24.06-.44-.06-.59-.36s-.1-.52.14-.64l10.55-5a1.7,1.7,0,0,1,.54-.09c.42,0,1,.63,1.64,1.91a12.31,12.31,0,0,1,1,5.54v21.1q0,3.81,1,5t4.59,1.23c.19,0,.28.18.28.54s-.09.55-.28.55c-1,0-2.25,0-3.68-.09s-2.92-.09-4.5-.09-3.09,0-4.54.09S1532.89,252.2,1531.86,252.2Zm24.46,0c-.19,0-.28-.18-.28-.55s.09-.54.28-.54q3.54,0,4.59-1.23t1-5V230.11c0-3.64-.66-6.29-2-8s-3.45-2.5-6.36-2.5a13,13,0,0,0-6.73,2.09,19.17,19.17,0,0,0-5.91,5.73l-.36-1.09a32,32,0,0,1,8-7.91,14.71,14.71,0,0,1,8-2.55q5,0,7.77,2.78t2.77,8.32v17.82q0,3.81,1,5t4.59,1.23q.27,0,.27.54c0,.37-.09.55-.27.55-1,0-2.26,0-3.68-.09s-2.93-.09-4.5-.09-3.09,0-4.55.09S1557.35,252.2,1556.32,252.2Z"/><path d="M1591.86,253.29a13,13,0,0,1-4.18-.68,6.92,6.92,0,0,1-3.27-2.32,7,7,0,0,1-1.27-4.45V224.47a14.51,14.51,0,0,0-.28-3.27,1.82,1.82,0,0,0-1.27-1.41,11.1,11.1,0,0,0-3.09-.32c-.24,0-.36-.2-.36-.59s.12-.59.36-.59a9.44,9.44,0,0,0,6-2,6.93,6.93,0,0,0,2.59-4.91q0-.27.69-.27c.45,0,.68.09.68.27v31.36q0,3.73,1.86,5.55a7.32,7.32,0,0,0,5.32,1.82,11,11,0,0,0,4.23-.77,11.68,11.68,0,0,0,3-1.78c.24-.12.46,0,.68.23s.19.5,0,.68a29,29,0,0,1-6,3.68A14.2,14.2,0,0,1,1591.86,253.29Zm8.82-31.73a41.53,41.53,0,0,0-6.82-1.18q-3.27-.27-7-.27v-2q3.65,0,7-.28c2.25-.18,4.64-.39,7.19-.63.12,0,.25.21.41.63a4.71,4.71,0,0,1,.22,1.55,3.9,3.9,0,0,1-.32,1.45C1601.15,221.38,1600.92,221.62,1600.68,221.56Z"/></g></g></svg>