<svg id="Capa_1" data-name="Capa 1" xmlns="http://www.w3.org/2000/svg" viewBox="0 0 1600.02 365.7"><defs><style>.cls-1{fill:#921345;stroke:#921345;stroke-miterlimit:10;}.cls-2{fill:#595959;}</style></defs><title>SigmaLogo</title><path class="cls-1" d="M345.6,56V.5H129.9c-2.1.4-4.2.8-6.3,1.3a153.49,153.49,0,0,0-29,9.4A156.66,156.66,0,0,0,.8,164.1c4.5,80.6,71.1,145.3,151.8,147.7,86.6,2.6,159-65.5,161.6-152.1A155.82,155.82,0,0,0,299,87.4H245.4a101.9,101.9,0,0,1,20.4,68c-3.2,51.4-45.2,93.2-96.6,96A102.65,102.65,0,0,1,61,154.7c-.1-1.9-.2-3.8-.2-5.7,0-1.7,0-3.4.1-5.2,2.5-49.9,45.3-88.4,95.3-88.3Z" transform="translate(-0.02 0)"/><path class="cls-2" d="M444.8,145.9a27.44,27.44,0,0,0,4.6,16,45.64,45.64,0,0,0,11.9,11.7c4.8,3.3,10,6.7,15.4,10q8.4,4.8,16.2,10.2a49.45,49.45,0,0,1,12.9,12.9c3.4,5,5.1,11.1,5.1,18.4a35.9,35.9,0,0,1-5.5,19.6,38.87,38.87,0,0,1-15.8,14c-6.9,3.5-15.4,5.2-25.5,5.2a78.49,78.49,0,0,1-10.8-.8,57.56,57.56,0,0,1-10.7-2.6,75.4,75.4,0,0,1-10.5-4.5,3.53,3.53,0,0,1-1.5-1.7,12.21,12.21,0,0,1-.6-2.6l-3-30.9c-.1-.8.2-1.2,1-1.3a1.23,1.23,0,0,1,1.5.8,82.44,82.44,0,0,0,4.5,13.8,49.58,49.58,0,0,0,7.7,12.9,36.74,36.74,0,0,0,11.6,9.5,32.55,32.55,0,0,0,15.9,3.6,33.17,33.17,0,0,0,12.8-2.5,22.77,22.77,0,0,0,10.2-8.2c2.7-3.8,4-8.9,4-15.4,0-7.4-1.6-13.6-4.9-18.5a48.69,48.69,0,0,0-12.4-12.8A165.11,165.11,0,0,0,463,192.5q-8-5-15.3-10.2a44.29,44.29,0,0,1-12-12.4c-3.1-4.8-4.6-10.7-4.6-17.8,0-8,2-14.6,6.1-19.9a36.37,36.37,0,0,1,15.9-11.7,53.78,53.78,0,0,1,20.2-3.9,65.64,65.64,0,0,1,13.2,1.3,63.16,63.16,0,0,1,13.4,4.2,5.63,5.63,0,0,1,2.6,1.7,3.49,3.49,0,0,1,.8,2.2l1.5,25.8c0,.6-.4.9-1.1,1a1.48,1.48,0,0,1-1.6-.8,42.61,42.61,0,0,0-8.4-20.7,29.86,29.86,0,0,0-9.8-8.2,29.33,29.33,0,0,0-14.3-3.1c-5.9,0-10.7,1.3-14.4,3.8a22.25,22.25,0,0,0-8.2,9.5A41.72,41.72,0,0,0,444.8,145.9Z" transform="translate(-0.02 0)"/><path class="cls-2" d="M568.4,242.8a28.37,28.37,0,0,0,1.4,10,7.78,7.78,0,0,0,5.6,4.5,47,47,0,0,0,12.4,1.1c.5,0,.7.5.7,1.4s-.2,1.4-.7,1.4c-3.6,0-7.7-.1-12.1-.2s-9.4-.2-14.9-.2c-5.1,0-10,.1-14.5.2s-8.6.2-12.3.2c-.5,0-.7-.5-.7-1.4s.2-1.4.7-1.4a58.15,58.15,0,0,0,12.5-1.1q4.35-1.2,5.7-4.5c.9-2.2,1.4-5.6,1.4-10v-105c0-4.4-.5-7.7-1.4-9.9s-2.8-3.7-5.7-4.5a47.88,47.88,0,0,0-12.5-1.3c-.5,0-.7-.4-.7-1.4s.2-1.4.7-1.4q5.4,0,12.3.3c4.5.2,9.4.3,14.5.3q8.1,0,15-.3c4.6-.2,8.5-.3,12-.3.5,0,.7.4.7,1.4s-.2,1.4-.7,1.4c-5.5,0-9.6.5-12.4,1.4a8.39,8.39,0,0,0-5.6,4.8,28.37,28.37,0,0,0-1.4,10Z" transform="translate(-0.02 0)"/><path class="cls-2" d="M690.5,263.9c-16.9,0-31.5-3.2-43.6-9.6a68.3,68.3,0,0,1-27.7-26,71.28,71.28,0,0,1,15.1-90.5,82.9,82.9,0,0,1,27.5-15.4,103.17,103.17,0,0,1,34.4-5.4,105,105,0,0,1,20.9,2,50.65,50.65,0,0,1,16.8,6.1,5.34,5.34,0,0,1,2.3,2.3c.2,1,.4,2,.5,3l2.7,25.4c0,.3-.4.6-1.2.8s-1.3,0-1.5-.6c-3.3-11-9.3-19.5-17.9-25.3s-19.4-8.7-32.2-8.7q-28.8,0-44.3,16.7T626.8,184c0,15,3,28.2,9.1,39.6a69.49,69.49,0,0,0,24.7,26.9c10.5,6.5,22.3,9.7,35.6,9.7,7.3,0,13.1-.7,17.5-2a15.34,15.34,0,0,0,9.6-8c2-3.9,3.1-9.8,3.1-17.5,0-7.3-.5-12.6-1.5-16a9.42,9.42,0,0,0-6.8-6.7c-3.5-1.1-9.3-1.6-17.3-1.6-.9,0-1.4-.6-1.4-1.8s.4-1.8,1.1-1.8c9.5.6,18.2.9,26.1,1s16.1-.1,24.7-.6c.8,0,1.1.5,1.1,1.6s-.4,1.6-1.1,1.6c-3.5-.2-6,.3-7.6,1.5s-2.6,3.6-3.1,7.4a174.57,174.57,0,0,0-.7,17.7,82.48,82.48,0,0,0,.5,11.1c.3,2.4.6,4.2.8,5.3a20.68,20.68,0,0,1,.3,3.5,2.38,2.38,0,0,1-.5,1.8,5.15,5.15,0,0,1-2,.9c-7.7,1.8-15.8,3.3-24.2,4.5A200.11,200.11,0,0,1,690.5,263.9Z" transform="translate(-0.02 0)"/><path class="cls-2" d="M787.6,236.4l2.3-111.8,5.5.5L793,236.4c-.1,7.9,1.2,13.5,4,16.9s7.9,5.1,15.3,5.1c.3,0,.5.5.5,1.4s-.2,1.4-.5,1.4c-3.3,0-6.8-.1-10.3-.2s-7.5-.2-11.7-.2c-3.9,0-7.6.1-11.1.2s-6.7.2-9.8.2c-.3,0-.5-.5-.5-1.4s.2-1.4.5-1.4c6.3,0,10.9-1.7,13.7-5.1S787.4,244.3,787.6,236.4Zm157.2,22c.5,0,.7.5.7,1.4s-.2,1.4-.7,1.4c-3.6,0-7.8-.1-12.4-.2s-9.4-.2-14.4-.2-9.4.1-13.5.2-7.9.2-11.2.2c-.3,0-.5-.5-.5-1.4s.2-1.4.5-1.4c7.6,0,12.4-1,14.5-2.9s3-6.2,2.7-12.7l-4.3-109.6,7.5-10.4-59,136.8q-.3.9-1.8.9a2,2,0,0,1-2-.9l-57-121.4c-5.2-10.7-12.8-16.1-22.9-16.1-.3,0-.5-.4-.5-1.4s.2-1.4.5-1.4c2.4,0,5,.1,7.8.2s5.1.2,6.9.2c2.4,0,4.7-.1,6.7-.2s3.6-.2,4.7-.2a6.29,6.29,0,0,1,5,2c1.2,1.3,3,4.6,5.5,9.8L859.3,240l-7,11.8L907.6,125a9.61,9.61,0,0,1,3-4.2,6.1,6.1,0,0,1,3.9-1.5c.9,0,2.1.1,3.6.2a48.74,48.74,0,0,0,5.4.2c4.1,0,7.4-.1,10-.2s5.3-.2,8.2-.2c.3,0,.5.4.5,1.4s-.2,1.4-.5,1.4c-7.3,0-12.6,1.1-16.1,3.2s-5.1,6.3-4.8,12.5l4.5,105a30.79,30.79,0,0,0,1.6,10,7.78,7.78,0,0,0,5.6,4.5,55.77,55.77,0,0,0,12.3,1.1Z" transform="translate(-0.02 0)"/><path class="cls-2" d="M1108.6,258.4c.6,0,.9.5.9,1.4s-.3,1.4-.9,1.4c-4.4,0-8.8-.1-13.4-.5s-8.9-.5-13.2-.5c-4.7,0-8.8.2-12.3.5s-7.4.5-11.6.5c-.6,0-.9-.5-.9-1.4s.3-1.4.9-1.4c8,0,13-1.2,15-3.5s1.5-6.8-1.6-13.3l-50.4-106.4,5.7-7-44,104.1c-3.8,9.2-4,15.9-.7,20s9.9,6.1,19.7,6.1c.8,0,1.1.5,1.1,1.4s-.4,1.4-1.1,1.4a121.86,121.86,0,0,1-12.5-.5c-3.8-.3-8.5-.5-14.3-.5-5.5,0-9.8.2-13,.5s-7.2.5-11.9.5c-.6,0-.9-.5-.9-1.4s.3-1.4.9-1.4a22.08,22.08,0,0,0,10.7-2.4,24.14,24.14,0,0,0,8.5-8.4,108.71,108.71,0,0,0,8.7-17.4l47.9-113a2,2,0,0,1,1.6-.7c.8,0,1.2.2,1.4.7L1082.4,230a145.29,145.29,0,0,0,9.3,17.4c2.7,4.2,5.4,7,8,8.6A15.93,15.93,0,0,0,1108.6,258.4ZM998.3,186.1l3.4-4.8h46.7l1.6,4.8Z" transform="translate(-0.02 0)"/><rect class="cls-1" x="1143.08" y="1.5" width="3.8" height="363.7"/><path d="M1241.44,152.55c.27,0,.36.19.36.46s-.09.56-.36.56c-1.67,0-3.23-.1-5-.19s-3.32-.18-4.88-.18c-1.76,0-3.23.09-4.52.18s-2.68.19-4.25.19c-.18,0-.36-.19-.36-.56s.09-.46.36-.46c3,0,4.8-.46,5.54-1.29s.55-2.49-.56-4.89l-18.63-39.29,2.13-2.58L1195,143c-1.38,3.41-1.47,5.9-.28,7.38s3.69,2.3,7.29,2.3a.44.44,0,0,1,.46.47.51.51,0,0,1-.46.55c-1.66,0-3.23-.09-4.61-.19s-3.14-.18-5.26-.18-3.59.09-4.79.18-2.68.19-4.43.19c-.19,0-.37-.19-.37-.55s.09-.47.37-.47a8.34,8.34,0,0,0,4-.92,8.54,8.54,0,0,0,3.13-3.13,42.34,42.34,0,0,0,3.23-6.46l17.71-41.78a.81.81,0,0,1,.55-.28c.28,0,.46.1.46.28L1231.75,142a54.24,54.24,0,0,0,3.41,6.45,8.83,8.83,0,0,0,2.95,3.14A6,6,0,0,0,1241.44,152.55Zm-40.77-26.74,1.29-1.76h17.25l.55,1.76Z" transform="translate(-0.02 0)"/><path d="M1250.1,126.36a6.65,6.65,0,0,0,1.11,3.69,9.56,9.56,0,0,0,2.86,2.58,35.72,35.72,0,0,0,3.69,2,44,44,0,0,1,4.15,2.31,10.49,10.49,0,0,1,3.14,2.95,7.65,7.65,0,0,1,1.29,4.52,9.38,9.38,0,0,1-1.39,5,9.6,9.6,0,0,1-4,3.69,14.44,14.44,0,0,1-6.46,1.47,15.38,15.38,0,0,1-4.06-.55,16.41,16.41,0,0,1-4-1.94l-.37-.37a1.21,1.21,0,0,1-.19-.55l-.18-6.55c0-.18.18-.28.46-.28s.46,0,.55.19a14.62,14.62,0,0,0,2.49,4.7,10,10,0,0,0,3.41,2.86,9,9,0,0,0,4.06.92,6.15,6.15,0,0,0,4.15-1.29,4.81,4.81,0,0,0,1.39-4,7,7,0,0,0-1.29-4,13,13,0,0,0-2.86-2.58,22.11,22.11,0,0,0-3.6-1.94,39,39,0,0,1-4-2.12,9.34,9.34,0,0,1-3.13-2.86,9.45,9.45,0,0,1,.46-10,10,10,0,0,1,4.24-3,15.6,15.6,0,0,1,5.44-.93,18.51,18.51,0,0,1,3.14.28,13,13,0,0,1,3,1,.9.9,0,0,1,.74.92c0,.92,0,1.84-.09,2.76s-.09,2.13-.09,3.32c0,.1-.19.19-.56.19s-.46-.09-.46-.19a4.73,4.73,0,0,0-1.38-3.41,10.68,10.68,0,0,0-3.32-2.4,10.49,10.49,0,0,0-4.06-.92,5.31,5.31,0,0,0-3.32,1.11A4,4,0,0,0,1250.1,126.36Z" transform="translate(-0.02 0)"/><path d="M1277.87,126.36a6.64,6.64,0,0,0,1.1,3.69,9.68,9.68,0,0,0,2.86,2.58,35.72,35.72,0,0,0,3.69,2,33.57,33.57,0,0,1,4.06,2.31,12.15,12.15,0,0,1,3.23,2.95,7.65,7.65,0,0,1,1.29,4.52,9.52,9.52,0,0,1-5.35,8.67,14.44,14.44,0,0,1-6.46,1.47,15.38,15.38,0,0,1-4.06-.55,16.41,16.41,0,0,1-4-1.94l-.37-.37a1.34,1.34,0,0,1-.19-.55l-.18-6.55c0-.18.18-.28.46-.28s.46,0,.55.19a14.62,14.62,0,0,0,2.49,4.7,11.34,11.34,0,0,0,3.42,2.86,9,9,0,0,0,4.15.92,6.17,6.17,0,0,0,4.15-1.29,4.84,4.84,0,0,0,1.38-4,7,7,0,0,0-1.29-4,12.82,12.82,0,0,0-2.86-2.58,26.59,26.59,0,0,0-3.6-1.94,38.87,38.87,0,0,1-4-2.12,11.6,11.6,0,0,1-3.14-2.86,8.05,8.05,0,0,1-1.2-4.61,8.63,8.63,0,0,1,1.66-5.35,10,10,0,0,1,4.24-3,15.66,15.66,0,0,1,5.45-.93,18.39,18.39,0,0,1,3.13.28,13,13,0,0,1,3,1,.89.89,0,0,1,.73.92c0,.92,0,1.84-.09,2.76s-.09,2.13-.09,3.32c0,.1-.19.19-.55.19s-.47-.09-.47-.19a4.73,4.73,0,0,0-1.38-3.41,9.73,9.73,0,0,0-3.32-2.4,10.45,10.45,0,0,0-4.06-.92A5.31,5.31,0,0,0,1279,123,4.49,4.49,0,0,0,1277.87,126.36Z" transform="translate(-0.02 0)"/><path d="M1316.6,154.58a16.52,16.52,0,0,1-8.76-2.3,13.83,13.83,0,0,1-5.26-6,17.42,17.42,0,0,1-1.75-7.84,17.67,17.67,0,0,1,17.52-18h.56c3,0,5.44.73,7.1,2.21a8,8,0,0,1,2.49,6.09,3.65,3.65,0,0,1-.18,1.38.82.82,0,0,1-.83.55h-4.89c.18-2.76-.28-4.88-1.48-6.36a6.29,6.29,0,0,0-5.07-2.21,8.23,8.23,0,0,0-7.19,3.5c-1.67,2.4-2.5,5.54-2.5,9.59a20.88,20.88,0,0,0,1.57,8.49,13.42,13.42,0,0,0,4.52,5.81,11.39,11.39,0,0,0,7.1,2.12A17.63,17.63,0,0,0,1324,151a13.83,13.83,0,0,0,4.24-2.12c.1-.09.28,0,.46.19a.45.45,0,0,1,.1.64,18.58,18.58,0,0,1-6.09,3.69A16.6,16.6,0,0,1,1316.6,154.58Zm-11.71-23.7-.09-1.11,19.09-.46v1.38Z" transform="translate(-0.02 0)"/><path d="M1347.87,154.58a11.48,11.48,0,0,1-3.88-.64,6.35,6.35,0,0,1-3-2.13,6.63,6.63,0,0,1-1.2-4.15V127.93a17.46,17.46,0,0,0-.27-3.05,1.61,1.61,0,0,0-1.2-1.29,7.55,7.55,0,0,0-2.86-.27c-.19,0-.37-.19-.37-.56s.09-.55.37-.55a9.07,9.07,0,0,0,5.53-1.85,6.67,6.67,0,0,0,2.4-4.52c0-.18.18-.27.64-.27s.65.09.65.27v29a6,6,0,0,0,6.64,6.82,9.2,9.2,0,0,0,3.87-.74,8.45,8.45,0,0,0,2.77-1.66.62.62,0,0,1,.65.19.45.45,0,0,1,0,.64,25.89,25.89,0,0,1-5.54,3.41A12.65,12.65,0,0,1,1347.87,154.58Zm8.11-29.24a35.46,35.46,0,0,0-6.27-1.1c-2-.19-4.15-.28-6.45-.28v-1.84c2.21,0,4.42-.1,6.45-.28s4.25-.37,6.64-.55c.1,0,.28.18.37.55a3.72,3.72,0,0,1,.19,1.48,3,3,0,0,1-.28,1.29C1356.35,125.16,1356.17,125.34,1356,125.34Z" transform="translate(-0.02 0)"/><path d="M1192.83,245.06l.83-41.32,2,.18-.83,41.14c-.09,2.86.46,5,1.47,6.27s3,1.94,5.63,1.94c.09,0,.18.18.18.46s-.09.55-.18.55c-1.2,0-2.49,0-3.78-.09s-2.77-.09-4.34-.09-2.85,0-4,.09-2.49.09-3.6.09c-.09,0-.19-.18-.19-.55s.1-.46.19-.46c2.3,0,4.06-.65,5.07-1.94S1192.74,247.92,1192.83,245.06Zm58.1,8.12c.19,0,.28.18.28.46s-.09.55-.28.55c-1.38,0-2.85,0-4.61-.09s-3.5-.09-5.35-.09-3.41,0-5,.09-3,.09-4.15.09c-.09,0-.18-.18-.18-.55s.09-.46.18-.46c2.77,0,4.61-.37,5.35-1.11s1.11-2.31,1-4.71l-1.57-40.48,2.77-3.88-21.77,50.54c-.09.28-.28.37-.65.37s-.64-.09-.73-.37l-21-44.82c-1.94-4-4.71-5.9-8.49-5.9-.09,0-.18-.19-.18-.56s.09-.46.18-.46a28.2,28.2,0,0,1,2.86.1c1,.09,1.85.09,2.58.09a21.24,21.24,0,0,0,2.49-.09,12.17,12.17,0,0,1,1.76-.1,2.58,2.58,0,0,1,1.84.74,17.2,17.2,0,0,1,2,3.6l19.09,40.21-2.58,4.34,20.47-46.86a3.21,3.21,0,0,1,1.11-1.57,2.13,2.13,0,0,1,1.48-.55,7.2,7.2,0,0,1,1.29.09,12,12,0,0,0,2,.1c1.47,0,2.76,0,3.69-.1s1.93-.09,3-.09c.09,0,.18.19.18.46s-.09.56-.18.56c-2.67,0-4.7.36-6,1.19s-1.84,2.31-1.75,4.62l1.66,38.82a12.22,12.22,0,0,0,.56,3.69,2.83,2.83,0,0,0,2,1.66,14.48,14.48,0,0,0,4.51.47Z" transform="translate(-0.02 0)"/><path d="M1262.74,254.74a5.53,5.53,0,0,1-4.06-1.47,4.65,4.65,0,0,1-1.29-3.41,4.42,4.42,0,0,1,1.85-3.69,22.78,22.78,0,0,1,6.08-2.86l11-4,.27.92L1266.8,244a7.26,7.26,0,0,0-2.68,1.66,3.58,3.58,0,0,0-.83,2.31,3.41,3.41,0,0,0,3,3.69h.55a10.41,10.41,0,0,0,1.75-.19,12.06,12.06,0,0,0,1.66-.64l7.1-3.6.19,1-7.29,4c-1.38.65-2.76,1.29-4.24,1.85A7,7,0,0,1,1262.74,254.74Zm16.42-.09a1.78,1.78,0,0,1-.65.19c-.74,0-1.47-.65-2.12-1.85a11.27,11.27,0,0,1-1-5.26V232.79a19.44,19.44,0,0,0-.74-6.08,6,6,0,0,0-1.94-3.05,4.82,4.82,0,0,0-2.67-.83,5.17,5.17,0,0,0-3.42,1,6,6,0,0,0-2,2.67,13.82,13.82,0,0,0-.92,3.14,4.77,4.77,0,0,1-.74,2.21,2.62,2.62,0,0,1-2.39,1,3,3,0,0,1-2.12-.64,2,2,0,0,1-.74-1.85,5,5,0,0,1,1.47-3.13,17.23,17.23,0,0,1,3.78-3,29.6,29.6,0,0,1,4.89-2.31,14.4,14.4,0,0,1,4.8-.92,6.56,6.56,0,0,1,5.26,2.21c1.38,1.48,2.12,3.78,2.12,7v14.85a9.19,9.19,0,0,0,.74,4.24,2.34,2.34,0,0,0,2.39,1.29,11.68,11.68,0,0,0,4.25-1.1.38.38,0,0,1,.55.27.45.45,0,0,1-.19.56h-.09Z" transform="translate(-0.02 0)"/><path d="M1291.7,254.19c-.18,0-.28-.18-.28-.55s.1-.46.28-.46c2.21,0,3.6-.37,4.24-1.11s.93-2.31.93-4.61v-16.6a8.82,8.82,0,0,0-.65-4.06,2.44,2.44,0,0,0-2.31-1.29,4.73,4.73,0,0,0-1.93.37,26.74,26.74,0,0,0-2.59.92c-.18.09-.36-.09-.55-.37s-.09-.46.09-.55l9.78-4.62a1.18,1.18,0,0,1,.55-.09c.37,0,.93.55,1.48,1.75a10.6,10.6,0,0,1,.92,5.08v19.46c0,2.3.28,3.87.92,4.61s2,1.11,4.25,1.11c.18,0,.27.18.27.46s-.09.55-.27.55c-.93,0-2.13,0-3.42-.09s-2.67-.09-4.15-.09-2.86,0-4.24.09S1292.71,254.19,1291.7,254.19Zm22.6,0c-.19,0-.28-.18-.28-.55s.09-.46.28-.46c2.21,0,3.59-.37,4.24-1.11s.92-2.31.92-4.61V233.81c0-3.32-.64-5.81-1.84-7.38s-3.23-2.31-5.91-2.31a12.3,12.3,0,0,0-6.18,1.94,17.53,17.53,0,0,0-5.44,5.26l-.37-1a29,29,0,0,1,7.38-7.28,14,14,0,0,1,7.38-2.4,9.74,9.74,0,0,1,7.2,2.58c1.66,1.75,2.58,4.24,2.58,7.66v16.41c0,2.31.27,3.88.92,4.61s2,1.11,4.24,1.11c.19,0,.28.19.28.46s-.09.56-.28.56c-.92,0-2.12,0-3.41-.1s-2.67-.09-4.15-.09-2.86,0-4.15.09S1315.22,254.19,1314.3,254.19Z" transform="translate(-0.02 0)"/><path d="M1341.23,254.74a5.53,5.53,0,0,1-4.06-1.47,5.14,5.14,0,0,1-1.38-3.41,4.41,4.41,0,0,1,1.84-3.69,23.64,23.64,0,0,1,6-2.86l11-4,.28.92-9.69,3.69a7.58,7.58,0,0,0-2.76,1.66,3.53,3.53,0,0,0-.83,2.31,3.4,3.4,0,0,0,3,3.69h.55a10.52,10.52,0,0,0,1.76-.19,13.14,13.14,0,0,0,1.66-.64l7.1-3.6.18,1-7.28,4c-1.39.65-2.77,1.29-4.25,1.85A6.08,6.08,0,0,1,1341.23,254.74Zm16.41-.09a1.74,1.74,0,0,1-.64.19c-.74,0-1.48-.65-2.12-1.85a11.4,11.4,0,0,1-1-5.26V232.79a19.14,19.14,0,0,0-.73-6.08,6,6,0,0,0-1.94-3.05,4.9,4.9,0,0,0-2.77-.83,5.13,5.13,0,0,0-3.41,1,6.4,6.4,0,0,0-2,2.67,13.33,13.33,0,0,0-.92,3.14,4.88,4.88,0,0,1-.74,2.21,2.63,2.63,0,0,1-2.4,1,3,3,0,0,1-2.12-.64,2,2,0,0,1-.74-1.85,5.06,5.06,0,0,1,1.48-3.13,17.23,17.23,0,0,1,3.78-3,29.6,29.6,0,0,1,4.89-2.31A14.34,14.34,0,0,1,1351,221a6.55,6.55,0,0,1,5.26,2.21c1.38,1.48,2.12,3.78,2.12,7v14.85a9.46,9.46,0,0,0,.74,4.24,2.43,2.43,0,0,0,2.4,1.29,10.74,10.74,0,0,0,4.15-1.1.38.38,0,0,1,.55.27.46.46,0,0,1-.18.56H1366Z" transform="translate(-0.02 0)"/><path d="M1381,277.8c-4.06,0-7.29-.92-9.69-2.86a9,9,0,0,1-3.59-7.28,10.2,10.2,0,0,1,1.47-5.17,20.42,20.42,0,0,1,4.34-5,54.18,54.18,0,0,1,7-5l.83.92c-1.39.92-2.77,1.85-4.06,2.86a13.26,13.26,0,0,0-3.32,3.51,10.89,10.89,0,0,0,1.84,12.82,12.41,12.41,0,0,0,8.49,2.76,14.77,14.77,0,0,0,7.19-1.57,10.4,10.4,0,0,0,4.43-4.05,9.39,9.39,0,0,0,1.48-5.17,5.89,5.89,0,0,0-1.39-4.24,8.64,8.64,0,0,0-3.5-2.49,21.17,21.17,0,0,0-4.8-1.29c-1.75-.28-3.5-.56-5.26-.74a33.59,33.59,0,0,1-5.16-1,11.87,11.87,0,0,1-4.24-1.94,4.52,4.52,0,0,1-1.66-3.78,7.38,7.38,0,0,1,2-5.08,19.21,19.21,0,0,1,4.88-4.15l.56.56a8.51,8.51,0,0,0-2.68,2.49,5.46,5.46,0,0,0-.92,3.13,3.57,3.57,0,0,0,1.38,3.05,7.93,7.93,0,0,0,3.6,1.57,42.13,42.13,0,0,0,4.52.83c1.94.27,4,.55,5.9.92a27.69,27.69,0,0,1,5.44,1.47,8.67,8.67,0,0,1,4,2.77,7.16,7.16,0,0,1,1.48,4.89,10.66,10.66,0,0,1-1.66,5.72,19,19,0,0,1-4.52,5.25,24.18,24.18,0,0,1-6.64,3.88A19.12,19.12,0,0,1,1381,277.8Zm1.94-36.61a13.28,13.28,0,0,1-6.55-1.39,10,10,0,0,1-4.06-3.78,9.46,9.46,0,0,1-1.38-5,8.59,8.59,0,0,1,1.66-5.16,10.81,10.81,0,0,1,4.61-3.51,18.45,18.45,0,0,1,6.64-1.29,13.41,13.41,0,0,1,6.82,1.48,8.64,8.64,0,0,1,3.69,3.59,9.27,9.27,0,0,1,1.11,4.43,9.72,9.72,0,0,1-1.57,5.26,10.38,10.38,0,0,1-4.43,3.78A12.77,12.77,0,0,1,1382.92,241.19Zm1.75-1.2a5.75,5.75,0,0,0,4-1.66c1.11-1.11,1.76-3.14,1.76-5.91a9.86,9.86,0,0,0-2.68-7.19,8.25,8.25,0,0,0-6-2.67,6.06,6.06,0,0,0-4.06,1.56q-1.67,1.66-1.66,5.26a11.35,11.35,0,0,0,1.29,5.72,9.58,9.58,0,0,0,3.23,3.69A7.27,7.27,0,0,0,1384.67,240Zm6.09-12.45.09-2.77a32.19,32.19,0,0,1,5-2.68,16.34,16.34,0,0,1,5.53-.92c.09,0,.19.19.28.55a6.37,6.37,0,0,1,.09,1.3,14,14,0,0,1-.18,1.93c-.19.74-.28,1-.56.83-.55-.18-1.29-.46-2.3-.83a9.43,9.43,0,0,0-3.23-.46,13.94,13.94,0,0,0-2,.19c-.65.09-1.29.27-1.94.37Z" transform="translate(-0.02 0)"/><path d="M1435.64,254.19c-.18,0-.27-.18-.27-.55s.09-.46.27-.46c2.22,0,3.6-.37,4.25-1.11s.92-2.31.92-4.61v-16.6a8.69,8.69,0,0,0-.65-4.06,2.43,2.43,0,0,0-2.3-1.29,4.78,4.78,0,0,0-1.94.37,26.57,26.57,0,0,0-2.58.92c-.19.09-.37-.09-.55-.37s-.1-.46.09-.55l9.77-4.62a1.05,1.05,0,0,1,.47-.09c.36,0,.92.55,1.47,1.75a10.49,10.49,0,0,1,.92,5.08v19.46c0,2.3.28,3.87.93,4.61s2,1.11,4.24,1.11c.18,0,.27.18.27.46s-.09.55-.27.55c-.92,0-2.12,0-3.41-.09s-2.68-.09-4.15-.09-2.86,0-4.16.09S1436.57,254.19,1435.64,254.19Zm21.59,0c-.19,0-.28-.18-.28-.55s.09-.46.28-.46c2.21,0,3.59-.37,4.24-1.11s.92-2.31,1-4.61V234.08c0-6.54-2.39-9.77-7.1-9.77a11.59,11.59,0,0,0-6,1.93,18.25,18.25,0,0,0-5.26,5.35l-.37-1a26.45,26.45,0,0,1,7-7.29,12.53,12.53,0,0,1,7.19-2.21,9.29,9.29,0,0,1,6.83,2.4c1.66,1.66,2.4,4.15,2.4,7.56v16.42c0,2.3.37,3.87,1,4.61s2.12,1.11,4.34,1.11c.18,0,.27.18.27.46s-.09.55-.27.55c-1,0-2.12,0-3.51-.09s-2.67-.09-4.15-.09-2.86,0-4.24.09S1458.15,254.19,1457.23,254.19Zm21.58,0c-.19,0-.28-.18-.28-.55s.09-.46.28-.46c2.21,0,3.6-.37,4.24-1.11s1-2.31,1-4.61V234.08c0-6.54-2.4-9.77-7.2-9.77a11.59,11.59,0,0,0-6,1.93,18.12,18.12,0,0,0-5.26,5.35l-.37-1a28.31,28.31,0,0,1,7.1-7.29,12.54,12.54,0,0,1,7.2-2.21,8.9,8.9,0,0,1,6.73,2.49c1.57,1.66,2.4,4.24,2.4,7.65v16.24c0,2.3.27,3.87.92,4.61s2.12,1.11,4.33,1.11c.19,0,.28.18.28.46s-.09.55-.28.55c-.92,0-2.12,0-3.41-.09s-2.77-.09-4.24-.09-2.86,0-4.15.09S1479.82,254.19,1478.81,254.19Z" transform="translate(-0.02 0)"/><path d="M1514.59,255.2a16.34,16.34,0,0,1-8.76-2.3,13.89,13.89,0,0,1-5.26-6,17.86,17.86,0,0,1,8-24,17,17,0,0,1,8.21-1.84c3,0,5.44.74,7.1,2.21a8,8,0,0,1,2.49,6.09,3.47,3.47,0,0,1-.19,1.38.81.81,0,0,1-.83.56h-4.88c.18-2.77-.28-4.89-1.48-6.37a6.24,6.24,0,0,0-5.07-2.21,8.27,8.27,0,0,0-7.2,3.5c-1.66,2.4-2.49,5.54-2.49,9.6a20.64,20.64,0,0,0,1.57,8.48,13.24,13.24,0,0,0,4.52,5.81,11.26,11.26,0,0,0,7.1,2.12,17.62,17.62,0,0,0,4.43-.64,14.06,14.06,0,0,0,4.24-2.12c.09-.1.28-.1.46.18s.28.46.1.65a19.45,19.45,0,0,1-6,3.69A16.81,16.81,0,0,1,1514.59,255.2Zm-11.71-23.7-.09-1.11,19.09-.46v1.39Z" transform="translate(-0.02 0)"/><path d="M1419.07,254.47a16.44,16.44,0,0,1-8.76-2.31,13.81,13.81,0,0,1-5.26-6,17.85,17.85,0,0,1,8-24,17,17,0,0,1,8.21-1.85c3,0,5.44.74,7.1,2.22a7.93,7.93,0,0,1,2.49,6.08,3.52,3.52,0,0,1-.19,1.39.8.8,0,0,1-.83.55H1425c.18-2.77-.28-4.89-1.48-6.36a6.22,6.22,0,0,0-5.07-2.22,8.26,8.26,0,0,0-7.2,3.51c-1.66,2.4-2.49,5.53-2.49,9.59a20.64,20.64,0,0,0,1.57,8.48,13.24,13.24,0,0,0,4.52,5.81,11.33,11.33,0,0,0,7.1,2.13,17.63,17.63,0,0,0,4.43-.65,14.06,14.06,0,0,0,4.24-2.12c.09-.09.28-.09.46.18s.28.46.1.65a19.26,19.26,0,0,1-6,3.69A16.6,16.6,0,0,1,1419.07,254.47Zm-11.71-23.71-.09-1.1,19.09-.46v1.38Z" transform="translate(-0.02 0)"/><path d="M1533.87,254.19c-.18,0-.28-.18-.28-.55s.1-.46.28-.46c2.21,0,3.6-.37,4.24-1.11s.92-2.31.92-4.61v-16.6a8.69,8.69,0,0,0-.64-4.06,2.44,2.44,0,0,0-2.31-1.29,4.73,4.73,0,0,0-1.93.37,26.74,26.74,0,0,0-2.59.92c-.18.09-.37-.09-.55-.37s-.09-.46.09-.55l9.78-4.62a1,1,0,0,1,.46-.09c.37,0,.92.55,1.48,1.75a10.72,10.72,0,0,1,.92,5.08v19.46c0,2.3.27,3.87.92,4.61s2,1.11,4.24,1.11c.19,0,.28.18.28.46s-.09.55-.28.55c-.92,0-2.12,0-3.41-.09s-2.67-.09-4.15-.09-2.86,0-4.15.09S1534.79,254.19,1533.87,254.19Zm22.5,0c-.18,0-.27-.18-.27-.55s.09-.46.27-.46c2.22,0,3.6-.37,4.25-1.11s.92-2.31.92-4.61V233.81c0-3.32-.65-5.81-1.85-7.38s-3.13-2.31-5.9-2.31a12.3,12.3,0,0,0-6.18,1.94,17.42,17.42,0,0,0-5.44,5.26l-.37-1a29,29,0,0,1,7.38-7.28,14,14,0,0,1,7.38-2.4,9.7,9.7,0,0,1,7.19,2.58c1.75,1.75,2.58,4.24,2.58,7.66v16.41c0,2.31.28,3.88.93,4.61s2,1.11,4.24,1.11c.18,0,.28.19.28.46s-.1.56-.28.56c-.92,0-2.12,0-3.41-.1s-2.68-.09-4.15-.09-2.86,0-4.25.09S1557.3,254.19,1556.37,254.19Z" transform="translate(-0.02 0)"/><path d="M1589.21,255.2a11.48,11.48,0,0,1-3.88-.64,6.4,6.4,0,0,1-3-2.12,6.58,6.58,0,0,1-1.2-4.06V228.64a16.46,16.46,0,0,0-.28-3,1.56,1.56,0,0,0-1.19-1.29,7.56,7.56,0,0,0-2.86-.28c-.19,0-.37-.18-.37-.55s.09-.56.37-.56a9.06,9.06,0,0,0,5.53-1.84,6.71,6.71,0,0,0,2.4-4.52c0-.18.18-.28.64-.28s.65.1.65.28v29a6,6,0,0,0,6.64,6.83,9.39,9.39,0,0,0,3.87-.74,8.45,8.45,0,0,0,2.77-1.66.63.63,0,0,1,.65.18.46.46,0,0,1,0,.65,26.3,26.3,0,0,1-5.54,3.41A13.83,13.83,0,0,1,1589.21,255.2Zm8.11-29.23a35.63,35.63,0,0,0-6.27-1.11c-2-.18-4.15-.28-6.45-.28v-1.84c2.21,0,4.42-.09,6.45-.28s4.24-.37,6.64-.55c.09,0,.28.18.37.55a3.75,3.75,0,0,1,.19,1.48,3,3,0,0,1-.28,1.29c-.19.55-.46.74-.65.74Z" transform="translate(-0.02 0)"/></svg>