<svg xmlns="http://www.w3.org/2000/svg" viewBox="0 0 271.86 245.34"><defs><style>.cls-1{fill:#921345;stroke:#921345;stroke-miterlimit:10;}</style></defs><title>SigmaSimbol</title><g id="Capa_2" data-name="Capa 2"><g id="Capa_1-2" data-name="Capa 1"><path class="cls-1" d="M271.36,44.06V.5H102c-1.66.3-3.29.61-4.92,1A119.62,119.62,0,0,0,74.37,8.87,123.09,123.09,0,0,0,.7,128.86c3.57,63.22,55.83,114,119.12,115.92A123.18,123.18,0,0,0,234.76,68.69H192.68a80.17,80.17,0,0,1,16,53.34c-2.49,40.35-35.48,73.13-75.84,75.33a80.53,80.53,0,0,1-85-80.37c0-1.36,0-2.71.1-4.06,1.95-39.18,35.57-69.35,74.8-69.25Z"/></g></g></svg>