<svg xmlns="http://www.w3.org/2000/svg" viewBox="0 0 1190 1190"><defs><style>.cls-1{fill:#fff;}.cls-2{fill:#921345;stroke:#921345;stroke-miterlimit:10;}</style></defs><title>sigmaCircle</title><g id="Capa_2" data-name="Capa 2"><g id="Capa_1-2" data-name="Capa 1"><circle class="cls-1" cx="595" cy="595" r="595"/><path class="cls-2" d="M1011.72,384.94V255.5H508.59c-5,.9-9.8,1.8-14.64,2.93a353.55,353.55,0,0,0-67.53,21.94c-135.26,59-227.85,197.5-218.89,356.52C218.12,824.75,373.4,975.68,561.47,981.33c207.19,6.23,377.09-159.86,377.09-365.64A365.56,365.56,0,0,0,903,458.1h-125a238,238,0,0,1,47.6,158.51c-7.39,119.87-105.42,217.28-225.33,223.83C462.11,848,347.63,738.08,347.63,601.62q0-6.06.3-12C353.71,473.14,453.59,383.5,570.17,383.8Z"/></g></g></svg>