<svg id="Capa_1" data-name="Capa 1" xmlns="http://www.w3.org/2000/svg" viewBox="0 0 1569.65 365.7"><defs><style>.cls-1{fill:#921345;stroke:#921345;stroke-miterlimit:10;}.cls-2{fill:#595959;}</style></defs><title>SigmaLogo</title><path class="cls-1" d="M345.6,56V.5H129.9c-2.1.4-4.2.8-6.3,1.3a153.49,153.49,0,0,0-29,9.4A156.66,156.66,0,0,0,.8,164.1c4.5,80.6,71.1,145.3,151.8,147.7,86.6,2.6,159-65.5,161.6-152.1A155.82,155.82,0,0,0,299,87.4H245.4a101.9,101.9,0,0,1,20.4,68c-3.2,51.4-45.2,93.2-96.6,96A102.65,102.65,0,0,1,61,154.7c-.1-1.9-.2-3.8-.2-5.7,0-1.7,0-3.4.1-5.2,2.5-49.9,45.3-88.4,95.3-88.3Z" transform="translate(-0.02 0)"/><path class="cls-2" d="M444.8,145.9a27.44,27.44,0,0,0,4.6,16,45.64,45.64,0,0,0,11.9,11.7c4.8,3.3,10,6.7,15.4,10q8.4,4.8,16.2,10.2a49.45,49.45,0,0,1,12.9,12.9c3.4,5,5.1,11.1,5.1,18.4a35.9,35.9,0,0,1-5.5,19.6,38.87,38.87,0,0,1-15.8,14c-6.9,3.5-15.4,5.2-25.5,5.2a78.49,78.49,0,0,1-10.8-.8,57.56,57.56,0,0,1-10.7-2.6,75.4,75.4,0,0,1-10.5-4.5,3.53,3.53,0,0,1-1.5-1.7,12.21,12.21,0,0,1-.6-2.6l-3-30.9c-.1-.8.2-1.2,1-1.3a1.23,1.23,0,0,1,1.5.8,82.44,82.44,0,0,0,4.5,13.8,49.58,49.58,0,0,0,7.7,12.9,36.74,36.74,0,0,0,11.6,9.5,32.55,32.55,0,0,0,15.9,3.6,33.17,33.17,0,0,0,12.8-2.5,22.77,22.77,0,0,0,10.2-8.2c2.7-3.8,4-8.9,4-15.4,0-7.4-1.6-13.6-4.9-18.5a48.69,48.69,0,0,0-12.4-12.8A165.11,165.11,0,0,0,463,192.5q-8-5-15.3-10.2a44.29,44.29,0,0,1-12-12.4c-3.1-4.8-4.6-10.7-4.6-17.8,0-8,2-14.6,6.1-19.9a36.37,36.37,0,0,1,15.9-11.7,53.78,53.78,0,0,1,20.2-3.9,65.64,65.64,0,0,1,13.2,1.3,63.16,63.16,0,0,1,13.4,4.2,5.63,5.63,0,0,1,2.6,1.7,3.49,3.49,0,0,1,.8,2.2l1.5,25.8c0,.6-.4.9-1.1,1a1.48,1.48,0,0,1-1.6-.8,42.61,42.61,0,0,0-8.4-20.7,29.86,29.86,0,0,0-9.8-8.2,29.33,29.33,0,0,0-14.3-3.1c-5.9,0-10.7,1.3-14.4,3.8a22.25,22.25,0,0,0-8.2,9.5A41.72,41.72,0,0,0,444.8,145.9Z" transform="translate(-0.02 0)"/><path class="cls-2" d="M568.4,242.8a28.37,28.37,0,0,0,1.4,10,7.78,7.78,0,0,0,5.6,4.5,47,47,0,0,0,12.4,1.1c.5,0,.7.5.7,1.4s-.2,1.4-.7,1.4c-3.6,0-7.7-.1-12.1-.2s-9.4-.2-14.9-.2c-5.1,0-10,.1-14.5.2s-8.6.2-12.3.2c-.5,0-.7-.5-.7-1.4s.2-1.4.7-1.4a58.15,58.15,0,0,0,12.5-1.1q4.35-1.2,5.7-4.5c.9-2.2,1.4-5.6,1.4-10v-105c0-4.4-.5-7.7-1.4-9.9s-2.8-3.7-5.7-4.5a47.88,47.88,0,0,0-12.5-1.3c-.5,0-.7-.4-.7-1.4s.2-1.4.7-1.4q5.4,0,12.3.3c4.5.2,9.4.3,14.5.3q8.1,0,15-.3c4.6-.2,8.5-.3,12-.3.5,0,.7.4.7,1.4s-.2,1.4-.7,1.4c-5.5,0-9.6.5-12.4,1.4a8.39,8.39,0,0,0-5.6,4.8,28.37,28.37,0,0,0-1.4,10Z" transform="translate(-0.02 0)"/><path class="cls-2" d="M690.5,263.9c-16.9,0-31.5-3.2-43.6-9.6a68.3,68.3,0,0,1-27.7-26,71.28,71.28,0,0,1,15.1-90.5,82.9,82.9,0,0,1,27.5-15.4,103.17,103.17,0,0,1,34.4-5.4,105,105,0,0,1,20.9,2,50.65,50.65,0,0,1,16.8,6.1,5.34,5.34,0,0,1,2.3,2.3c.2,1,.4,2,.5,3l2.7,25.4c0,.3-.4.6-1.2.8s-1.3,0-1.5-.6c-3.3-11-9.3-19.5-17.9-25.3s-19.4-8.7-32.2-8.7q-28.8,0-44.3,16.7T626.8,184c0,15,3,28.2,9.1,39.6a69.49,69.49,0,0,0,24.7,26.9c10.5,6.5,22.3,9.7,35.6,9.7,7.3,0,13.1-.7,17.5-2a15.34,15.34,0,0,0,9.6-8c2-3.9,3.1-9.8,3.1-17.5,0-7.3-.5-12.6-1.5-16a9.42,9.42,0,0,0-6.8-6.7c-3.5-1.1-9.3-1.6-17.3-1.6-.9,0-1.4-.6-1.4-1.8s.4-1.8,1.1-1.8c9.5.6,18.2.9,26.1,1s16.1-.1,24.7-.6c.8,0,1.1.5,1.1,1.6s-.4,1.6-1.1,1.6c-3.5-.2-6,.3-7.6,1.5s-2.6,3.6-3.1,7.4a174.57,174.57,0,0,0-.7,17.7,82.48,82.48,0,0,0,.5,11.1c.3,2.4.6,4.2.8,5.3a20.68,20.68,0,0,1,.3,3.5,2.38,2.38,0,0,1-.5,1.8,5.15,5.15,0,0,1-2,.9c-7.7,1.8-15.8,3.3-24.2,4.5A200.11,200.11,0,0,1,690.5,263.9Z" transform="translate(-0.02 0)"/><path class="cls-2" d="M787.6,236.4l2.3-111.8,5.5.5L793,236.4c-.1,7.9,1.2,13.5,4,16.9s7.9,5.1,15.3,5.1c.3,0,.5.5.5,1.4s-.2,1.4-.5,1.4c-3.3,0-6.8-.1-10.3-.2s-7.5-.2-11.7-.2c-3.9,0-7.6.1-11.1.2s-6.7.2-9.8.2c-.3,0-.5-.5-.5-1.4s.2-1.4.5-1.4c6.3,0,10.9-1.7,13.7-5.1S787.4,244.3,787.6,236.4Zm157.2,22c.5,0,.7.5.7,1.4s-.2,1.4-.7,1.4c-3.6,0-7.8-.1-12.4-.2s-9.4-.2-14.4-.2-9.4.1-13.5.2-7.9.2-11.2.2c-.3,0-.5-.5-.5-1.4s.2-1.4.5-1.4c7.6,0,12.4-1,14.5-2.9s3-6.2,2.7-12.7l-4.3-109.6,7.5-10.4-59,136.8q-.3.9-1.8.9a2,2,0,0,1-2-.9l-57-121.4c-5.2-10.7-12.8-16.1-22.9-16.1-.3,0-.5-.4-.5-1.4s.2-1.4.5-1.4c2.4,0,5,.1,7.8.2s5.1.2,6.9.2c2.4,0,4.7-.1,6.7-.2s3.6-.2,4.7-.2a6.29,6.29,0,0,1,5,2c1.2,1.3,3,4.6,5.5,9.8L859.3,240l-7,11.8L907.6,125a9.61,9.61,0,0,1,3-4.2,6.1,6.1,0,0,1,3.9-1.5c.9,0,2.1.1,3.6.2a48.74,48.74,0,0,0,5.4.2c4.1,0,7.4-.1,10-.2s5.3-.2,8.2-.2c.3,0,.5.4.5,1.4s-.2,1.4-.5,1.4c-7.3,0-12.6,1.1-16.1,3.2s-5.1,6.3-4.8,12.5l4.5,105a30.79,30.79,0,0,0,1.6,10,7.78,7.78,0,0,0,5.6,4.5,55.77,55.77,0,0,0,12.3,1.1Z" transform="translate(-0.02 0)"/><path class="cls-2" d="M1108.6,258.4c.6,0,.9.5.9,1.4s-.3,1.4-.9,1.4c-4.4,0-8.8-.1-13.4-.5s-8.9-.5-13.2-.5c-4.7,0-8.8.2-12.3.5s-7.4.5-11.6.5c-.6,0-.9-.5-.9-1.4s.3-1.4.9-1.4c8,0,13-1.2,15-3.5s1.5-6.8-1.6-13.3l-50.4-106.4,5.7-7-44,104.1c-3.8,9.2-4,15.9-.7,20s9.9,6.1,19.7,6.1c.8,0,1.1.5,1.1,1.4s-.4,1.4-1.1,1.4a121.86,121.86,0,0,1-12.5-.5c-3.8-.3-8.5-.5-14.3-.5-5.5,0-9.8.2-13,.5s-7.2.5-11.9.5c-.6,0-.9-.5-.9-1.4s.3-1.4.9-1.4a22.08,22.08,0,0,0,10.7-2.4,24.14,24.14,0,0,0,8.5-8.4,108.71,108.71,0,0,0,8.7-17.4l47.9-113a2,2,0,0,1,1.6-.7c.8,0,1.2.2,1.4.7L1082.4,230a145.29,145.29,0,0,0,9.3,17.4c2.7,4.2,5.4,7,8,8.6A15.93,15.93,0,0,0,1108.6,258.4ZM998.3,186.1l3.4-4.8h46.7l1.6,4.8Z" transform="translate(-0.02 0)"/><rect class="cls-1" x="1143.08" y="1.5" width="3.8" height="363.7"/><path d="M1237.15,161.66c.26,0,.34.17.34.43s-.08.51-.34.51c-1.54,0-3-.08-4.62-.17s-3.08-.17-4.53-.17c-1.63,0-3,.09-4.19.17s-2.48.17-3.94.17c-.17,0-.34-.17-.34-.51s.09-.43.34-.43c2.74,0,4.45-.43,5.13-1.2s.52-2.3-.51-4.53l-17.27-36.43,2-2.39-15.13,35.66c-1.29,3.16-1.37,5.47-.26,6.84s3.42,2.14,6.76,2.14a.4.4,0,0,1,.42.43.48.48,0,0,1-.42.51c-1.54,0-3-.09-4.28-.17s-2.91-.17-4.88-.17-3.33.08-4.44.17-2.48.17-4.11.17c-.17,0-.34-.17-.34-.51s.09-.43.34-.43a7.73,7.73,0,0,0,3.68-.86,7.89,7.89,0,0,0,2.91-2.91,39.27,39.27,0,0,0,3-6l16.42-38.74a.74.74,0,0,1,.51-.26c.26,0,.43.09.43.26l18.39,38.65a50.17,50.17,0,0,0,3.16,6,8.25,8.25,0,0,0,2.74,2.91A5.57,5.57,0,0,0,1237.15,161.66Zm-37.8-24.8,1.2-1.62h16l.51,1.62Z" transform="translate(-0.02 0)"/><path d="M1245.19,137.37a6.17,6.17,0,0,0,1,3.42,8.87,8.87,0,0,0,2.66,2.4,32.39,32.39,0,0,0,3.42,1.88,42.22,42.22,0,0,1,3.84,2.14A9.61,9.61,0,0,1,1259,150a7,7,0,0,1,1.2,4.19,8.75,8.75,0,0,1-1.28,4.61,8.89,8.89,0,0,1-3.68,3.43,13.33,13.33,0,0,1-6,1.36,14.31,14.31,0,0,1-3.76-.51,15.14,15.14,0,0,1-3.76-1.8l-.35-.34a1.28,1.28,0,0,1-.17-.51l-.17-6.07c0-.17.17-.26.43-.26s.43,0,.51.17a13.51,13.51,0,0,0,2.31,4.36,9.22,9.22,0,0,0,3.17,2.65,8.31,8.31,0,0,0,3.76.86,5.69,5.69,0,0,0,3.85-1.2,4.47,4.47,0,0,0,1.28-3.67,6.49,6.49,0,0,0-1.2-3.68,11.91,11.91,0,0,0-2.65-2.4,20.73,20.73,0,0,0-3.33-1.79,37.36,37.36,0,0,1-3.68-2,8.61,8.61,0,0,1-2.91-2.65,8.78,8.78,0,0,1,.43-9.24,9.34,9.34,0,0,1,3.93-2.82,14.57,14.57,0,0,1,5-.86,16.83,16.83,0,0,1,2.91.26,12,12,0,0,1,2.82.94.83.83,0,0,1,.68.86c0,.85,0,1.71-.08,2.56s-.09,2-.09,3.08c0,.09-.17.17-.51.17s-.43-.08-.43-.17a4.39,4.39,0,0,0-1.28-3.16,10,10,0,0,0-3.08-2.23,9.71,9.71,0,0,0-3.76-.85,4.91,4.91,0,0,0-3.08,1A3.61,3.61,0,0,0,1245.19,137.37Z" transform="translate(-0.02 0)"/><path d="M1270.93,137.37a6.1,6.1,0,0,0,1,3.42,8.71,8.71,0,0,0,2.65,2.4,32.39,32.39,0,0,0,3.42,1.88,31.49,31.49,0,0,1,3.76,2.14,11.05,11.05,0,0,1,3,2.74,7,7,0,0,1,1.2,4.19,8.83,8.83,0,0,1-5,8,13.32,13.32,0,0,1-6,1.36,14.32,14.32,0,0,1-3.77-.51,15.31,15.31,0,0,1-3.76-1.8l-.34-.34a1.14,1.14,0,0,1-.17-.51l-.17-6.07c0-.17.17-.26.42-.26s.43,0,.52.17a13.3,13.3,0,0,0,2.3,4.36,10.35,10.35,0,0,0,3.17,2.65,8.45,8.45,0,0,0,3.85.86,5.71,5.71,0,0,0,3.85-1.2,4.47,4.47,0,0,0,1.28-3.67,6.49,6.49,0,0,0-1.2-3.68,11.91,11.91,0,0,0-2.65-2.4,25.43,25.43,0,0,0-3.33-1.79,37.36,37.36,0,0,1-3.68-2,10.68,10.68,0,0,1-2.91-2.65,7.43,7.43,0,0,1-1.11-4.28,7.92,7.92,0,0,1,1.54-5,9.28,9.28,0,0,1,3.93-2.82,14.57,14.57,0,0,1,5-.86,16.92,16.92,0,0,1,2.91.26,12,12,0,0,1,2.82.94.84.84,0,0,1,.68.86c0,.85,0,1.71-.08,2.56s-.09,2-.09,3.08c0,.09-.17.17-.51.17s-.43-.08-.43-.17a4.39,4.39,0,0,0-1.28-3.16,9,9,0,0,0-3.08-2.23,9.71,9.71,0,0,0-3.76-.85,4.89,4.89,0,0,0-3.08,1A4.13,4.13,0,0,0,1270.93,137.37Z" transform="translate(-0.02 0)"/><path d="M1306.85,163.54a15.26,15.26,0,0,1-8.13-2.13,12.86,12.86,0,0,1-4.87-5.56,16.77,16.77,0,0,1,14.62-23.95h.52a9.62,9.62,0,0,1,6.58,2,7.36,7.36,0,0,1,2.31,5.65,3.33,3.33,0,0,1-.17,1.28.75.75,0,0,1-.77.51h-4.53c.17-2.56-.26-4.53-1.37-5.9a5.86,5.86,0,0,0-4.7-2.05,7.63,7.63,0,0,0-6.67,3.25c-1.54,2.22-2.31,5.13-2.31,8.89a19,19,0,0,0,1.45,7.87,12.4,12.4,0,0,0,4.19,5.39,10.54,10.54,0,0,0,6.59,2,16.51,16.51,0,0,0,4.1-.6,13,13,0,0,0,3.94-2c.08-.08.25,0,.42.17s.26.43.09.6a17.35,17.35,0,0,1-5.65,3.42A15.28,15.28,0,0,1,1306.85,163.54Zm-10.86-22-.09-1,17.71-.43v1.28Z" transform="translate(-0.02 0)"/><path d="M1335.84,163.54a10.72,10.72,0,0,1-3.59-.59,5.94,5.94,0,0,1-2.82-2,6.13,6.13,0,0,1-1.11-3.85v-18.3a15.82,15.82,0,0,0-.26-2.82,1.46,1.46,0,0,0-1.11-1.2,7.07,7.07,0,0,0-2.65-.26c-.17,0-.35-.17-.35-.51s.09-.51.35-.51a8.39,8.39,0,0,0,5.13-1.72,6.16,6.16,0,0,0,2.22-4.19c0-.17.17-.25.6-.25s.6.08.6.25v26.86a5.56,5.56,0,0,0,6.16,6.33,8.57,8.57,0,0,0,3.59-.69,7.75,7.75,0,0,0,2.56-1.54.58.58,0,0,1,.6.17.42.42,0,0,1,0,.6,24.22,24.22,0,0,1-5.13,3.17A11.82,11.82,0,0,1,1335.84,163.54Zm7.53-27.11a33.27,33.27,0,0,0-5.82-1c-1.88-.17-3.85-.26-6-.26v-1.71c2,0,4.1-.09,6-.26s3.94-.34,6.16-.51c.09,0,.26.17.34.51a3.59,3.59,0,0,1,.17,1.37,2.74,2.74,0,0,1-.25,1.2C1343.71,136.26,1343.54,136.43,1343.37,136.43Z" transform="translate(-0.02 0)"/><path d="M1192.08,247.44l.77-38.31,1.88.17-.77,38.14c-.09,2.65.43,4.62,1.37,5.82s2.73,1.79,5.22,1.79c.08,0,.17.17.17.43s-.09.51-.17.51c-1.12,0-2.31,0-3.51-.08s-2.57-.09-4-.09-2.65,0-3.76.09-2.31.08-3.34.08c-.08,0-.17-.17-.17-.51s.09-.43.17-.43c2.14,0,3.76-.6,4.7-1.79S1192,250.09,1192.08,247.44ZM1246,255c.17,0,.25.17.25.42s-.08.52-.25.52c-1.29,0-2.65,0-4.28-.09s-3.25-.08-5-.08-3.16,0-4.62.08-2.73.09-3.85.09c-.08,0-.17-.17-.17-.52s.09-.42.17-.42c2.57,0,4.28-.34,5-1s1-2.14,1-4.36L1232.7,212l2.57-3.59-20.19,46.87c-.08.26-.25.34-.59.34s-.6-.08-.69-.34l-19.5-41.56c-1.79-3.68-4.36-5.48-7.87-5.48-.08,0-.17-.17-.17-.51s.09-.43.17-.43c.86,0,1.71,0,2.66.09s1.71.08,2.39.08a20.7,20.7,0,0,0,2.31-.08,11.47,11.47,0,0,1,1.62-.09,2.36,2.36,0,0,1,1.71.69,16,16,0,0,1,1.89,3.33l17.7,37.29-2.4,4,19-43.45a2.82,2.82,0,0,1,1-1.45,1.93,1.93,0,0,1,1.36-.51,6.91,6.91,0,0,1,1.2.08,11.5,11.5,0,0,0,1.88.09c1.37,0,2.57,0,3.42-.09s1.8-.08,2.83-.08c.08,0,.17.17.17.42s-.09.52-.17.52c-2.48,0-4.36.34-5.56,1.11s-1.71,2.14-1.63,4.27l1.54,36a11.16,11.16,0,0,0,.52,3.42,2.63,2.63,0,0,0,1.88,1.54,13.63,13.63,0,0,0,4.19.43Z" transform="translate(-0.02 0)"/><path d="M1256.9,256.42a5.14,5.14,0,0,1-3.76-1.37,4.32,4.32,0,0,1-1.2-3.16,4.1,4.1,0,0,1,1.71-3.42,21.36,21.36,0,0,1,5.65-2.65l10.18-3.68.25.85-9.06,3.42a6.88,6.88,0,0,0-2.48,1.54,3.26,3.26,0,0,0-.77,2.14,3.15,3.15,0,0,0,2.82,3.42h.51a10,10,0,0,0,1.63-.17,11.36,11.36,0,0,0,1.54-.6l6.58-3.33.17.94-6.75,3.68c-1.29.6-2.57,1.19-3.94,1.71A6.51,6.51,0,0,1,1256.9,256.42Zm15.23-.08a1.7,1.7,0,0,1-.6.17c-.69,0-1.37-.6-2-1.71a10.72,10.72,0,0,1-.94-4.88V236.07a18,18,0,0,0-.68-5.65,5.55,5.55,0,0,0-1.8-2.82,4.47,4.47,0,0,0-2.48-.77,4.75,4.75,0,0,0-3.16.94,5.4,5.4,0,0,0-1.88,2.48,12.35,12.35,0,0,0-.86,2.91,4.66,4.66,0,0,1-.68,2.05,2.45,2.45,0,0,1-2.23.94,2.81,2.81,0,0,1-2-.6,1.86,1.86,0,0,1-.68-1.71,4.65,4.65,0,0,1,1.37-2.9,15.64,15.64,0,0,1,3.51-2.83,26.84,26.84,0,0,1,4.53-2.13,13.08,13.08,0,0,1,4.45-.86,6.08,6.08,0,0,1,4.87,2c1.28,1.37,2,3.51,2,6.5v13.77a8.71,8.71,0,0,0,.68,3.94,2.18,2.18,0,0,0,2.22,1.19,10.79,10.79,0,0,0,3.94-1,.35.35,0,0,1,.51.25.42.42,0,0,1-.17.52H1280Z" transform="translate(-0.02 0)"/><path d="M1283.76,255.91c-.17,0-.26-.17-.26-.52s.09-.42.26-.42c2,0,3.33-.34,3.93-1s.86-2.14.86-4.28V234.27a8.23,8.23,0,0,0-.6-3.76,2.27,2.27,0,0,0-2.14-1.2,4.52,4.52,0,0,0-1.79.34c-.77.26-1.63.52-2.4.86-.17.08-.34-.09-.51-.34s-.09-.43.08-.52l9.07-4.27a1,1,0,0,1,.51-.09c.34,0,.86.51,1.37,1.63a9.78,9.78,0,0,1,.85,4.7v18c0,2.14.26,3.6.86,4.28s1.88,1,3.93,1c.18,0,.26.17.26.42s-.08.52-.26.52c-.85,0-2,0-3.16-.09s-2.48-.08-3.85-.08-2.65,0-3.93.08S1284.7,255.91,1283.76,255.91Zm21,0c-.17,0-.26-.17-.26-.52s.09-.42.26-.42c2,0,3.34-.34,3.94-1s.85-2.14.85-4.28V237c0-3.08-.6-5.39-1.71-6.84s-3-2.14-5.47-2.14a11.25,11.25,0,0,0-5.73,1.79,16.14,16.14,0,0,0-5,4.88l-.34-.94A27.12,27.12,0,0,1,1298,227a12.93,12.93,0,0,1,6.84-2.22,9,9,0,0,1,6.67,2.39c1.54,1.63,2.4,3.94,2.4,7.1v15.22c0,2.14.25,3.6.85,4.28s1.88,1,3.94,1c.17,0,.25.17.25.42s-.08.52-.25.52c-.86,0-2,0-3.17-.09s-2.48-.08-3.85-.08-2.65,0-3.84.08S1305.57,255.91,1304.71,255.91Z" transform="translate(-0.02 0)"/><path d="M1329.68,256.42a5.14,5.14,0,0,1-3.76-1.37,4.74,4.74,0,0,1-1.28-3.16,4.1,4.1,0,0,1,1.71-3.42,21.86,21.86,0,0,1,5.56-2.65l10.17-3.68.26.85-9,3.42a7.21,7.21,0,0,0-2.56,1.54,3.26,3.26,0,0,0-.77,2.14,3.15,3.15,0,0,0,2.82,3.42h.51a10.13,10.13,0,0,0,1.63-.17,11.36,11.36,0,0,0,1.54-.6l6.58-3.33.17.94-6.75,3.68c-1.29.6-2.57,1.19-3.94,1.71A5.64,5.64,0,0,1,1329.68,256.42Zm15.23-.08a1.7,1.7,0,0,1-.6.17c-.69,0-1.37-.6-2-1.71a10.72,10.72,0,0,1-.94-4.88V236.07a18,18,0,0,0-.68-5.65,5.55,5.55,0,0,0-1.8-2.82,4.54,4.54,0,0,0-2.57-.77,4.75,4.75,0,0,0-3.16.94,6.08,6.08,0,0,0-1.88,2.48,12.35,12.35,0,0,0-.86,2.91,4.42,4.42,0,0,1-.68,2.05,2.44,2.44,0,0,1-2.22.94,2.8,2.8,0,0,1-2-.6,1.87,1.87,0,0,1-.69-1.71,4.65,4.65,0,0,1,1.37-2.9,15.86,15.86,0,0,1,3.51-2.83,27.21,27.21,0,0,1,4.53-2.13,13.12,13.12,0,0,1,4.45-.86,6.07,6.07,0,0,1,4.87,2c1.29,1.37,2,3.51,2,6.5v13.77a8.71,8.71,0,0,0,.69,3.94,2.23,2.23,0,0,0,2.22,1.19,10,10,0,0,0,3.85-1,.36.36,0,0,1,.51.25.42.42,0,0,1-.17.52h-.09Z" transform="translate(-0.02 0)"/><path d="M1366.54,277.8c-3.76,0-6.75-.85-9-2.65a8.32,8.32,0,0,1-3.33-6.76,9.41,9.41,0,0,1,1.37-4.79,18.61,18.61,0,0,1,4-4.61,49.64,49.64,0,0,1,6.5-4.62l.77.85c-1.29.86-2.57,1.71-3.77,2.65a12.74,12.74,0,0,0-3.08,3.25,10.13,10.13,0,0,0,1.71,11.89,11.49,11.49,0,0,0,7.87,2.57,13.85,13.85,0,0,0,6.67-1.46,9.65,9.65,0,0,0,4.11-3.76,8.67,8.67,0,0,0,1.37-4.79,5.51,5.51,0,0,0-1.29-3.93,7.93,7.93,0,0,0-3.25-2.31,20.11,20.11,0,0,0-4.44-1.2c-1.63-.26-3.25-.51-4.88-.68a32.68,32.68,0,0,1-4.79-.94,11.08,11.08,0,0,1-3.93-1.8,4.2,4.2,0,0,1-1.54-3.51,6.8,6.8,0,0,1,1.88-4.7,17.79,17.79,0,0,1,4.53-3.85l.52.51a8,8,0,0,0-2.48,2.31,5.06,5.06,0,0,0-.86,2.91,3.31,3.31,0,0,0,1.28,2.82,7.28,7.28,0,0,0,3.34,1.46,36.21,36.21,0,0,0,4.19.77c1.8.25,3.68.51,5.47.85a26.21,26.21,0,0,1,5,1.37,8,8,0,0,1,3.68,2.57,6.68,6.68,0,0,1,1.37,4.53,9.85,9.85,0,0,1-1.54,5.3,17.83,17.83,0,0,1-4.19,4.88,22.62,22.62,0,0,1-6.16,3.59A17.66,17.66,0,0,1,1366.54,277.8Zm1.8-34a12.39,12.39,0,0,1-6.07-1.28,9.25,9.25,0,0,1-3.76-3.51,8.71,8.71,0,0,1-1.29-4.62,8.05,8.05,0,0,1,1.54-4.79,10.13,10.13,0,0,1,4.28-3.25,17.07,17.07,0,0,1,6.16-1.19,12.44,12.44,0,0,1,6.32,1.36,8,8,0,0,1,3.42,3.34,8.52,8.52,0,0,1,1,4.1,9,9,0,0,1-1.45,4.88,9.67,9.67,0,0,1-4.11,3.51A11.91,11.91,0,0,1,1368.34,243.85Zm1.62-1.11a5.33,5.33,0,0,0,3.68-1.54c1-1,1.63-2.91,1.63-5.48a9.17,9.17,0,0,0-2.48-6.67,7.65,7.65,0,0,0-5.56-2.48,5.6,5.6,0,0,0-3.76,1.46c-1,1-1.54,2.65-1.54,4.87a10.46,10.46,0,0,0,1.19,5.3,8.94,8.94,0,0,0,3,3.43A6.73,6.73,0,0,0,1370,242.74Zm5.65-11.55.09-2.56a29.57,29.57,0,0,1,4.61-2.48,15,15,0,0,1,5.13-.86c.09,0,.18.17.26.51a5.4,5.4,0,0,1,.09,1.2,13.7,13.7,0,0,1-.17,1.8c-.18.68-.26.94-.52.77-.51-.17-1.19-.43-2.14-.77a8.77,8.77,0,0,0-3-.43,14.92,14.92,0,0,0-1.88.17c-.6.09-1.2.26-1.8.34Z" transform="translate(-0.02 0)"/><path d="M1417.23,255.91c-.17,0-.25-.17-.25-.52s.08-.42.25-.42c2.06,0,3.34-.34,3.94-1s.85-2.14.85-4.28V234.27a8,8,0,0,0-.6-3.76,2.25,2.25,0,0,0-2.13-1.2,4.6,4.6,0,0,0-1.8.34c-.77.26-1.62.52-2.39.86-.18.08-.35-.09-.52-.34s-.08-.43.09-.52l9.06-4.27a.91.91,0,0,1,.43-.09c.34,0,.86.51,1.37,1.63a9.78,9.78,0,0,1,.85,4.7v18c0,2.14.26,3.6.86,4.28s1.88,1,3.93,1c.17,0,.26.17.26.42s-.08.52-.26.52c-.85,0-2,0-3.16-.09s-2.48-.08-3.85-.08-2.65,0-3.85.08S1418.09,255.91,1417.23,255.91Zm20,0c-.17,0-.26-.17-.26-.52s.09-.42.26-.42c2,0,3.33-.34,3.93-1s.86-2.14.94-4.28v-12.4c0-6.07-2.22-9.06-6.58-9.06A10.66,10.66,0,0,0,1430,230a17,17,0,0,0-4.88,5l-.34-.94a24.3,24.3,0,0,1,6.5-6.75,11.6,11.6,0,0,1,6.67-2,8.58,8.58,0,0,1,6.33,2.22c1.54,1.54,2.22,3.85,2.22,7v15.22c0,2.14.34,3.6.94,4.28s2,1,4,1c.17,0,.26.17.26.42s-.09.52-.26.52c-.94,0-2,0-3.25-.09s-2.48-.08-3.85-.08-2.65,0-3.93.08S1438.1,255.91,1437.25,255.91Zm20,0c-.17,0-.26-.17-.26-.52s.09-.42.26-.42c2,0,3.33-.34,3.93-1s.94-2.14.94-4.28v-12.4c0-6.07-2.22-9.06-6.67-9.06a10.72,10.72,0,0,0-5.56,1.79,17.05,17.05,0,0,0-4.87,5l-.34-.94a25.93,25.93,0,0,1,6.58-6.75,11.6,11.6,0,0,1,6.67-2,8.32,8.32,0,0,1,6.25,2.3c1.45,1.54,2.22,3.94,2.22,7.1v15c0,2.14.26,3.6.85,4.28s2,1,4,1c.17,0,.26.17.26.42s-.09.52-.26.52c-.85,0-2,0-3.16-.09s-2.57-.08-3.93-.08-2.66,0-3.85.08S1458.2,255.91,1457.26,255.91Z" transform="translate(-0.02 0)"/><path d="M1490.44,256.85a15.3,15.3,0,0,1-8.12-2.14,12.82,12.82,0,0,1-4.88-5.56,16.55,16.55,0,0,1,7.44-22.23,15.69,15.69,0,0,1,7.61-1.71,9.63,9.63,0,0,1,6.59,2,7.36,7.36,0,0,1,2.31,5.64,3.38,3.38,0,0,1-.17,1.29.75.75,0,0,1-.77.51h-4.54c.18-2.57-.25-4.53-1.36-5.9a5.8,5.8,0,0,0-4.71-2.06,7.66,7.66,0,0,0-6.67,3.25c-1.54,2.23-2.31,5.14-2.31,8.9a19.24,19.24,0,0,0,1.46,7.87,12.24,12.24,0,0,0,4.19,5.38,10.47,10.47,0,0,0,6.58,2,16.14,16.14,0,0,0,4.11-.6,13,13,0,0,0,3.93-2c.09-.09.26-.09.43.17s.26.42.08.6a17.76,17.76,0,0,1-5.55,3.42A15.58,15.58,0,0,1,1490.44,256.85Zm-10.86-22-.09-1,17.71-.42v1.28Z" transform="translate(-0.02 0)"/><path d="M1401.87,256.17a15.34,15.34,0,0,1-8.13-2.14,12.79,12.79,0,0,1-4.87-5.56,16.55,16.55,0,0,1,7.44-22.24,15.89,15.89,0,0,1,7.61-1.71,9.7,9.7,0,0,1,6.59,2,7.35,7.35,0,0,1,2.3,5.65,3.33,3.33,0,0,1-.17,1.28.74.74,0,0,1-.77.51h-4.53c.17-2.56-.26-4.53-1.37-5.9a5.79,5.79,0,0,0-4.7-2.05,7.64,7.64,0,0,0-6.67,3.25c-1.54,2.22-2.31,5.13-2.31,8.9a19.18,19.18,0,0,0,1.45,7.86,12.4,12.4,0,0,0,4.19,5.39,10.56,10.56,0,0,0,6.59,2,16.44,16.44,0,0,0,4.1-.6,13,13,0,0,0,3.94-2c.08-.08.25-.08.43.17s.25.43.08.6a17.62,17.62,0,0,1-5.56,3.42A15.32,15.32,0,0,1,1401.87,256.17Zm-10.86-22-.09-1,17.7-.43V234Z" transform="translate(-0.02 0)"/><path d="M1508.32,255.91c-.18,0-.26-.17-.26-.52s.08-.42.26-.42c2,0,3.33-.34,3.93-1s.85-2.14.85-4.28V234.27a8.09,8.09,0,0,0-.59-3.76,2.28,2.28,0,0,0-2.14-1.2,4.6,4.6,0,0,0-1.8.34c-.77.26-1.62.52-2.39.86-.17.08-.35-.09-.52-.34s-.08-.43.09-.52l9.06-4.27a.93.93,0,0,1,.43-.09c.34,0,.86.51,1.37,1.63a9.78,9.78,0,0,1,.86,4.7v18c0,2.14.25,3.6.85,4.28s1.88,1,3.94,1c.17,0,.25.17.25.42s-.08.52-.25.52c-.86,0-2,0-3.17-.09s-2.48-.08-3.85-.08-2.65,0-3.85.08S1509.17,255.91,1508.32,255.91Zm20.86,0c-.17,0-.25-.17-.25-.52s.08-.42.25-.42c2.06,0,3.34-.34,3.94-1s.85-2.14.85-4.28V237c0-3.08-.6-5.39-1.71-6.84s-2.91-2.14-5.47-2.14a11.28,11.28,0,0,0-5.73,1.79,16.35,16.35,0,0,0-5,4.88l-.34-.94a27.12,27.12,0,0,1,6.84-6.76,12.93,12.93,0,0,1,6.84-2.22,9,9,0,0,1,6.67,2.39c1.63,1.63,2.4,3.94,2.4,7.1v15.22c0,2.14.26,3.6.85,4.28s1.89,1,3.94,1c.17,0,.25.17.25.42s-.08.52-.25.52c-.86,0-2,0-3.17-.09s-2.48-.08-3.84-.08-2.66,0-3.94.08S1530,255.91,1529.18,255.91Z" transform="translate(-0.02 0)"/><path d="M1559.63,256.85a10.45,10.45,0,0,1-3.59-.6,5.85,5.85,0,0,1-2.83-2,6.09,6.09,0,0,1-1.11-3.76v-18.3a15.81,15.81,0,0,0-.25-2.82,1.47,1.47,0,0,0-1.12-1.2,7,7,0,0,0-2.65-.26c-.17,0-.34-.17-.34-.51s.09-.51.34-.51a8.42,8.42,0,0,0,5.13-1.71,6.17,6.17,0,0,0,2.23-4.2c0-.17.17-.25.6-.25s.6.08.6.25v26.86a5.56,5.56,0,0,0,6.15,6.33,8.54,8.54,0,0,0,3.59-.69A7.69,7.69,0,0,0,1569,252a.58.58,0,0,1,.6.17.42.42,0,0,1,0,.6,24.47,24.47,0,0,1-5.13,3.17A12.93,12.93,0,0,1,1559.63,256.85Zm7.52-27.11a32.28,32.28,0,0,0-5.81-1c-1.88-.17-3.85-.25-6-.25v-1.72c2.05,0,4.11-.08,6-.25s3.93-.34,6.16-.51c.08,0,.25.17.34.51a3.56,3.56,0,0,1,.17,1.37,2.73,2.73,0,0,1-.26,1.19c-.17.52-.42.69-.6.69Z" transform="translate(-0.02 0)"/></svg>